<svg width="1363" height="167" viewBox="0 0 1363 167" fill="none" xmlns="http://www.w3.org/2000/svg">
<rect width="1363" height="167" rx="15" fill="#F0F0F0"/>
<path d="M0 15C0 6.71573 6.71573 0 15 0H37V167H15C6.71573 167 0 160.284 0 152V15Z" fill="#424241"/>
<path d="M100.906 50.9219L93.3945 48.2383V45.0859L103.602 49.375V51.6367L100.906 50.9219ZM93.3945 53.1719L100.918 50.4297L103.602 49.7852V52.0352L93.3945 56.3242V53.1719ZM115.309 54.7188L117.945 45.3203H120.09L119.398 49.0117L116.762 58H114.969L115.309 54.7188ZM113.973 45.3203L115.859 54.707L116.035 58H113.926L110.715 45.3203H113.973ZM122.504 54.5547L124.344 45.3203H127.613L124.402 58H122.305L122.504 54.5547ZM120.383 45.3203L123.008 54.6484L123.371 58H121.566L118.93 49.0234L118.262 45.3203H120.383ZM136.156 55.1406V49.4922C136.156 49.0859 136.09 48.7383 135.957 48.4492C135.824 48.1523 135.617 47.9219 135.336 47.7578C135.062 47.5938 134.707 47.5117 134.27 47.5117C133.895 47.5117 133.57 47.5781 133.297 47.7109C133.023 47.8359 132.812 48.0195 132.664 48.2617C132.516 48.4961 132.441 48.7734 132.441 49.0938H129.066C129.066 48.5547 129.191 48.043 129.441 47.5586C129.691 47.0742 130.055 46.6484 130.531 46.2812C131.008 45.9062 131.574 45.6133 132.23 45.4023C132.895 45.1914 133.637 45.0859 134.457 45.0859C135.441 45.0859 136.316 45.25 137.082 45.5781C137.848 45.9062 138.449 46.3984 138.887 47.0547C139.332 47.7109 139.555 48.5312 139.555 49.5156V54.9414C139.555 55.6367 139.598 56.207 139.684 56.6523C139.77 57.0898 139.895 57.4727 140.059 57.8008V58H136.648C136.484 57.6562 136.359 57.2266 136.273 56.7109C136.195 56.1875 136.156 55.6641 136.156 55.1406ZM136.602 50.2773L136.625 52.1875H134.738C134.293 52.1875 133.906 52.2383 133.578 52.3398C133.25 52.4414 132.98 52.5859 132.77 52.7734C132.559 52.9531 132.402 53.1641 132.301 53.4062C132.207 53.6484 132.16 53.9141 132.16 54.2031C132.16 54.4922 132.227 54.7539 132.359 54.9883C132.492 55.2148 132.684 55.3945 132.934 55.5273C133.184 55.6523 133.477 55.7148 133.812 55.7148C134.32 55.7148 134.762 55.6133 135.137 55.4102C135.512 55.207 135.801 54.957 136.004 54.6602C136.215 54.3633 136.324 54.082 136.332 53.8164L137.223 55.2461C137.098 55.5664 136.926 55.8984 136.707 56.2422C136.496 56.5859 136.227 56.9102 135.898 57.2148C135.57 57.5117 135.176 57.7578 134.715 57.9531C134.254 58.1406 133.707 58.2344 133.074 58.2344C132.27 58.2344 131.539 58.0742 130.883 57.7539C130.234 57.4258 129.719 56.9766 129.336 56.4062C128.961 55.8281 128.773 55.1719 128.773 54.4375C128.773 53.7734 128.898 53.1836 129.148 52.668C129.398 52.1523 129.766 51.7188 130.25 51.3672C130.742 51.0078 131.355 50.7383 132.09 50.5586C132.824 50.3711 133.676 50.2773 134.645 50.2773H136.602ZM151.637 55.4688L156.254 59.125L154.039 61.0469L149.492 57.3906L151.637 55.4688ZM156.371 49.0703V49.8789C156.371 51.1758 156.195 52.3398 155.844 53.3711C155.5 54.4023 155.004 55.2812 154.355 56.0078C153.707 56.7266 152.941 57.2773 152.059 57.6602C151.176 58.043 150.195 58.2344 149.117 58.2344C148.047 58.2344 147.066 58.043 146.176 57.6602C145.285 57.2773 144.516 56.7266 143.867 56.0078C143.219 55.2812 142.715 54.4023 142.355 53.3711C142.004 52.3398 141.828 51.1758 141.828 49.8789V49.0703C141.828 47.7656 142.004 46.6016 142.355 45.5781C142.715 44.5469 143.215 43.668 143.855 42.9414C144.496 42.2148 145.262 41.6602 146.152 41.2773C147.043 40.8945 148.023 40.7031 149.094 40.7031C150.172 40.7031 151.152 40.8945 152.035 41.2773C152.926 41.6602 153.695 42.2148 154.344 42.9414C154.992 43.668 155.492 44.5469 155.844 45.5781C156.195 46.6016 156.371 47.7656 156.371 49.0703ZM152.82 49.8789V49.0469C152.82 48.1406 152.734 47.3438 152.562 46.6562C152.398 45.9688 152.156 45.3906 151.836 44.9219C151.523 44.4531 151.137 44.1016 150.676 43.8672C150.215 43.625 149.688 43.5039 149.094 43.5039C148.5 43.5039 147.973 43.625 147.512 43.8672C147.051 44.1016 146.664 44.4531 146.352 44.9219C146.039 45.3906 145.801 45.9688 145.637 46.6562C145.473 47.3438 145.391 48.1406 145.391 49.0469V49.8789C145.391 50.7773 145.473 51.5742 145.637 52.2695C145.801 52.957 146.039 53.5391 146.352 54.0156C146.672 54.4844 147.062 54.8398 147.523 55.082C147.992 55.3242 148.523 55.4453 149.117 55.4453C149.711 55.4453 150.234 55.3242 150.688 55.082C151.148 54.8398 151.535 54.4844 151.848 54.0156C152.168 53.5391 152.41 52.957 152.574 52.2695C152.738 51.5742 152.82 50.7773 152.82 49.8789ZM158.164 51.7891V51.543C158.164 50.6133 158.297 49.7578 158.562 48.9766C158.828 48.1875 159.215 47.5039 159.723 46.9258C160.23 46.3477 160.855 45.8984 161.598 45.5781C162.34 45.25 163.191 45.0859 164.152 45.0859C165.113 45.0859 165.969 45.25 166.719 45.5781C167.469 45.8984 168.098 46.3477 168.605 46.9258C169.121 47.5039 169.512 48.1875 169.777 48.9766C170.043 49.7578 170.176 50.6133 170.176 51.543V51.7891C170.176 52.7109 170.043 53.5664 169.777 54.3555C169.512 55.1367 169.121 55.8203 168.605 56.4062C168.098 56.9844 167.473 57.4336 166.73 57.7539C165.988 58.0742 165.137 58.2344 164.176 58.2344C163.215 58.2344 162.359 58.0742 161.609 57.7539C160.867 57.4336 160.238 56.9844 159.723 56.4062C159.215 55.8203 158.828 55.1367 158.562 54.3555C158.297 53.5664 158.164 52.7109 158.164 51.7891ZM161.539 51.543V51.7891C161.539 52.3203 161.586 52.8164 161.68 53.2773C161.773 53.7383 161.922 54.1445 162.125 54.4961C162.336 54.8398 162.609 55.1094 162.945 55.3047C163.281 55.5 163.691 55.5977 164.176 55.5977C164.645 55.5977 165.047 55.5 165.383 55.3047C165.719 55.1094 165.988 54.8398 166.191 54.4961C166.395 54.1445 166.543 53.7383 166.637 53.2773C166.738 52.8164 166.789 52.3203 166.789 51.7891V51.543C166.789 51.0273 166.738 50.543 166.637 50.0898C166.543 49.6289 166.391 49.2227 166.18 48.8711C165.977 48.5117 165.707 48.2305 165.371 48.0273C165.035 47.8242 164.629 47.7227 164.152 47.7227C163.676 47.7227 163.27 47.8242 162.934 48.0273C162.605 48.2305 162.336 48.5117 162.125 48.8711C161.922 49.2227 161.773 49.6289 161.68 50.0898C161.586 50.543 161.539 51.0273 161.539 51.543ZM179.75 54.9648V45.3203H183.125V58H179.949L179.75 54.9648ZM180.125 52.3633L181.121 52.3398C181.121 53.1836 181.023 53.9688 180.828 54.6953C180.633 55.4141 180.34 56.0391 179.949 56.5703C179.559 57.0938 179.066 57.5039 178.473 57.8008C177.879 58.0898 177.18 58.2344 176.375 58.2344C175.758 58.2344 175.188 58.1484 174.664 57.9766C174.148 57.7969 173.703 57.5195 173.328 57.1445C172.961 56.7617 172.672 56.2734 172.461 55.6797C172.258 55.0781 172.156 54.3555 172.156 53.5117V45.3203H175.531V53.5352C175.531 53.9102 175.574 54.2266 175.66 54.4844C175.754 54.7422 175.883 54.9531 176.047 55.1172C176.211 55.2812 176.402 55.3984 176.621 55.4688C176.848 55.5391 177.098 55.5742 177.371 55.5742C178.066 55.5742 178.613 55.4336 179.012 55.1523C179.418 54.8711 179.703 54.4883 179.867 54.0039C180.039 53.5117 180.125 52.9648 180.125 52.3633ZM193.191 55.2344V40H196.59V58H193.531L193.191 55.2344ZM185.176 51.8125V51.5664C185.176 50.5977 185.285 49.7188 185.504 48.9297C185.723 48.1328 186.043 47.4492 186.465 46.8789C186.887 46.3086 187.406 45.8672 188.023 45.5547C188.641 45.2422 189.344 45.0859 190.133 45.0859C190.875 45.0859 191.523 45.2422 192.078 45.5547C192.641 45.8672 193.117 46.3125 193.508 46.8906C193.906 47.4609 194.227 48.1367 194.469 48.918C194.711 49.6914 194.887 50.5391 194.996 51.4609V52C194.887 52.8828 194.711 53.7031 194.469 54.4609C194.227 55.2188 193.906 55.8828 193.508 56.4531C193.117 57.0156 192.641 57.4531 192.078 57.7656C191.516 58.0781 190.859 58.2344 190.109 58.2344C189.32 58.2344 188.617 58.0742 188 57.7539C187.391 57.4336 186.875 56.9844 186.453 56.4062C186.039 55.8281 185.723 55.1484 185.504 54.3672C185.285 53.5859 185.176 52.7344 185.176 51.8125ZM188.551 51.5664V51.8125C188.551 52.3359 188.59 52.8242 188.668 53.2773C188.754 53.7305 188.891 54.1328 189.078 54.4844C189.273 54.8281 189.523 55.0977 189.828 55.293C190.141 55.4805 190.52 55.5742 190.965 55.5742C191.543 55.5742 192.02 55.4453 192.395 55.1875C192.77 54.9219 193.055 54.5586 193.25 54.0977C193.453 53.6367 193.57 53.1055 193.602 52.5039V50.9688C193.578 50.4766 193.508 50.0352 193.391 49.6445C193.281 49.2461 193.117 48.9062 192.898 48.625C192.688 48.3438 192.422 48.125 192.102 47.9688C191.789 47.8125 191.418 47.7344 190.988 47.7344C190.551 47.7344 190.176 47.8359 189.863 48.0391C189.551 48.2344 189.297 48.5039 189.102 48.8477C188.914 49.1914 188.773 49.5977 188.68 50.0664C188.594 50.5273 188.551 51.0273 188.551 51.5664Z" fill="#888888"/>
<path d="M115.994 98.708V104.641H99.5806V98.708H115.994ZM102.151 86.0078V118H94.439V86.0078H102.151ZM121.18 86.0078V118H113.489V86.0078H121.18ZM124.805 106.354V105.893C124.805 104.15 125.054 102.546 125.552 101.081C126.05 99.6016 126.783 98.3198 127.75 97.2358C128.716 96.1519 129.91 95.3096 131.331 94.709C132.752 94.0938 134.393 93.7861 136.253 93.7861C138.128 93.7861 139.776 94.0938 141.197 94.709C142.632 95.3096 143.833 96.1519 144.8 97.2358C145.767 98.3198 146.5 99.6016 146.998 101.081C147.496 102.546 147.745 104.15 147.745 105.893V106.354C147.745 108.083 147.496 109.687 146.998 111.167C146.5 112.631 145.767 113.913 144.8 115.012C143.833 116.096 142.64 116.938 141.219 117.539C139.798 118.139 138.157 118.439 136.297 118.439C134.437 118.439 132.789 118.139 131.353 117.539C129.917 116.938 128.716 116.096 127.75 115.012C126.783 113.913 126.05 112.631 125.552 111.167C125.054 109.687 124.805 108.083 124.805 106.354ZM132.21 105.893V106.354C132.21 107.248 132.276 108.083 132.408 108.859C132.54 109.636 132.759 110.317 133.067 110.903C133.375 111.474 133.792 111.921 134.319 112.243C134.847 112.565 135.506 112.727 136.297 112.727C137.073 112.727 137.718 112.565 138.23 112.243C138.758 111.921 139.175 111.474 139.483 110.903C139.791 110.317 140.01 109.636 140.142 108.859C140.274 108.083 140.34 107.248 140.34 106.354V105.893C140.34 105.029 140.274 104.216 140.142 103.454C140.01 102.678 139.791 101.997 139.483 101.411C139.175 100.81 138.758 100.341 138.23 100.004C137.703 99.6675 137.044 99.499 136.253 99.499C135.477 99.499 134.825 99.6675 134.297 100.004C133.785 100.341 133.375 100.81 133.067 101.411C132.759 101.997 132.54 102.678 132.408 103.454C132.276 104.216 132.21 105.029 132.21 105.893ZM158.27 110.925L162.664 94.2256H167.3L165.652 102.597L161.302 118H157.588L158.27 110.925ZM156.534 94.2256L159.258 110.793L159.566 118H155.062L149.437 94.2256H156.534ZM171.211 110.441L173.958 94.2256H181.055L175.474 118H170.97L171.211 110.441ZM167.828 94.2256L172.266 110.881L172.947 118H169.19L164.927 102.641L163.345 94.2256H167.828ZM209.466 86.0078V118H201.753V86.0078H209.466ZM219.09 86.0078V91.9624H192.349V86.0078H219.09ZM216.475 106.354V105.893C216.475 104.15 216.724 102.546 217.222 101.081C217.72 99.6016 218.453 98.3198 219.419 97.2358C220.386 96.1519 221.58 95.3096 223.001 94.709C224.422 94.0938 226.062 93.7861 227.923 93.7861C229.798 93.7861 231.446 94.0938 232.867 94.709C234.302 95.3096 235.503 96.1519 236.47 97.2358C237.437 98.3198 238.169 99.6016 238.667 101.081C239.166 102.546 239.415 104.15 239.415 105.893V106.354C239.415 108.083 239.166 109.687 238.667 111.167C238.169 112.631 237.437 113.913 236.47 115.012C235.503 116.096 234.31 116.938 232.889 117.539C231.468 118.139 229.827 118.439 227.967 118.439C226.106 118.439 224.458 118.139 223.023 117.539C221.587 116.938 220.386 116.096 219.419 115.012C218.453 113.913 217.72 112.631 217.222 111.167C216.724 109.687 216.475 108.083 216.475 106.354ZM223.88 105.893V106.354C223.88 107.248 223.946 108.083 224.078 108.859C224.209 109.636 224.429 110.317 224.737 110.903C225.044 111.474 225.462 111.921 225.989 112.243C226.517 112.565 227.176 112.727 227.967 112.727C228.743 112.727 229.388 112.565 229.9 112.243C230.428 111.921 230.845 111.474 231.153 110.903C231.46 110.317 231.68 109.636 231.812 108.859C231.944 108.083 232.01 107.248 232.01 106.354V105.893C232.01 105.029 231.944 104.216 231.812 103.454C231.68 102.678 231.46 101.997 231.153 101.411C230.845 100.81 230.428 100.341 229.9 100.004C229.373 99.6675 228.714 99.499 227.923 99.499C227.146 99.499 226.495 99.6675 225.967 100.004C225.455 100.341 225.044 100.81 224.737 101.411C224.429 101.997 224.209 102.678 224.078 103.454C223.946 104.216 223.88 105.029 223.88 105.893ZM254.268 86.0078H266.858C269.319 86.0078 271.458 86.374 273.274 87.1064C275.091 87.8389 276.49 88.9229 277.471 90.3584C278.467 91.7939 278.965 93.5664 278.965 95.6758C278.965 97.5068 278.68 99.0376 278.108 100.268C277.537 101.499 276.739 102.517 275.713 103.322C274.703 104.113 273.523 104.765 272.176 105.278L269.649 106.706H259.08L259.036 100.751H266.858C267.84 100.751 268.653 100.576 269.297 100.224C269.942 99.8726 270.425 99.3745 270.748 98.73C271.084 98.0708 271.253 97.2871 271.253 96.3789C271.253 95.4561 271.084 94.665 270.748 94.0059C270.411 93.3467 269.913 92.8413 269.253 92.4897C268.609 92.1382 267.811 91.9624 266.858 91.9624H261.98V118H254.268V86.0078ZM271.78 118L264.705 103.85L272.879 103.806L280.042 117.67V118H271.78ZM297.159 112.221V94.2256H304.585V118H297.642L297.159 112.221ZM297.862 107.387L299.795 107.343C299.795 108.94 299.605 110.419 299.224 111.782C298.843 113.129 298.279 114.301 297.532 115.297C296.8 116.293 295.892 117.07 294.808 117.626C293.738 118.168 292.5 118.439 291.094 118.439C289.922 118.439 288.846 118.278 287.864 117.956C286.897 117.619 286.062 117.099 285.359 116.396C284.656 115.678 284.107 114.763 283.711 113.649C283.331 112.521 283.14 111.174 283.14 109.606V94.2256H290.545V109.65C290.545 110.178 290.611 110.632 290.743 111.013C290.875 111.394 291.065 111.716 291.314 111.979C291.563 112.229 291.871 112.419 292.237 112.551C292.618 112.668 293.05 112.727 293.533 112.727C294.646 112.727 295.518 112.492 296.148 112.023C296.778 111.555 297.217 110.917 297.466 110.112C297.73 109.306 297.862 108.398 297.862 107.387ZM315.945 99.3013V118H308.541V94.2256H315.484L315.945 99.3013ZM315.066 105.3L313.331 105.344C313.331 103.527 313.55 101.909 313.99 100.488C314.429 99.0522 315.052 97.8364 315.857 96.8403C316.663 95.8442 317.623 95.0898 318.736 94.5771C319.864 94.0498 321.116 93.7861 322.493 93.7861C323.592 93.7861 324.595 93.9473 325.503 94.2695C326.426 94.5918 327.217 95.1118 327.876 95.8296C328.55 96.5474 329.063 97.4995 329.415 98.686C329.781 99.8579 329.964 101.308 329.964 103.037V118H322.515V103.015C322.515 102.062 322.383 101.337 322.12 100.839C321.856 100.327 321.475 99.9751 320.977 99.7847C320.479 99.5942 319.871 99.499 319.153 99.499C318.392 99.499 317.747 99.6455 317.22 99.9385C316.692 100.231 316.268 100.642 315.945 101.169C315.638 101.682 315.411 102.29 315.264 102.993C315.132 103.696 315.066 104.465 315.066 105.3ZM345.85 107.871H339.544C339.544 106.582 339.632 105.446 339.808 104.465C339.998 103.469 340.32 102.575 340.774 101.784C341.229 100.993 341.844 100.261 342.62 99.5869C343.309 99.0156 343.902 98.4663 344.4 97.939C344.898 97.4116 345.279 96.877 345.542 96.335C345.806 95.793 345.938 95.2144 345.938 94.5991C345.938 93.8374 345.828 93.2148 345.608 92.7314C345.403 92.248 345.088 91.8892 344.664 91.6548C344.253 91.4058 343.733 91.2812 343.104 91.2812C342.591 91.2812 342.107 91.4058 341.653 91.6548C341.214 91.9038 340.855 92.292 340.577 92.8193C340.298 93.332 340.145 94.0132 340.115 94.8628H332.667C332.71 92.6802 333.194 90.9077 334.117 89.5454C335.054 88.1685 336.299 87.165 337.852 86.5352C339.419 85.8906 341.17 85.5684 343.104 85.5684C345.242 85.5684 347.081 85.8979 348.619 86.5571C350.157 87.2163 351.336 88.1978 352.156 89.5015C352.977 90.7905 353.387 92.3799 353.387 94.2695C353.387 95.5293 353.145 96.6279 352.662 97.5654C352.193 98.4883 351.556 99.3525 350.75 100.158C349.959 100.949 349.073 101.799 348.091 102.707C347.242 103.454 346.663 104.216 346.355 104.992C346.048 105.754 345.879 106.713 345.85 107.871ZM338.643 114.55C338.643 113.496 339.024 112.617 339.786 111.914C340.547 111.196 341.536 110.837 342.752 110.837C343.968 110.837 344.957 111.196 345.718 111.914C346.48 112.617 346.861 113.496 346.861 114.55C346.861 115.605 346.48 116.491 345.718 117.209C344.957 117.912 343.968 118.264 342.752 118.264C341.536 118.264 340.547 117.912 339.786 117.209C339.024 116.491 338.643 115.605 338.643 114.55Z" fill="#424241"/>
<path d="M1363 15C1363 6.71573 1356.28 0 1348 0H1134V167H1348C1356.28 167 1363 160.284 1363 152V15Z" fill="#0F5F53"/>
<path d="M1260.77 81.3079C1263.96 81.3079 1267.09 82.2553 1269.74 84.0303C1272.4 85.8053 1274.47 88.3282 1275.69 91.2799C1276.92 94.2316 1277.24 97.4796 1276.61 100.613C1275.99 103.747 1274.45 106.625 1272.19 108.884C1269.93 111.143 1267.05 112.682 1263.92 113.305C1260.79 113.928 1257.54 113.608 1254.59 112.386C1251.64 111.163 1249.11 109.093 1247.34 106.436C1245.56 103.78 1244.62 100.657 1244.62 97.4617C1244.62 93.1774 1246.32 89.0686 1249.35 86.0392C1252.38 83.0098 1256.48 81.3079 1260.77 81.3079ZM1260.77 75.9233C1256.51 75.9233 1252.35 77.1865 1248.8 79.5532C1245.26 81.9198 1242.5 85.2837 1240.87 89.2193C1239.24 93.1549 1238.81 97.4856 1239.64 101.664C1240.48 105.842 1242.53 109.679 1245.54 112.692C1248.55 115.704 1252.39 117.755 1256.57 118.586C1260.75 119.417 1265.08 118.991 1269.01 117.361C1272.95 115.73 1276.31 112.97 1278.68 109.428C1281.04 105.886 1282.31 101.722 1282.31 97.4617C1282.31 91.7493 1280.04 86.271 1276 82.2317C1271.96 78.1925 1266.48 75.9233 1260.77 75.9233Z" fill="white"/>
<path d="M1274.23 49H1220.38C1218.96 49 1217.59 49.5673 1216.58 50.5771C1215.57 51.5869 1215 52.9565 1215 54.3846V108.231C1215 109.659 1215.57 111.028 1216.58 112.038C1217.59 113.048 1218.96 113.615 1220.38 113.615H1231.15V108.231H1220.38V70.5384H1279.62V54.3846C1279.62 52.9565 1279.05 51.5869 1278.04 50.5771C1277.03 49.5673 1275.66 49 1274.23 49ZM1220.38 65.1538V54.3846H1274.23V65.1538H1220.38Z" fill="white"/>
<path d="M1255.38 89.3849V105.539L1268.85 97.4618L1255.38 89.3849Z" fill="white"/>
</svg>
