<svg width="1363" height="167" viewBox="0 0 1363 167" fill="none" xmlns="http://www.w3.org/2000/svg">
<rect width="1363" height="167" rx="15" fill="#F0F0F0"/>
<path d="M0 15C0 6.71573 6.71573 0 15 0H37V167H15C6.71573 167 0 160.284 0 152V15Z" fill="#424241"/>
<path d="M100.906 50.9219L93.3945 48.2383V45.0859L103.602 49.375V51.6367L100.906 50.9219ZM93.3945 53.1719L100.918 50.4297L103.602 49.7852V52.0352L93.3945 56.3242V53.1719ZM115.309 54.7188L117.945 45.3203H120.09L119.398 49.0117L116.762 58H114.969L115.309 54.7188ZM113.973 45.3203L115.859 54.707L116.035 58H113.926L110.715 45.3203H113.973ZM122.504 54.5547L124.344 45.3203H127.613L124.402 58H122.305L122.504 54.5547ZM120.383 45.3203L123.008 54.6484L123.371 58H121.566L118.93 49.0234L118.262 45.3203H120.383ZM136.156 55.1406V49.4922C136.156 49.0859 136.09 48.7383 135.957 48.4492C135.824 48.1523 135.617 47.9219 135.336 47.7578C135.062 47.5938 134.707 47.5117 134.27 47.5117C133.895 47.5117 133.57 47.5781 133.297 47.7109C133.023 47.8359 132.812 48.0195 132.664 48.2617C132.516 48.4961 132.441 48.7734 132.441 49.0938H129.066C129.066 48.5547 129.191 48.043 129.441 47.5586C129.691 47.0742 130.055 46.6484 130.531 46.2812C131.008 45.9062 131.574 45.6133 132.23 45.4023C132.895 45.1914 133.637 45.0859 134.457 45.0859C135.441 45.0859 136.316 45.25 137.082 45.5781C137.848 45.9062 138.449 46.3984 138.887 47.0547C139.332 47.7109 139.555 48.5312 139.555 49.5156V54.9414C139.555 55.6367 139.598 56.207 139.684 56.6523C139.77 57.0898 139.895 57.4727 140.059 57.8008V58H136.648C136.484 57.6562 136.359 57.2266 136.273 56.7109C136.195 56.1875 136.156 55.6641 136.156 55.1406ZM136.602 50.2773L136.625 52.1875H134.738C134.293 52.1875 133.906 52.2383 133.578 52.3398C133.25 52.4414 132.98 52.5859 132.77 52.7734C132.559 52.9531 132.402 53.1641 132.301 53.4062C132.207 53.6484 132.16 53.9141 132.16 54.2031C132.16 54.4922 132.227 54.7539 132.359 54.9883C132.492 55.2148 132.684 55.3945 132.934 55.5273C133.184 55.6523 133.477 55.7148 133.812 55.7148C134.32 55.7148 134.762 55.6133 135.137 55.4102C135.512 55.207 135.801 54.957 136.004 54.6602C136.215 54.3633 136.324 54.082 136.332 53.8164L137.223 55.2461C137.098 55.5664 136.926 55.8984 136.707 56.2422C136.496 56.5859 136.227 56.9102 135.898 57.2148C135.57 57.5117 135.176 57.7578 134.715 57.9531C134.254 58.1406 133.707 58.2344 133.074 58.2344C132.27 58.2344 131.539 58.0742 130.883 57.7539C130.234 57.4258 129.719 56.9766 129.336 56.4062C128.961 55.8281 128.773 55.1719 128.773 54.4375C128.773 53.7734 128.898 53.1836 129.148 52.668C129.398 52.1523 129.766 51.7188 130.25 51.3672C130.742 51.0078 131.355 50.7383 132.09 50.5586C132.824 50.3711 133.676 50.2773 134.645 50.2773H136.602ZM151.637 55.4688L156.254 59.125L154.039 61.0469L149.492 57.3906L151.637 55.4688ZM156.371 49.0703V49.8789C156.371 51.1758 156.195 52.3398 155.844 53.3711C155.5 54.4023 155.004 55.2812 154.355 56.0078C153.707 56.7266 152.941 57.2773 152.059 57.6602C151.176 58.043 150.195 58.2344 149.117 58.2344C148.047 58.2344 147.066 58.043 146.176 57.6602C145.285 57.2773 144.516 56.7266 143.867 56.0078C143.219 55.2812 142.715 54.4023 142.355 53.3711C142.004 52.3398 141.828 51.1758 141.828 49.8789V49.0703C141.828 47.7656 142.004 46.6016 142.355 45.5781C142.715 44.5469 143.215 43.668 143.855 42.9414C144.496 42.2148 145.262 41.6602 146.152 41.2773C147.043 40.8945 148.023 40.7031 149.094 40.7031C150.172 40.7031 151.152 40.8945 152.035 41.2773C152.926 41.6602 153.695 42.2148 154.344 42.9414C154.992 43.668 155.492 44.5469 155.844 45.5781C156.195 46.6016 156.371 47.7656 156.371 49.0703ZM152.82 49.8789V49.0469C152.82 48.1406 152.734 47.3438 152.562 46.6562C152.398 45.9688 152.156 45.3906 151.836 44.9219C151.523 44.4531 151.137 44.1016 150.676 43.8672C150.215 43.625 149.688 43.5039 149.094 43.5039C148.5 43.5039 147.973 43.625 147.512 43.8672C147.051 44.1016 146.664 44.4531 146.352 44.9219C146.039 45.3906 145.801 45.9688 145.637 46.6562C145.473 47.3438 145.391 48.1406 145.391 49.0469V49.8789C145.391 50.7773 145.473 51.5742 145.637 52.2695C145.801 52.957 146.039 53.5391 146.352 54.0156C146.672 54.4844 147.062 54.8398 147.523 55.082C147.992 55.3242 148.523 55.4453 149.117 55.4453C149.711 55.4453 150.234 55.3242 150.688 55.082C151.148 54.8398 151.535 54.4844 151.848 54.0156C152.168 53.5391 152.41 52.957 152.574 52.2695C152.738 51.5742 152.82 50.7773 152.82 49.8789ZM158.164 51.7891V51.543C158.164 50.6133 158.297 49.7578 158.562 48.9766C158.828 48.1875 159.215 47.5039 159.723 46.9258C160.23 46.3477 160.855 45.8984 161.598 45.5781C162.34 45.25 163.191 45.0859 164.152 45.0859C165.113 45.0859 165.969 45.25 166.719 45.5781C167.469 45.8984 168.098 46.3477 168.605 46.9258C169.121 47.5039 169.512 48.1875 169.777 48.9766C170.043 49.7578 170.176 50.6133 170.176 51.543V51.7891C170.176 52.7109 170.043 53.5664 169.777 54.3555C169.512 55.1367 169.121 55.8203 168.605 56.4062C168.098 56.9844 167.473 57.4336 166.73 57.7539C165.988 58.0742 165.137 58.2344 164.176 58.2344C163.215 58.2344 162.359 58.0742 161.609 57.7539C160.867 57.4336 160.238 56.9844 159.723 56.4062C159.215 55.8203 158.828 55.1367 158.562 54.3555C158.297 53.5664 158.164 52.7109 158.164 51.7891ZM161.539 51.543V51.7891C161.539 52.3203 161.586 52.8164 161.68 53.2773C161.773 53.7383 161.922 54.1445 162.125 54.4961C162.336 54.8398 162.609 55.1094 162.945 55.3047C163.281 55.5 163.691 55.5977 164.176 55.5977C164.645 55.5977 165.047 55.5 165.383 55.3047C165.719 55.1094 165.988 54.8398 166.191 54.4961C166.395 54.1445 166.543 53.7383 166.637 53.2773C166.738 52.8164 166.789 52.3203 166.789 51.7891V51.543C166.789 51.0273 166.738 50.543 166.637 50.0898C166.543 49.6289 166.391 49.2227 166.18 48.8711C165.977 48.5117 165.707 48.2305 165.371 48.0273C165.035 47.8242 164.629 47.7227 164.152 47.7227C163.676 47.7227 163.27 47.8242 162.934 48.0273C162.605 48.2305 162.336 48.5117 162.125 48.8711C161.922 49.2227 161.773 49.6289 161.68 50.0898C161.586 50.543 161.539 51.0273 161.539 51.543ZM179.75 54.9648V45.3203H183.125V58H179.949L179.75 54.9648ZM180.125 52.3633L181.121 52.3398C181.121 53.1836 181.023 53.9688 180.828 54.6953C180.633 55.4141 180.34 56.0391 179.949 56.5703C179.559 57.0938 179.066 57.5039 178.473 57.8008C177.879 58.0898 177.18 58.2344 176.375 58.2344C175.758 58.2344 175.188 58.1484 174.664 57.9766C174.148 57.7969 173.703 57.5195 173.328 57.1445C172.961 56.7617 172.672 56.2734 172.461 55.6797C172.258 55.0781 172.156 54.3555 172.156 53.5117V45.3203H175.531V53.5352C175.531 53.9102 175.574 54.2266 175.66 54.4844C175.754 54.7422 175.883 54.9531 176.047 55.1172C176.211 55.2812 176.402 55.3984 176.621 55.4688C176.848 55.5391 177.098 55.5742 177.371 55.5742C178.066 55.5742 178.613 55.4336 179.012 55.1523C179.418 54.8711 179.703 54.4883 179.867 54.0039C180.039 53.5117 180.125 52.9648 180.125 52.3633ZM193.191 55.2344V40H196.59V58H193.531L193.191 55.2344ZM185.176 51.8125V51.5664C185.176 50.5977 185.285 49.7188 185.504 48.9297C185.723 48.1328 186.043 47.4492 186.465 46.8789C186.887 46.3086 187.406 45.8672 188.023 45.5547C188.641 45.2422 189.344 45.0859 190.133 45.0859C190.875 45.0859 191.523 45.2422 192.078 45.5547C192.641 45.8672 193.117 46.3125 193.508 46.8906C193.906 47.4609 194.227 48.1367 194.469 48.918C194.711 49.6914 194.887 50.5391 194.996 51.4609V52C194.887 52.8828 194.711 53.7031 194.469 54.4609C194.227 55.2188 193.906 55.8828 193.508 56.4531C193.117 57.0156 192.641 57.4531 192.078 57.7656C191.516 58.0781 190.859 58.2344 190.109 58.2344C189.32 58.2344 188.617 58.0742 188 57.7539C187.391 57.4336 186.875 56.9844 186.453 56.4062C186.039 55.8281 185.723 55.1484 185.504 54.3672C185.285 53.5859 185.176 52.7344 185.176 51.8125ZM188.551 51.5664V51.8125C188.551 52.3359 188.59 52.8242 188.668 53.2773C188.754 53.7305 188.891 54.1328 189.078 54.4844C189.273 54.8281 189.523 55.0977 189.828 55.293C190.141 55.4805 190.52 55.5742 190.965 55.5742C191.543 55.5742 192.02 55.4453 192.395 55.1875C192.77 54.9219 193.055 54.5586 193.25 54.0977C193.453 53.6367 193.57 53.1055 193.602 52.5039V50.9688C193.578 50.4766 193.508 50.0352 193.391 49.6445C193.281 49.2461 193.117 48.9062 192.898 48.625C192.688 48.3438 192.422 48.125 192.102 47.9688C191.789 47.8125 191.418 47.7344 190.988 47.7344C190.551 47.7344 190.176 47.8359 189.863 48.0391C189.551 48.2344 189.297 48.5039 189.102 48.8477C188.914 49.1914 188.773 49.5977 188.68 50.0664C188.594 50.5273 188.551 51.0273 188.551 51.5664Z" fill="#888888"/>
<path d="M109.93 86.0078V118H102.217V86.0078H109.93ZM119.554 86.0078V91.9624H92.813V86.0078H119.554ZM132.012 118.439C130.079 118.439 128.35 118.139 126.827 117.539C125.303 116.923 124.014 116.081 122.959 115.012C121.919 113.942 121.121 112.712 120.564 111.32C120.022 109.929 119.751 108.457 119.751 106.904V106.069C119.751 104.326 119.993 102.714 120.477 101.235C120.96 99.7407 121.678 98.437 122.63 97.3237C123.582 96.2104 124.776 95.3462 126.211 94.731C127.647 94.1011 129.317 93.7861 131.221 93.7861C132.906 93.7861 134.415 94.0571 135.748 94.5991C137.081 95.1411 138.208 95.9175 139.131 96.9282C140.069 97.939 140.779 99.1621 141.263 100.598C141.761 102.033 142.01 103.645 142.01 105.432V108.442H122.586V103.806H134.781V103.234C134.795 102.443 134.656 101.77 134.363 101.213C134.085 100.656 133.675 100.231 133.133 99.9385C132.591 99.6455 131.932 99.499 131.155 99.499C130.35 99.499 129.683 99.6748 129.156 100.026C128.643 100.378 128.24 100.861 127.947 101.477C127.669 102.077 127.471 102.773 127.354 103.564C127.237 104.355 127.178 105.19 127.178 106.069V106.904C127.178 107.783 127.295 108.581 127.53 109.299C127.779 110.017 128.13 110.632 128.584 111.145C129.053 111.643 129.61 112.031 130.254 112.309C130.914 112.587 131.661 112.727 132.496 112.727C133.506 112.727 134.502 112.536 135.484 112.155C136.465 111.774 137.308 111.145 138.011 110.266L141.373 114.265C140.889 114.953 140.201 115.62 139.307 116.264C138.428 116.909 137.374 117.436 136.143 117.846C134.913 118.242 133.536 118.439 132.012 118.439ZM155.062 112.727C155.75 112.727 156.336 112.602 156.819 112.353C157.317 112.089 157.691 111.723 157.94 111.254C158.204 110.771 158.328 110.192 158.313 109.519H165.279C165.293 111.306 164.854 112.873 163.96 114.221C163.082 115.554 161.88 116.594 160.357 117.341C158.848 118.073 157.142 118.439 155.237 118.439C153.377 118.439 151.751 118.139 150.359 117.539C148.968 116.923 147.803 116.074 146.866 114.99C145.943 113.891 145.247 112.609 144.778 111.145C144.324 109.68 144.097 108.09 144.097 106.376V105.871C144.097 104.157 144.324 102.568 144.778 101.103C145.247 99.6235 145.943 98.3418 146.866 97.2578C147.803 96.1592 148.96 95.3096 150.337 94.709C151.729 94.0938 153.348 93.7861 155.193 93.7861C157.171 93.7861 158.914 94.1597 160.423 94.9067C161.946 95.6538 163.14 96.7378 164.004 98.1587C164.869 99.5796 165.293 101.301 165.279 103.322H158.313C158.328 102.604 158.218 101.96 157.984 101.389C157.75 100.817 157.383 100.363 156.885 100.026C156.402 99.6748 155.779 99.499 155.018 99.499C154.256 99.499 153.641 99.6675 153.172 100.004C152.703 100.341 152.344 100.81 152.095 101.411C151.861 101.997 151.7 102.67 151.612 103.432C151.539 104.194 151.502 105.007 151.502 105.871V106.376C151.502 107.255 151.539 108.083 151.612 108.859C151.7 109.621 151.868 110.295 152.117 110.881C152.366 111.452 152.725 111.906 153.194 112.243C153.663 112.565 154.285 112.727 155.062 112.727ZM175.694 84.25V118H168.289V84.25H175.694ZM174.815 105.3L173.079 105.344C173.079 103.674 173.284 102.136 173.694 100.729C174.104 99.3232 174.69 98.1001 175.452 97.0601C176.214 96.02 177.129 95.2144 178.199 94.6431C179.268 94.0718 180.455 93.7861 181.758 93.7861C182.93 93.7861 184 93.9546 184.966 94.2915C185.948 94.6284 186.79 95.1704 187.493 95.9175C188.211 96.6646 188.76 97.6387 189.141 98.8398C189.537 100.041 189.734 101.506 189.734 103.234V118H182.286V103.19C182.286 102.224 182.146 101.477 181.868 100.949C181.604 100.407 181.224 100.034 180.726 99.8286C180.228 99.6089 179.62 99.499 178.902 99.499C178.038 99.499 177.334 99.6455 176.792 99.9385C176.25 100.231 175.833 100.642 175.54 101.169C175.262 101.682 175.071 102.29 174.969 102.993C174.866 103.696 174.815 104.465 174.815 105.3ZM221.88 109.497C221.88 108.999 221.807 108.552 221.661 108.156C221.514 107.746 221.243 107.365 220.848 107.014C220.452 106.662 219.881 106.311 219.134 105.959C218.401 105.593 217.435 105.212 216.233 104.816C214.827 104.348 213.472 103.82 212.168 103.234C210.865 102.634 209.7 101.938 208.675 101.147C207.649 100.341 206.836 99.4038 206.236 98.3345C205.635 97.2505 205.335 95.9907 205.335 94.5552C205.335 93.1782 205.643 91.9404 206.258 90.8418C206.873 89.7285 207.73 88.7837 208.829 88.0073C209.942 87.2163 211.246 86.6157 212.74 86.2056C214.234 85.7808 215.867 85.5684 217.64 85.5684C219.983 85.5684 222.049 85.9785 223.836 86.7988C225.638 87.6045 227.044 88.7544 228.055 90.2485C229.08 91.728 229.593 93.4785 229.593 95.5H221.924C221.924 94.6943 221.756 93.9839 221.419 93.3687C221.097 92.7534 220.606 92.27 219.947 91.9185C219.288 91.5669 218.46 91.3911 217.464 91.3911C216.497 91.3911 215.684 91.5376 215.025 91.8306C214.366 92.1235 213.868 92.519 213.531 93.0171C213.194 93.5005 213.025 94.0352 213.025 94.6211C213.025 95.1045 213.157 95.5439 213.421 95.9395C213.699 96.3203 214.087 96.6792 214.585 97.0161C215.098 97.353 215.713 97.6753 216.431 97.9829C217.164 98.2905 217.984 98.5908 218.892 98.8838C220.591 99.4258 222.1 100.034 223.418 100.708C224.751 101.367 225.872 102.121 226.78 102.971C227.703 103.806 228.399 104.758 228.868 105.827C229.351 106.896 229.593 108.105 229.593 109.453C229.593 110.888 229.314 112.163 228.758 113.276C228.201 114.389 227.403 115.334 226.363 116.11C225.323 116.872 224.078 117.451 222.627 117.846C221.177 118.242 219.559 118.439 217.771 118.439C216.131 118.439 214.512 118.234 212.916 117.824C211.333 117.399 209.898 116.755 208.609 115.891C207.32 115.012 206.287 113.891 205.511 112.529C204.749 111.152 204.368 109.519 204.368 107.629H212.103C212.103 108.566 212.227 109.357 212.476 110.002C212.725 110.646 213.091 111.167 213.575 111.562C214.058 111.943 214.651 112.221 215.354 112.397C216.058 112.558 216.863 112.639 217.771 112.639C218.753 112.639 219.544 112.5 220.145 112.221C220.745 111.928 221.185 111.547 221.463 111.079C221.741 110.595 221.88 110.068 221.88 109.497ZM245.743 94.2256V99.3672H231.417V94.2256H245.743ZM234.427 88.3149H241.832V110.244C241.832 110.874 241.905 111.364 242.051 111.716C242.198 112.053 242.447 112.294 242.798 112.441C243.165 112.573 243.648 112.639 244.249 112.639C244.673 112.639 245.025 112.631 245.303 112.617C245.582 112.587 245.845 112.551 246.094 112.507V117.802C245.464 118.007 244.805 118.161 244.117 118.264C243.428 118.381 242.696 118.439 241.919 118.439C240.337 118.439 238.982 118.19 237.854 117.692C236.741 117.194 235.892 116.411 235.306 115.341C234.72 114.272 234.427 112.88 234.427 111.167V88.3149ZM261.036 112.023V102.224C261.036 101.55 260.94 100.971 260.75 100.488C260.56 100.004 260.259 99.6309 259.849 99.3672C259.439 99.0889 258.89 98.9497 258.201 98.9497C257.645 98.9497 257.168 99.0449 256.773 99.2354C256.377 99.4258 256.077 99.7114 255.872 100.092C255.667 100.473 255.564 100.957 255.564 101.542H248.16C248.16 100.444 248.401 99.4258 248.885 98.4883C249.383 97.5361 250.086 96.7085 250.994 96.0054C251.917 95.3022 253.016 94.7603 254.29 94.3794C255.579 93.9839 257.015 93.7861 258.597 93.7861C260.486 93.7861 262.171 94.1011 263.65 94.731C265.145 95.3608 266.324 96.3057 267.188 97.5654C268.052 98.8105 268.484 100.378 268.484 102.268V112.001C268.484 113.554 268.572 114.733 268.748 115.539C268.924 116.33 269.173 117.026 269.495 117.626V118H262.068C261.717 117.268 261.453 116.374 261.277 115.319C261.116 114.25 261.036 113.151 261.036 112.023ZM261.937 103.476L261.98 107.431H258.707C258.018 107.431 257.432 107.526 256.949 107.717C256.48 107.907 256.099 108.171 255.806 108.508C255.528 108.83 255.323 109.196 255.191 109.606C255.074 110.017 255.015 110.449 255.015 110.903C255.015 111.342 255.118 111.738 255.323 112.089C255.542 112.426 255.835 112.69 256.202 112.88C256.568 113.071 256.978 113.166 257.432 113.166C258.252 113.166 258.948 113.012 259.52 112.705C260.105 112.382 260.552 111.994 260.86 111.54C261.167 111.086 261.321 110.661 261.321 110.266L262.947 113.298C262.654 113.884 262.317 114.477 261.937 115.078C261.57 115.678 261.109 116.235 260.552 116.748C260.01 117.246 259.344 117.656 258.553 117.978C257.762 118.286 256.802 118.439 255.674 118.439C254.209 118.439 252.862 118.139 251.631 117.539C250.416 116.938 249.441 116.103 248.709 115.034C247.977 113.95 247.61 112.705 247.61 111.298C247.61 110.068 247.83 108.969 248.27 108.002C248.724 107.036 249.405 106.215 250.313 105.542C251.221 104.868 252.378 104.355 253.785 104.003C255.191 103.652 256.846 103.476 258.75 103.476H261.937ZM282.635 112.727C283.323 112.727 283.909 112.602 284.393 112.353C284.891 112.089 285.264 111.723 285.513 111.254C285.777 110.771 285.901 110.192 285.887 109.519H292.852C292.867 111.306 292.427 112.873 291.534 114.221C290.655 115.554 289.454 116.594 287.93 117.341C286.421 118.073 284.715 118.439 282.811 118.439C280.95 118.439 279.324 118.139 277.933 117.539C276.541 116.923 275.376 116.074 274.439 114.99C273.516 113.891 272.82 112.609 272.352 111.145C271.897 109.68 271.67 108.09 271.67 106.376V105.871C271.67 104.157 271.897 102.568 272.352 101.103C272.82 99.6235 273.516 98.3418 274.439 97.2578C275.376 96.1592 276.534 95.3096 277.911 94.709C279.302 94.0938 280.921 93.7861 282.767 93.7861C284.744 93.7861 286.487 94.1597 287.996 94.9067C289.52 95.6538 290.713 96.7378 291.578 98.1587C292.442 99.5796 292.867 101.301 292.852 103.322H285.887C285.901 102.604 285.792 101.96 285.557 101.389C285.323 100.817 284.957 100.363 284.458 100.026C283.975 99.6748 283.353 99.499 282.591 99.499C281.829 99.499 281.214 99.6675 280.745 100.004C280.276 100.341 279.917 100.81 279.668 101.411C279.434 101.997 279.273 102.67 279.185 103.432C279.112 104.194 279.075 105.007 279.075 105.871V106.376C279.075 107.255 279.112 108.083 279.185 108.859C279.273 109.621 279.441 110.295 279.69 110.881C279.939 111.452 280.298 111.906 280.767 112.243C281.236 112.565 281.858 112.727 282.635 112.727ZM303.487 84.228V118H296.082V84.228H303.487ZM318.692 94.2256L308.365 106.333L302.959 111.738L299.729 107.036L304.234 101.169L309.815 94.2256H318.692ZM310.76 118L304.41 107.167L309.881 103.278L319.241 118H310.76Z" fill="#424241"/>
<path d="M1363 15C1363 6.71573 1356.28 0 1348 0H1134V167H1348C1356.28 167 1363 160.284 1363 152V15Z" fill="#0F5F53"/>
<path fill-rule="evenodd" clip-rule="evenodd" d="M1218.5 55C1218.37 55 1218.24 55.0527 1218.15 55.1464C1218.05 55.2402 1218 55.3674 1218 55.5V111.5C1218 111.633 1218.05 111.76 1218.15 111.854C1218.24 111.947 1218.37 112 1218.5 112H1278C1278.13 112 1278.26 111.947 1278.35 111.854C1278.45 111.76 1278.5 111.633 1278.5 111.5V66C1278.5 65.8674 1278.45 65.7402 1278.35 65.6464C1278.26 65.5527 1278.13 65.5 1278 65.5H1248.25C1247.36 65.5 1246.52 65.1045 1245.95 64.4206L1238.09 55H1218.5ZM1213.9 50.9038C1215.12 49.6848 1216.78 49 1218.5 49H1239.5C1240.39 49 1241.23 49.3955 1241.8 50.0794L1249.66 59.5H1278C1279.72 59.5 1281.38 60.1848 1282.6 61.4038C1283.82 62.6228 1284.5 64.2761 1284.5 66V111.5C1284.5 113.224 1283.82 114.877 1282.6 116.096C1281.38 117.315 1279.72 118 1278 118H1218.5C1216.78 118 1215.12 117.315 1213.9 116.096C1212.68 114.877 1212 113.224 1212 111.5V55.5C1212 53.7761 1212.68 52.1228 1213.9 50.9038Z" fill="#F0F0F0"/>
<path fill-rule="evenodd" clip-rule="evenodd" d="M1243.72 77.5251C1245.09 78.892 1245.09 81.108 1243.72 82.4749L1237.45 88.75L1243.72 95.0251C1245.09 96.392 1245.09 98.608 1243.72 99.9749C1242.36 101.342 1240.14 101.342 1238.78 99.9749L1230.03 91.2249C1228.66 89.858 1228.66 87.642 1230.03 86.2751L1238.78 77.5251C1240.14 76.1583 1242.36 76.1583 1243.72 77.5251Z" fill="#F0F0F0"/>
<path fill-rule="evenodd" clip-rule="evenodd" d="M1252.03 99.9749C1250.66 98.608 1250.66 96.392 1252.03 95.0251L1258.3 88.75L1252.03 82.4749C1250.66 81.108 1250.66 78.892 1252.03 77.5251C1253.39 76.1583 1255.61 76.1583 1256.97 77.5251L1265.72 86.2751C1267.09 87.642 1267.09 89.858 1265.72 91.2249L1256.97 99.9749C1255.61 101.342 1253.39 101.342 1252.03 99.9749Z" fill="#F0F0F0"/>
</svg>
