<svg width="1363" height="301" viewBox="0 0 1363 301" fill="none" xmlns="http://www.w3.org/2000/svg">
<rect width="1363" height="301" rx="15" fill="#F0F0F0"/>
<path d="M0 15C0 6.71573 6.71573 0 15 0H37V301H15C6.71573 301 0 294.284 0 286V15Z" fill="#0F5F53"/>
<path d="M117.083 135.353L122.454 114.942H128.121L126.106 125.174L120.789 144H116.25L117.083 135.353ZM114.961 114.942L118.292 135.191L118.667 144H113.162L106.287 114.942H114.961ZM132.901 134.762L136.258 114.942H144.932L138.111 144H132.605L132.901 134.762ZM128.765 114.942L134.19 135.299L135.022 144H130.43L125.22 125.228L123.287 114.942H128.765ZM163.301 136.695V124.718C163.301 123.894 163.185 123.187 162.952 122.596C162.719 122.005 162.352 121.549 161.851 121.227C161.35 120.886 160.678 120.716 159.837 120.716C159.157 120.716 158.575 120.833 158.091 121.065C157.608 121.298 157.241 121.647 156.99 122.113C156.74 122.578 156.614 123.169 156.614 123.885H147.564C147.564 122.542 147.859 121.298 148.45 120.152C149.059 118.989 149.918 117.977 151.028 117.118C152.156 116.258 153.499 115.596 155.057 115.13C156.632 114.647 158.387 114.405 160.32 114.405C162.63 114.405 164.689 114.79 166.497 115.56C168.323 116.33 169.764 117.485 170.821 119.024C171.877 120.546 172.405 122.462 172.405 124.771V136.668C172.405 138.566 172.513 140.007 172.728 140.992C172.942 141.959 173.247 142.809 173.641 143.543V144H164.563C164.134 143.105 163.812 142.013 163.597 140.724C163.4 139.417 163.301 138.074 163.301 136.695ZM164.402 126.249L164.456 131.083H160.455C159.613 131.083 158.897 131.199 158.306 131.432C157.733 131.664 157.268 131.987 156.91 132.398C156.569 132.792 156.319 133.24 156.158 133.741C156.014 134.243 155.943 134.771 155.943 135.326C155.943 135.863 156.068 136.346 156.319 136.776C156.587 137.188 156.945 137.51 157.393 137.743C157.841 137.975 158.342 138.092 158.897 138.092C159.9 138.092 160.75 137.904 161.448 137.528C162.164 137.134 162.71 136.66 163.086 136.104C163.462 135.549 163.65 135.03 163.65 134.547L165.638 138.253C165.28 138.969 164.868 139.694 164.402 140.428C163.955 141.162 163.391 141.843 162.71 142.469C162.048 143.078 161.233 143.579 160.267 143.973C159.3 144.349 158.127 144.537 156.749 144.537C154.958 144.537 153.311 144.17 151.807 143.436C150.321 142.702 149.131 141.681 148.235 140.375C147.34 139.05 146.893 137.528 146.893 135.809C146.893 134.305 147.161 132.962 147.698 131.781C148.253 130.599 149.086 129.597 150.196 128.773C151.306 127.949 152.72 127.323 154.439 126.893C156.158 126.463 158.181 126.249 160.508 126.249H164.402ZM199.664 137.555L210.567 146.202L204.712 151.144L193.997 142.496L199.664 137.555ZM211.023 123.67V125.255C211.023 128.245 210.603 130.93 209.761 133.312C208.938 135.675 207.756 137.698 206.216 139.381C204.694 141.046 202.895 142.326 200.818 143.221C198.742 144.098 196.45 144.537 193.943 144.537C191.419 144.537 189.109 144.098 187.015 143.221C184.938 142.326 183.13 141.046 181.59 139.381C180.068 137.698 178.886 135.675 178.045 133.312C177.221 130.93 176.81 128.245 176.81 125.255V123.67C176.81 120.681 177.221 117.995 178.045 115.614C178.886 113.233 180.059 111.209 181.563 109.544C183.085 107.861 184.884 106.581 186.961 105.704C189.056 104.809 191.365 104.361 193.89 104.361C196.396 104.361 198.688 104.809 200.765 105.704C202.859 106.581 204.668 107.861 206.189 109.544C207.729 111.209 208.92 113.233 209.761 115.614C210.603 117.995 211.023 120.681 211.023 123.67ZM201.436 125.255V123.617C201.436 121.683 201.266 119.982 200.926 118.514C200.604 117.028 200.12 115.784 199.476 114.781C198.831 113.779 198.034 113.027 197.085 112.525C196.154 112.006 195.089 111.747 193.89 111.747C192.636 111.747 191.544 112.006 190.613 112.525C189.682 113.027 188.903 113.779 188.277 114.781C187.65 115.784 187.176 117.028 186.854 118.514C186.549 119.982 186.397 121.683 186.397 123.617V125.255C186.397 127.171 186.549 128.871 186.854 130.357C187.176 131.826 187.65 133.07 188.277 134.09C188.921 135.111 189.709 135.881 190.64 136.4C191.589 136.919 192.69 137.179 193.943 137.179C195.143 137.179 196.208 136.919 197.139 136.4C198.07 135.881 198.849 135.111 199.476 134.09C200.12 133.07 200.604 131.826 200.926 130.357C201.266 128.871 201.436 127.171 201.436 125.255ZM214.273 129.767V129.203C214.273 127.072 214.577 125.112 215.186 123.321C215.795 121.513 216.69 119.946 217.872 118.622C219.053 117.297 220.512 116.267 222.249 115.533C223.986 114.781 225.991 114.405 228.265 114.405C230.556 114.405 232.57 114.781 234.307 115.533C236.062 116.267 237.53 117.297 238.711 118.622C239.893 119.946 240.788 121.513 241.397 123.321C242.006 125.112 242.31 127.072 242.31 129.203V129.767C242.31 131.879 242.006 133.84 241.397 135.648C240.788 137.438 239.893 139.005 238.711 140.348C237.53 141.673 236.071 142.702 234.334 143.436C232.597 144.17 230.592 144.537 228.318 144.537C226.045 144.537 224.03 144.17 222.276 143.436C220.521 142.702 219.053 141.673 217.872 140.348C216.69 139.005 215.795 137.438 215.186 135.648C214.577 133.84 214.273 131.879 214.273 129.767ZM223.323 129.203V129.767C223.323 130.859 223.404 131.879 223.565 132.828C223.726 133.777 223.995 134.61 224.371 135.326C224.747 136.024 225.257 136.57 225.901 136.964C226.546 137.358 227.352 137.555 228.318 137.555C229.267 137.555 230.055 137.358 230.682 136.964C231.326 136.57 231.836 136.024 232.212 135.326C232.588 134.61 232.857 133.777 233.018 132.828C233.179 131.879 233.26 130.859 233.26 129.767V129.203C233.26 128.146 233.179 127.153 233.018 126.222C232.857 125.273 232.588 124.44 232.212 123.724C231.836 122.99 231.326 122.417 230.682 122.005C230.037 121.594 229.231 121.388 228.265 121.388C227.316 121.388 226.519 121.594 225.875 122.005C225.248 122.417 224.747 122.99 224.371 123.724C223.995 124.44 223.726 125.273 223.565 126.222C223.404 127.153 223.323 128.146 223.323 129.203ZM263.311 136.937V114.942H272.388V144H263.902L263.311 136.937ZM264.17 131.029L266.534 130.975C266.534 132.927 266.301 134.735 265.835 136.4C265.37 138.047 264.681 139.479 263.768 140.697C262.872 141.914 261.762 142.863 260.438 143.543C259.131 144.206 257.618 144.537 255.899 144.537C254.467 144.537 253.151 144.34 251.951 143.946C250.77 143.535 249.749 142.899 248.89 142.04C248.03 141.162 247.359 140.043 246.875 138.683C246.41 137.304 246.177 135.657 246.177 133.741V114.942H255.228V133.795C255.228 134.439 255.308 134.994 255.469 135.46C255.63 135.925 255.863 136.319 256.167 136.642C256.472 136.946 256.848 137.179 257.295 137.34C257.761 137.483 258.289 137.555 258.88 137.555C260.241 137.555 261.306 137.268 262.076 136.695C262.846 136.122 263.383 135.344 263.687 134.359C264.009 133.374 264.17 132.264 264.17 131.029ZM294.087 137.34V102.75H303.191V144H295.027L294.087 137.34ZM276.255 129.82V129.256C276.255 127.054 276.497 125.049 276.98 123.241C277.464 121.415 278.18 119.848 279.129 118.541C280.078 117.216 281.259 116.196 282.674 115.479C284.088 114.763 285.717 114.405 287.562 114.405C289.209 114.405 290.65 114.79 291.885 115.56C293.121 116.312 294.177 117.368 295.054 118.729C295.931 120.09 296.648 121.683 297.203 123.509C297.758 125.318 298.178 127.269 298.465 129.364V130.035C298.178 132.005 297.758 133.867 297.203 135.621C296.648 137.358 295.931 138.897 295.054 140.24C294.177 141.583 293.112 142.639 291.858 143.409C290.623 144.161 289.173 144.537 287.508 144.537C285.664 144.537 284.035 144.17 282.62 143.436C281.224 142.702 280.051 141.673 279.102 140.348C278.171 139.023 277.464 137.465 276.98 135.675C276.497 133.884 276.255 131.933 276.255 129.82ZM285.306 129.256V129.82C285.306 130.912 285.377 131.924 285.521 132.855C285.664 133.786 285.905 134.61 286.246 135.326C286.604 136.024 287.069 136.57 287.642 136.964C288.233 137.358 288.958 137.555 289.817 137.555C290.981 137.555 291.939 137.277 292.691 136.722C293.461 136.167 294.025 135.379 294.383 134.359C294.759 133.338 294.92 132.139 294.866 130.76V128.639C294.902 127.457 294.821 126.419 294.625 125.523C294.428 124.61 294.114 123.849 293.685 123.241C293.273 122.632 292.745 122.175 292.1 121.871C291.473 121.549 290.73 121.388 289.871 121.388C289.03 121.388 288.313 121.585 287.723 121.979C287.15 122.372 286.684 122.927 286.326 123.644C285.968 124.342 285.708 125.174 285.547 126.141C285.386 127.09 285.306 128.128 285.306 129.256Z" fill="black"/>
<path d="M104.339 59.3726L97.5713 80H92.1196L101.365 55.1172H104.834L104.339 59.3726ZM109.961 80L103.177 59.3726L102.63 55.1172H106.133L115.43 80H109.961ZM109.654 70.7373V74.7534H96.5117V70.7373H109.654ZM122.625 53.75V80H117.686V53.75H122.625ZM131.888 61.5088V80H126.949V61.5088H131.888ZM126.641 56.6895C126.641 55.9717 126.892 55.3792 127.393 54.9121C127.894 54.445 128.567 54.2114 129.41 54.2114C130.241 54.2114 130.908 54.445 131.409 54.9121C131.922 55.3792 132.178 55.9717 132.178 56.6895C132.178 57.4072 131.922 57.9997 131.409 58.4668C130.908 58.9339 130.241 59.1675 129.41 59.1675C128.567 59.1675 127.894 58.9339 127.393 58.4668C126.892 57.9997 126.641 57.4072 126.641 56.6895ZM157.933 73.4888C157.933 73.0444 157.864 72.6457 157.728 72.2925C157.602 71.9279 157.363 71.5975 157.01 71.3013C156.657 70.9937 156.161 70.6917 155.523 70.3955C154.885 70.0993 154.059 69.7917 153.045 69.4727C151.917 69.1081 150.846 68.6979 149.832 68.2422C148.829 67.7865 147.941 67.2567 147.166 66.6528C146.403 66.0376 145.799 65.3255 145.354 64.5166C144.922 63.7077 144.705 62.7677 144.705 61.6968C144.705 60.66 144.933 59.7201 145.389 58.877C145.844 58.0225 146.482 57.2933 147.303 56.6895C148.123 56.0742 149.091 55.6014 150.208 55.271C151.336 54.9406 152.572 54.7754 153.917 54.7754C155.751 54.7754 157.352 55.1058 158.719 55.7666C160.086 56.4274 161.146 57.3332 161.897 58.4839C162.661 59.6346 163.042 60.9505 163.042 62.4316H157.95C157.95 61.7025 157.796 61.0645 157.488 60.5176C157.192 59.9593 156.736 59.5207 156.121 59.2017C155.517 58.8826 154.754 58.7231 153.831 58.7231C152.942 58.7231 152.202 58.8599 151.609 59.1333C151.017 59.3953 150.573 59.7542 150.276 60.21C149.98 60.6543 149.832 61.1556 149.832 61.7139C149.832 62.1354 149.935 62.5171 150.14 62.8589C150.356 63.2007 150.675 63.5197 151.097 63.8159C151.518 64.1121 152.037 64.3913 152.652 64.6533C153.267 64.9154 153.979 65.1717 154.788 65.4224C156.144 65.8325 157.334 66.2939 158.36 66.8066C159.397 67.3193 160.263 67.8947 160.958 68.5327C161.653 69.1707 162.177 69.8942 162.53 70.7031C162.883 71.512 163.06 72.4292 163.06 73.4546C163.06 74.5369 162.849 75.5054 162.427 76.3599C162.006 77.2144 161.396 77.9378 160.599 78.5303C159.801 79.1227 158.85 79.5728 157.745 79.8804C156.639 80.188 155.403 80.3418 154.036 80.3418C152.806 80.3418 151.592 80.1823 150.396 79.8633C149.2 79.5329 148.112 79.0373 147.132 78.3765C146.163 77.7157 145.389 76.8726 144.808 75.8472C144.227 74.8218 143.936 73.6084 143.936 72.207H149.08C149.08 72.9818 149.2 73.6369 149.439 74.1724C149.678 74.7078 150.014 75.1408 150.447 75.4712C150.892 75.8016 151.416 76.0409 152.02 76.189C152.635 76.3371 153.307 76.4111 154.036 76.4111C154.925 76.4111 155.654 76.2858 156.224 76.0352C156.805 75.7845 157.232 75.437 157.505 74.9927C157.79 74.5483 157.933 74.047 157.933 73.4888ZM171.041 53.75V80H166.119V53.75H171.041ZM170.34 70.105H168.99C169.001 68.8175 169.172 67.6326 169.502 66.5503C169.833 65.4565 170.306 64.5109 170.921 63.7134C171.536 62.9045 172.271 62.2778 173.125 61.8335C173.991 61.3892 174.948 61.167 175.997 61.167C176.908 61.167 177.734 61.298 178.475 61.5601C179.227 61.8107 179.87 62.2209 180.406 62.7905C180.953 63.3488 181.374 64.0837 181.67 64.9951C181.967 65.9066 182.115 67.0117 182.115 68.3105V80H177.159V68.2764C177.159 67.4561 177.039 66.8123 176.8 66.3452C176.572 65.8667 176.236 65.5306 175.792 65.3369C175.359 65.1318 174.823 65.0293 174.185 65.0293C173.479 65.0293 172.875 65.1603 172.374 65.4224C171.884 65.6844 171.491 66.049 171.194 66.5161C170.898 66.9718 170.682 67.5073 170.545 68.1226C170.408 68.7378 170.34 69.3986 170.34 70.105ZM194.368 80.3418C192.933 80.3418 191.645 80.1139 190.506 79.6582C189.367 79.1911 188.398 78.5474 187.601 77.7271C186.814 76.9067 186.211 75.9554 185.789 74.873C185.368 73.7793 185.157 72.6172 185.157 71.3867V70.7031C185.157 69.3018 185.356 68.02 185.755 66.8579C186.154 65.6958 186.723 64.6875 187.464 63.833C188.216 62.9785 189.127 62.3234 190.198 61.8677C191.269 61.4006 192.477 61.167 193.821 61.167C195.132 61.167 196.294 61.3835 197.308 61.8164C198.322 62.2493 199.17 62.8646 199.854 63.6621C200.549 64.4596 201.073 65.4167 201.426 66.5332C201.779 67.6383 201.956 68.8688 201.956 70.2246V72.2754H187.259V68.9941H197.12V68.6182C197.12 67.9346 196.994 67.325 196.744 66.7896C196.504 66.2427 196.14 65.8097 195.65 65.4907C195.16 65.1717 194.533 65.0122 193.77 65.0122C193.121 65.0122 192.562 65.1546 192.095 65.4395C191.628 65.7243 191.246 66.123 190.95 66.6357C190.665 67.1484 190.449 67.7523 190.301 68.4473C190.164 69.1309 190.096 69.8828 190.096 70.7031V71.3867C190.096 72.1273 190.198 72.8109 190.403 73.4375C190.62 74.0641 190.922 74.6053 191.309 75.061C191.708 75.5168 192.186 75.87 192.745 76.1206C193.314 76.3713 193.958 76.4966 194.676 76.4966C195.564 76.4966 196.39 76.3257 197.154 75.9839C197.929 75.6307 198.595 75.1009 199.153 74.3945L201.546 76.9922C201.159 77.5505 200.629 78.0859 199.957 78.5986C199.296 79.1113 198.498 79.5329 197.564 79.8633C196.63 80.1823 195.564 80.3418 194.368 80.3418ZM209.561 53.75V80H204.639V53.75H209.561ZM208.86 70.105H207.51C207.522 68.8175 207.693 67.6326 208.023 66.5503C208.353 65.4565 208.826 64.5109 209.441 63.7134C210.057 62.9045 210.792 62.2778 211.646 61.8335C212.512 61.3892 213.469 61.167 214.517 61.167C215.429 61.167 216.255 61.298 216.995 61.5601C217.747 61.8107 218.391 62.2209 218.926 62.7905C219.473 63.3488 219.895 64.0837 220.191 64.9951C220.487 65.9066 220.635 67.0117 220.635 68.3105V80H215.679V68.2764C215.679 67.4561 215.56 66.8123 215.32 66.3452C215.092 65.8667 214.756 65.5306 214.312 65.3369C213.879 65.1318 213.344 65.0293 212.706 65.0293C211.999 65.0293 211.395 65.1603 210.894 65.4224C210.404 65.6844 210.011 66.049 209.715 66.5161C209.419 66.9718 209.202 67.5073 209.065 68.1226C208.929 68.7378 208.86 69.3986 208.86 70.105ZM234.358 75.8301V67.5928C234.358 67.0003 234.262 66.4933 234.068 66.0718C233.874 65.6388 233.572 65.3027 233.162 65.0635C232.763 64.8242 232.245 64.7046 231.607 64.7046C231.06 64.7046 230.587 64.8014 230.188 64.9951C229.79 65.1774 229.482 65.4451 229.266 65.7983C229.049 66.1401 228.941 66.5446 228.941 67.0117H224.019C224.019 66.2256 224.201 65.4793 224.566 64.7729C224.931 64.0666 225.46 63.4456 226.155 62.9102C226.85 62.3633 227.676 61.936 228.633 61.6284C229.602 61.3208 230.684 61.167 231.88 61.167C233.316 61.167 234.592 61.4062 235.708 61.8848C236.825 62.3633 237.702 63.0811 238.34 64.0381C238.99 64.9951 239.314 66.1914 239.314 67.627V75.5396C239.314 76.5535 239.377 77.3853 239.502 78.0347C239.628 78.6727 239.81 79.231 240.049 79.7095V80H235.076C234.837 79.4987 234.655 78.8721 234.529 78.1201C234.415 77.3568 234.358 76.5934 234.358 75.8301ZM235.008 68.7378L235.042 71.5234H232.291C231.641 71.5234 231.077 71.5975 230.599 71.7456C230.12 71.8937 229.727 72.1045 229.419 72.3779C229.112 72.64 228.884 72.9476 228.736 73.3008C228.599 73.654 228.531 74.0413 228.531 74.4629C228.531 74.8844 228.628 75.2661 228.821 75.6079C229.015 75.9383 229.294 76.2004 229.659 76.394C230.023 76.5763 230.451 76.6675 230.94 76.6675C231.681 76.6675 232.325 76.5194 232.872 76.2231C233.418 75.9269 233.84 75.5623 234.136 75.1294C234.444 74.6965 234.603 74.2863 234.615 73.8989L235.914 75.9839C235.731 76.451 235.481 76.9352 235.162 77.4365C234.854 77.9378 234.461 78.4106 233.982 78.855C233.504 79.2879 232.929 79.6468 232.256 79.9316C231.584 80.2051 230.787 80.3418 229.864 80.3418C228.69 80.3418 227.625 80.1082 226.668 79.6411C225.722 79.1626 224.97 78.5075 224.412 77.6758C223.865 76.8327 223.592 75.8757 223.592 74.8047C223.592 73.8363 223.774 72.9761 224.139 72.2241C224.503 71.4722 225.039 70.8398 225.745 70.3271C226.463 69.8031 227.357 69.41 228.428 69.1479C229.499 68.8745 230.741 68.7378 232.154 68.7378H235.008ZM243.108 53.75H248.03V75.7617L247.535 80H243.108V53.75ZM259.737 70.5664V70.9253C259.737 72.3039 259.589 73.5685 259.292 74.7192C259.008 75.87 258.563 76.8669 257.959 77.71C257.356 78.5417 256.604 79.1911 255.704 79.6582C254.815 80.1139 253.767 80.3418 252.559 80.3418C251.431 80.3418 250.451 80.1139 249.62 79.6582C248.799 79.2025 248.11 78.5588 247.552 77.7271C246.993 76.8953 246.543 75.9212 246.202 74.8047C245.86 73.6882 245.604 72.4691 245.433 71.1475V70.3613C245.604 69.0397 245.86 67.8206 246.202 66.7041C246.543 65.5876 246.993 64.6134 247.552 63.7817C248.11 62.95 248.799 62.3063 249.62 61.8506C250.44 61.3949 251.408 61.167 252.525 61.167C253.744 61.167 254.804 61.4006 255.704 61.8677C256.615 62.3234 257.367 62.9728 257.959 63.8159C258.563 64.6476 259.008 65.6388 259.292 66.7896C259.589 67.9289 259.737 69.1878 259.737 70.5664ZM254.815 70.9253V70.5664C254.815 69.8145 254.758 69.1081 254.644 68.4473C254.542 67.7751 254.359 67.1883 254.097 66.687C253.835 66.1743 253.476 65.7699 253.021 65.4736C252.576 65.1774 252.001 65.0293 251.294 65.0293C250.622 65.0293 250.053 65.1432 249.585 65.3711C249.118 65.599 248.731 65.918 248.423 66.3281C248.127 66.7383 247.905 67.2282 247.757 67.7979C247.609 68.3561 247.518 68.9714 247.483 69.6436V71.8823C247.518 72.7824 247.666 73.5799 247.928 74.2749C248.201 74.9585 248.611 75.4997 249.158 75.8984C249.716 76.2858 250.44 76.4795 251.329 76.4795C252.024 76.4795 252.599 76.3428 253.055 76.0693C253.51 75.7959 253.864 75.4085 254.114 74.9072C254.376 74.4059 254.559 73.8192 254.661 73.147C254.764 72.4634 254.815 71.7228 254.815 70.9253Z" fill="#888888"/>
<rect x="92" y="181" width="1179" height="80" rx="13.3333" fill="#CCCCCC"/>
<rect x="107" y="196.333" width="208" height="49.3333" rx="4.66667" fill="#888888" stroke="#888888" stroke-width="4"/>
<path d="M171.823 213.167H177.792C178.958 213.167 179.972 213.34 180.833 213.687C181.694 214.035 182.358 214.549 182.823 215.229C183.295 215.91 183.531 216.75 183.531 217.75C183.531 218.618 183.396 219.344 183.125 219.927C182.854 220.51 182.476 220.993 181.99 221.375C181.51 221.75 180.951 222.059 180.312 222.302L179.115 222.979H174.104L174.083 220.156H177.792C178.257 220.156 178.642 220.073 178.948 219.906C179.253 219.74 179.483 219.503 179.635 219.198C179.795 218.885 179.875 218.514 179.875 218.083C179.875 217.646 179.795 217.271 179.635 216.958C179.476 216.646 179.24 216.406 178.927 216.24C178.622 216.073 178.243 215.99 177.792 215.99H175.479V228.333H171.823V213.167ZM180.125 228.333L176.771 221.625L180.646 221.604L184.042 228.177V228.333H180.125ZM191.031 228.542C190.115 228.542 189.295 228.399 188.573 228.115C187.851 227.823 187.24 227.424 186.74 226.917C186.247 226.41 185.868 225.826 185.604 225.167C185.347 224.507 185.219 223.809 185.219 223.073V222.677C185.219 221.851 185.333 221.087 185.562 220.385C185.792 219.677 186.132 219.059 186.583 218.531C187.035 218.003 187.601 217.594 188.281 217.302C188.962 217.003 189.753 216.854 190.656 216.854C191.455 216.854 192.17 216.983 192.802 217.24C193.434 217.497 193.969 217.865 194.406 218.344C194.851 218.823 195.187 219.403 195.417 220.083C195.653 220.764 195.771 221.528 195.771 222.375V223.802H186.562V221.604H192.344V221.333C192.351 220.958 192.285 220.639 192.146 220.375C192.014 220.111 191.819 219.91 191.562 219.771C191.306 219.632 190.993 219.562 190.625 219.562C190.243 219.562 189.927 219.646 189.677 219.812C189.434 219.979 189.243 220.208 189.104 220.5C188.972 220.785 188.878 221.115 188.823 221.49C188.767 221.865 188.74 222.26 188.74 222.677V223.073C188.74 223.49 188.795 223.868 188.906 224.208C189.024 224.549 189.191 224.84 189.406 225.083C189.628 225.319 189.892 225.503 190.198 225.635C190.51 225.767 190.865 225.833 191.26 225.833C191.74 225.833 192.212 225.743 192.677 225.562C193.142 225.382 193.542 225.083 193.875 224.667L195.469 226.562C195.24 226.889 194.913 227.205 194.49 227.51C194.073 227.816 193.573 228.066 192.99 228.26C192.406 228.448 191.753 228.542 191.031 228.542ZM203.052 225.5V220.854C203.052 220.535 203.007 220.26 202.917 220.031C202.826 219.802 202.684 219.625 202.49 219.5C202.295 219.368 202.035 219.302 201.708 219.302C201.444 219.302 201.219 219.347 201.031 219.437C200.844 219.528 200.701 219.663 200.604 219.844C200.507 220.024 200.458 220.253 200.458 220.531H196.948C196.948 220.01 197.062 219.528 197.292 219.083C197.528 218.632 197.861 218.24 198.292 217.906C198.729 217.573 199.25 217.316 199.854 217.135C200.465 216.948 201.146 216.854 201.896 216.854C202.792 216.854 203.59 217.003 204.292 217.302C205 217.601 205.559 218.049 205.969 218.646C206.378 219.236 206.583 219.979 206.583 220.875V225.49C206.583 226.226 206.625 226.785 206.708 227.167C206.792 227.542 206.91 227.872 207.062 228.156V228.333H203.542C203.375 227.986 203.25 227.562 203.167 227.062C203.09 226.556 203.052 226.035 203.052 225.5ZM203.479 221.448L203.5 223.323H201.948C201.622 223.323 201.344 223.368 201.115 223.458C200.892 223.549 200.712 223.674 200.573 223.833C200.441 223.986 200.344 224.16 200.281 224.354C200.226 224.549 200.198 224.753 200.198 224.969C200.198 225.177 200.247 225.365 200.344 225.531C200.448 225.691 200.587 225.816 200.76 225.906C200.934 225.997 201.128 226.042 201.344 226.042C201.733 226.042 202.062 225.969 202.333 225.823C202.611 225.67 202.823 225.486 202.969 225.271C203.115 225.056 203.187 224.854 203.187 224.667L203.958 226.104C203.819 226.382 203.66 226.663 203.479 226.948C203.306 227.233 203.087 227.497 202.823 227.74C202.566 227.976 202.25 228.17 201.875 228.323C201.5 228.469 201.045 228.542 200.51 228.542C199.816 228.542 199.177 228.399 198.594 228.115C198.017 227.83 197.556 227.434 197.208 226.927C196.861 226.413 196.687 225.823 196.687 225.156C196.687 224.573 196.792 224.052 197 223.594C197.215 223.135 197.538 222.747 197.969 222.427C198.399 222.108 198.948 221.865 199.615 221.698C200.281 221.531 201.066 221.448 201.969 221.448H203.479ZM213.292 225.833C213.618 225.833 213.896 225.774 214.125 225.656C214.361 225.531 214.538 225.358 214.656 225.135C214.781 224.906 214.84 224.632 214.833 224.312H218.135C218.142 225.16 217.934 225.903 217.51 226.542C217.094 227.174 216.524 227.667 215.802 228.021C215.087 228.368 214.278 228.542 213.375 228.542C212.493 228.542 211.722 228.399 211.062 228.115C210.403 227.823 209.851 227.42 209.406 226.906C208.969 226.385 208.639 225.778 208.417 225.083C208.201 224.389 208.094 223.635 208.094 222.823V222.583C208.094 221.771 208.201 221.017 208.417 220.323C208.639 219.622 208.969 219.014 209.406 218.5C209.851 217.979 210.399 217.576 211.052 217.292C211.712 217 212.479 216.854 213.354 216.854C214.292 216.854 215.118 217.031 215.833 217.385C216.556 217.74 217.122 218.253 217.531 218.927C217.941 219.601 218.142 220.417 218.135 221.375H214.833C214.84 221.035 214.788 220.729 214.677 220.458C214.566 220.187 214.392 219.972 214.156 219.812C213.927 219.646 213.632 219.562 213.271 219.562C212.91 219.562 212.618 219.642 212.396 219.802C212.174 219.962 212.003 220.184 211.885 220.469C211.774 220.747 211.698 221.066 211.656 221.427C211.622 221.788 211.604 222.174 211.604 222.583V222.823C211.604 223.24 211.622 223.632 211.656 224C211.698 224.361 211.778 224.681 211.896 224.958C212.014 225.229 212.184 225.444 212.406 225.604C212.628 225.757 212.924 225.833 213.292 225.833ZM225.573 217.062V219.5H218.781V217.062H225.573ZM220.208 214.26H223.719V224.656C223.719 224.955 223.753 225.187 223.823 225.354C223.892 225.514 224.01 225.628 224.177 225.698C224.351 225.76 224.58 225.792 224.865 225.792C225.066 225.792 225.233 225.788 225.365 225.781C225.497 225.767 225.622 225.75 225.74 225.729V228.24C225.441 228.337 225.128 228.41 224.802 228.458C224.476 228.514 224.128 228.542 223.76 228.542C223.01 228.542 222.368 228.424 221.833 228.187C221.306 227.951 220.903 227.58 220.625 227.073C220.347 226.566 220.208 225.906 220.208 225.094V214.26ZM233.167 223.573V213.167H236.812V223.573C236.812 224.587 236.58 225.465 236.115 226.208C235.656 226.951 235.031 227.528 234.24 227.937C233.455 228.34 232.573 228.542 231.594 228.542C230.58 228.542 229.677 228.372 228.885 228.031C228.101 227.691 227.483 227.167 227.031 226.458C226.587 225.75 226.365 224.847 226.365 223.75H230.031C230.031 224.264 230.09 224.667 230.208 224.958C230.326 225.243 230.5 225.444 230.729 225.562C230.965 225.674 231.253 225.729 231.594 225.729C231.927 225.729 232.208 225.646 232.437 225.479C232.674 225.306 232.854 225.059 232.979 224.74C233.104 224.413 233.167 224.024 233.167 223.573ZM246.948 224.302C246.948 224.066 246.913 223.854 246.844 223.667C246.774 223.472 246.646 223.292 246.458 223.125C246.271 222.958 246 222.792 245.646 222.625C245.299 222.451 244.84 222.271 244.271 222.083C243.604 221.861 242.962 221.611 242.344 221.333C241.726 221.049 241.174 220.719 240.687 220.344C240.201 219.962 239.816 219.517 239.531 219.01C239.247 218.497 239.104 217.899 239.104 217.219C239.104 216.566 239.25 215.979 239.542 215.458C239.833 214.931 240.24 214.483 240.76 214.115C241.288 213.74 241.906 213.455 242.615 213.26C243.323 213.059 244.097 212.958 244.937 212.958C246.049 212.958 247.028 213.153 247.875 213.542C248.729 213.924 249.396 214.469 249.875 215.177C250.361 215.878 250.604 216.708 250.604 217.667H246.969C246.969 217.285 246.889 216.948 246.729 216.656C246.576 216.365 246.344 216.135 246.031 215.969C245.719 215.802 245.326 215.719 244.854 215.719C244.396 215.719 244.01 215.788 243.698 215.927C243.385 216.066 243.149 216.253 242.99 216.49C242.83 216.719 242.75 216.972 242.75 217.25C242.75 217.479 242.812 217.687 242.937 217.875C243.069 218.056 243.253 218.226 243.49 218.385C243.733 218.545 244.024 218.698 244.365 218.844C244.712 218.99 245.101 219.132 245.531 219.271C246.337 219.528 247.052 219.816 247.677 220.135C248.309 220.448 248.84 220.806 249.271 221.208C249.708 221.604 250.038 222.056 250.26 222.562C250.49 223.069 250.604 223.642 250.604 224.281C250.604 224.962 250.472 225.566 250.208 226.094C249.944 226.622 249.566 227.069 249.073 227.437C248.58 227.799 247.99 228.073 247.302 228.26C246.615 228.448 245.847 228.542 245 228.542C244.222 228.542 243.455 228.444 242.698 228.25C241.948 228.049 241.267 227.743 240.656 227.333C240.045 226.917 239.556 226.385 239.187 225.74C238.826 225.087 238.646 224.312 238.646 223.417H242.312C242.312 223.861 242.372 224.236 242.49 224.542C242.608 224.847 242.781 225.094 243.01 225.281C243.24 225.462 243.521 225.594 243.854 225.677C244.187 225.753 244.569 225.792 245 225.792C245.465 225.792 245.84 225.726 246.125 225.594C246.41 225.455 246.618 225.274 246.75 225.052C246.882 224.823 246.948 224.573 246.948 224.302Z" fill="white"/>
<rect x="339" y="196.333" width="208" height="49.3333" rx="4.66667" fill="#888888" stroke="#888888" stroke-width="4"/>
<path d="M382.833 213.167H388.802C389.969 213.167 390.983 213.34 391.844 213.687C392.705 214.035 393.368 214.549 393.833 215.229C394.306 215.91 394.542 216.75 394.542 217.75C394.542 218.618 394.406 219.344 394.135 219.927C393.865 220.51 393.486 220.993 393 221.375C392.521 221.75 391.962 222.059 391.323 222.302L390.125 222.979H385.115L385.094 220.156H388.802C389.267 220.156 389.653 220.073 389.958 219.906C390.264 219.74 390.493 219.503 390.646 219.198C390.806 218.885 390.885 218.514 390.885 218.083C390.885 217.646 390.806 217.271 390.646 216.958C390.486 216.646 390.25 216.406 389.937 216.24C389.632 216.073 389.253 215.99 388.802 215.99H386.49V228.333H382.833V213.167ZM391.135 228.333L387.781 221.625L391.656 221.604L395.052 228.177V228.333H391.135ZM402.042 228.542C401.125 228.542 400.306 228.399 399.583 228.115C398.861 227.823 398.25 227.424 397.75 226.917C397.257 226.41 396.878 225.826 396.615 225.167C396.358 224.507 396.229 223.809 396.229 223.073V222.677C396.229 221.851 396.344 221.087 396.573 220.385C396.802 219.677 397.142 219.059 397.594 218.531C398.045 218.003 398.611 217.594 399.292 217.302C399.972 217.003 400.764 216.854 401.667 216.854C402.465 216.854 403.181 216.983 403.813 217.24C404.444 217.497 404.979 217.865 405.417 218.344C405.861 218.823 406.198 219.403 406.427 220.083C406.663 220.764 406.781 221.528 406.781 222.375V223.802H397.573V221.604H403.354V221.333C403.361 220.958 403.295 220.639 403.156 220.375C403.024 220.111 402.83 219.91 402.573 219.771C402.316 219.632 402.003 219.562 401.635 219.562C401.253 219.562 400.938 219.646 400.688 219.812C400.444 219.979 400.253 220.208 400.115 220.5C399.983 220.785 399.889 221.115 399.833 221.49C399.778 221.865 399.75 222.26 399.75 222.677V223.073C399.75 223.49 399.806 223.868 399.917 224.208C400.035 224.549 400.201 224.84 400.417 225.083C400.639 225.319 400.903 225.503 401.208 225.635C401.521 225.767 401.875 225.833 402.271 225.833C402.75 225.833 403.222 225.743 403.688 225.562C404.153 225.382 404.552 225.083 404.885 224.667L406.479 226.562C406.25 226.889 405.924 227.205 405.5 227.51C405.083 227.816 404.583 228.066 404 228.26C403.417 228.448 402.764 228.542 402.042 228.542ZM414.063 225.5V220.854C414.063 220.535 414.017 220.26 413.927 220.031C413.837 219.802 413.694 219.625 413.5 219.5C413.306 219.368 413.045 219.302 412.719 219.302C412.455 219.302 412.229 219.347 412.042 219.437C411.854 219.528 411.712 219.663 411.615 219.844C411.517 220.024 411.469 220.253 411.469 220.531H407.958C407.958 220.01 408.073 219.528 408.302 219.083C408.538 218.632 408.872 218.24 409.302 217.906C409.74 217.573 410.26 217.316 410.865 217.135C411.476 216.948 412.156 216.854 412.906 216.854C413.802 216.854 414.601 217.003 415.302 217.302C416.01 217.601 416.569 218.049 416.979 218.646C417.389 219.236 417.594 219.979 417.594 220.875V225.49C417.594 226.226 417.635 226.785 417.719 227.167C417.802 227.542 417.92 227.872 418.073 228.156V228.333H414.552C414.385 227.986 414.26 227.562 414.177 227.062C414.101 226.556 414.063 226.035 414.063 225.5ZM414.49 221.448L414.51 223.323H412.958C412.632 223.323 412.354 223.368 412.125 223.458C411.903 223.549 411.722 223.674 411.583 223.833C411.451 223.986 411.354 224.16 411.292 224.354C411.236 224.549 411.208 224.753 411.208 224.969C411.208 225.177 411.257 225.365 411.354 225.531C411.458 225.691 411.597 225.816 411.771 225.906C411.944 225.997 412.139 226.042 412.354 226.042C412.743 226.042 413.073 225.969 413.344 225.823C413.622 225.67 413.833 225.486 413.979 225.271C414.125 225.056 414.198 224.854 414.198 224.667L414.969 226.104C414.83 226.382 414.67 226.663 414.49 226.948C414.316 227.233 414.097 227.497 413.833 227.74C413.576 227.976 413.26 228.17 412.885 228.323C412.51 228.469 412.056 228.542 411.521 228.542C410.826 228.542 410.188 228.399 409.604 228.115C409.028 227.83 408.566 227.434 408.219 226.927C407.872 226.413 407.698 225.823 407.698 225.156C407.698 224.573 407.802 224.052 408.01 223.594C408.226 223.135 408.549 222.747 408.979 222.427C409.41 222.108 409.958 221.865 410.625 221.698C411.292 221.531 412.076 221.448 412.979 221.448H414.49ZM424.302 225.833C424.628 225.833 424.906 225.774 425.135 225.656C425.372 225.531 425.549 225.358 425.667 225.135C425.792 224.906 425.851 224.632 425.844 224.312H429.146C429.153 225.16 428.944 225.903 428.521 226.542C428.104 227.174 427.535 227.667 426.812 228.021C426.097 228.368 425.288 228.542 424.385 228.542C423.503 228.542 422.733 228.399 422.073 228.115C421.413 227.823 420.861 227.42 420.417 226.906C419.979 226.385 419.649 225.778 419.427 225.083C419.212 224.389 419.104 223.635 419.104 222.823V222.583C419.104 221.771 419.212 221.017 419.427 220.323C419.649 219.622 419.979 219.014 420.417 218.5C420.861 217.979 421.41 217.576 422.062 217.292C422.722 217 423.49 216.854 424.365 216.854C425.302 216.854 426.128 217.031 426.844 217.385C427.566 217.74 428.132 218.253 428.542 218.927C428.951 219.601 429.153 220.417 429.146 221.375H425.844C425.851 221.035 425.799 220.729 425.687 220.458C425.576 220.187 425.403 219.972 425.167 219.812C424.937 219.646 424.642 219.562 424.281 219.562C423.92 219.562 423.628 219.642 423.406 219.802C423.184 219.962 423.014 220.184 422.896 220.469C422.785 220.747 422.708 221.066 422.667 221.427C422.632 221.788 422.615 222.174 422.615 222.583V222.823C422.615 223.24 422.632 223.632 422.667 224C422.708 224.361 422.788 224.681 422.906 224.958C423.024 225.229 423.194 225.444 423.417 225.604C423.639 225.757 423.934 225.833 424.302 225.833ZM436.583 217.062V219.5H429.792V217.062H436.583ZM431.219 214.26H434.729V224.656C434.729 224.955 434.764 225.187 434.833 225.354C434.903 225.514 435.021 225.628 435.188 225.698C435.361 225.76 435.59 225.792 435.875 225.792C436.076 225.792 436.243 225.788 436.375 225.781C436.507 225.767 436.632 225.75 436.75 225.729V228.24C436.451 228.337 436.139 228.41 435.813 228.458C435.486 228.514 435.139 228.542 434.771 228.542C434.021 228.542 433.378 228.424 432.844 228.187C432.316 227.951 431.913 227.58 431.635 227.073C431.358 226.566 431.219 225.906 431.219 225.094V214.26ZM456.125 213.167V228.333H452.479L447.115 218.896V228.333H443.458V213.167H447.115L452.479 222.604V213.167H456.125ZM464.125 225.5V220.854C464.125 220.535 464.08 220.26 463.99 220.031C463.899 219.802 463.757 219.625 463.563 219.5C463.368 219.368 463.108 219.302 462.781 219.302C462.517 219.302 462.292 219.347 462.104 219.437C461.917 219.528 461.774 219.663 461.677 219.844C461.58 220.024 461.531 220.253 461.531 220.531H458.021C458.021 220.01 458.135 219.528 458.365 219.083C458.601 218.632 458.934 218.24 459.365 217.906C459.802 217.573 460.323 217.316 460.927 217.135C461.538 216.948 462.219 216.854 462.969 216.854C463.865 216.854 464.663 217.003 465.365 217.302C466.073 217.601 466.632 218.049 467.042 218.646C467.451 219.236 467.656 219.979 467.656 220.875V225.49C467.656 226.226 467.698 226.785 467.781 227.167C467.865 227.542 467.983 227.872 468.135 228.156V228.333H464.615C464.448 227.986 464.323 227.562 464.24 227.062C464.163 226.556 464.125 226.035 464.125 225.5ZM464.552 221.448L464.573 223.323H463.021C462.694 223.323 462.417 223.368 462.188 223.458C461.965 223.549 461.785 223.674 461.646 223.833C461.514 223.986 461.417 224.16 461.354 224.354C461.299 224.549 461.271 224.753 461.271 224.969C461.271 225.177 461.319 225.365 461.417 225.531C461.521 225.691 461.66 225.816 461.833 225.906C462.007 225.997 462.201 226.042 462.417 226.042C462.806 226.042 463.135 225.969 463.406 225.823C463.684 225.67 463.896 225.486 464.042 225.271C464.188 225.056 464.26 224.854 464.26 224.667L465.031 226.104C464.892 226.382 464.733 226.663 464.552 226.948C464.378 227.233 464.16 227.497 463.896 227.74C463.639 227.976 463.323 228.17 462.948 228.323C462.573 228.469 462.118 228.542 461.583 228.542C460.889 228.542 460.25 228.399 459.667 228.115C459.09 227.83 458.628 227.434 458.281 226.927C457.934 226.413 457.76 225.823 457.76 225.156C457.76 224.573 457.865 224.052 458.073 223.594C458.288 223.135 458.611 222.747 459.042 222.427C459.472 222.108 460.021 221.865 460.688 221.698C461.354 221.531 462.139 221.448 463.042 221.448H464.552ZM475.542 217.062V219.5H468.75V217.062H475.542ZM470.177 214.26H473.687V224.656C473.687 224.955 473.722 225.187 473.792 225.354C473.861 225.514 473.979 225.628 474.146 225.698C474.319 225.76 474.549 225.792 474.833 225.792C475.035 225.792 475.201 225.788 475.333 225.781C475.465 225.767 475.59 225.75 475.708 225.729V228.24C475.41 228.337 475.097 228.41 474.771 228.458C474.444 228.514 474.097 228.542 473.729 228.542C472.979 228.542 472.337 228.424 471.802 228.187C471.274 227.951 470.872 227.58 470.594 227.073C470.316 226.566 470.177 225.906 470.177 225.094V214.26ZM480.646 217.062V228.333H477.125V217.062H480.646ZM476.917 214.156C476.917 213.656 477.097 213.247 477.458 212.927C477.819 212.608 478.288 212.448 478.865 212.448C479.441 212.448 479.91 212.608 480.271 212.927C480.632 213.247 480.813 213.656 480.813 214.156C480.813 214.656 480.632 215.066 480.271 215.385C479.91 215.705 479.441 215.865 478.865 215.865C478.288 215.865 477.819 215.705 477.458 215.385C477.097 215.066 476.917 214.656 476.917 214.156ZM486.875 225.927L489.094 217.062H492.792L489.104 228.333H486.917L486.875 225.927ZM485.563 217.062L487.75 225.927L487.729 228.333H485.531L481.854 217.062H485.563ZM499.146 228.542C498.229 228.542 497.41 228.399 496.688 228.115C495.965 227.823 495.354 227.424 494.854 226.917C494.361 226.41 493.983 225.826 493.719 225.167C493.462 224.507 493.333 223.809 493.333 223.073V222.677C493.333 221.851 493.448 221.087 493.677 220.385C493.906 219.677 494.247 219.059 494.698 218.531C495.149 218.003 495.715 217.594 496.396 217.302C497.076 217.003 497.868 216.854 498.771 216.854C499.569 216.854 500.285 216.983 500.917 217.24C501.549 217.497 502.083 217.865 502.521 218.344C502.965 218.823 503.302 219.403 503.531 220.083C503.767 220.764 503.885 221.528 503.885 222.375V223.802H494.677V221.604H500.458V221.333C500.465 220.958 500.399 220.639 500.26 220.375C500.128 220.111 499.934 219.91 499.677 219.771C499.42 219.632 499.108 219.562 498.74 219.562C498.358 219.562 498.042 219.646 497.792 219.812C497.549 219.979 497.358 220.208 497.219 220.5C497.087 220.785 496.993 221.115 496.938 221.49C496.882 221.865 496.854 222.26 496.854 222.677V223.073C496.854 223.49 496.91 223.868 497.021 224.208C497.139 224.549 497.306 224.84 497.521 225.083C497.743 225.319 498.007 225.503 498.313 225.635C498.625 225.767 498.979 225.833 499.375 225.833C499.854 225.833 500.326 225.743 500.792 225.562C501.257 225.382 501.656 225.083 501.99 224.667L503.583 226.562C503.354 226.889 503.028 227.205 502.604 227.51C502.188 227.816 501.688 228.066 501.104 228.26C500.521 228.448 499.868 228.542 499.146 228.542Z" fill="white"/>
<rect x="571" y="196.333" width="208" height="49.3333" rx="4.66667" fill="#888888" stroke="#888888" stroke-width="4"/>
<path d="M615.594 223.187H611.823V220.365H615.594C616.108 220.365 616.524 220.278 616.844 220.104C617.163 219.931 617.396 219.691 617.542 219.385C617.694 219.073 617.771 218.722 617.771 218.333C617.771 217.917 617.694 217.531 617.542 217.177C617.396 216.823 617.163 216.538 616.844 216.323C616.524 216.101 616.108 215.99 615.594 215.99H613.198V228.333H609.542V213.167H615.594C616.809 213.167 617.854 213.389 618.729 213.833C619.611 214.278 620.288 214.889 620.76 215.667C621.233 216.437 621.469 217.319 621.469 218.312C621.469 219.292 621.233 220.146 620.76 220.875C620.288 221.604 619.611 222.174 618.729 222.583C617.854 222.986 616.809 223.187 615.594 223.187ZM633.656 219.187V222H625.875V219.187H633.656ZM627.094 213.167V228.333H623.438V213.167H627.094ZM636.115 213.167V228.333H632.469V213.167H636.115ZM644.49 223.187H640.719V220.365H644.49C645.003 220.365 645.42 220.278 645.74 220.104C646.059 219.931 646.292 219.691 646.438 219.385C646.59 219.073 646.667 218.722 646.667 218.333C646.667 217.917 646.59 217.531 646.438 217.177C646.292 216.823 646.059 216.538 645.74 216.323C645.42 216.101 645.003 215.99 644.49 215.99H642.094V228.333H638.438V213.167H644.49C645.705 213.167 646.75 213.389 647.625 213.833C648.507 214.278 649.184 214.889 649.656 215.667C650.128 216.437 650.365 217.319 650.365 218.312C650.365 219.292 650.128 220.146 649.656 220.875C649.184 221.604 648.507 222.174 647.625 222.583C646.75 222.986 645.705 223.187 644.49 223.187ZM664.333 220.437V223.156H658.073V220.437H664.333ZM682.583 225.521V228.333H674.917V225.521H682.583ZM676.219 213.167V228.333H672.563V213.167H676.219ZM689.813 225.5V220.854C689.813 220.535 689.767 220.26 689.677 220.031C689.587 219.802 689.444 219.625 689.25 219.5C689.056 219.368 688.795 219.302 688.469 219.302C688.205 219.302 687.979 219.347 687.792 219.437C687.604 219.528 687.462 219.663 687.365 219.844C687.267 220.024 687.219 220.253 687.219 220.531H683.708C683.708 220.01 683.823 219.528 684.052 219.083C684.288 218.632 684.622 218.24 685.052 217.906C685.49 217.573 686.01 217.316 686.615 217.135C687.226 216.948 687.906 216.854 688.656 216.854C689.552 216.854 690.351 217.003 691.052 217.302C691.76 217.601 692.319 218.049 692.729 218.646C693.139 219.236 693.344 219.979 693.344 220.875V225.49C693.344 226.226 693.385 226.785 693.469 227.167C693.552 227.542 693.67 227.872 693.823 228.156V228.333H690.302C690.135 227.986 690.01 227.562 689.927 227.062C689.851 226.556 689.813 226.035 689.813 225.5ZM690.24 221.448L690.26 223.323H688.708C688.382 223.323 688.104 223.368 687.875 223.458C687.653 223.549 687.472 223.674 687.333 223.833C687.201 223.986 687.104 224.16 687.042 224.354C686.986 224.549 686.958 224.753 686.958 224.969C686.958 225.177 687.007 225.365 687.104 225.531C687.208 225.691 687.347 225.816 687.521 225.906C687.694 225.997 687.889 226.042 688.104 226.042C688.493 226.042 688.823 225.969 689.094 225.823C689.372 225.67 689.583 225.486 689.729 225.271C689.875 225.056 689.948 224.854 689.948 224.667L690.719 226.104C690.58 226.382 690.42 226.663 690.24 226.948C690.066 227.233 689.847 227.497 689.583 227.74C689.326 227.976 689.01 228.17 688.635 228.323C688.26 228.469 687.806 228.542 687.271 228.542C686.576 228.542 685.938 228.399 685.354 228.115C684.778 227.83 684.316 227.434 683.969 226.927C683.622 226.413 683.448 225.823 683.448 225.156C683.448 224.573 683.552 224.052 683.76 223.594C683.976 223.135 684.299 222.747 684.729 222.427C685.16 222.108 685.708 221.865 686.375 221.698C687.042 221.531 687.826 221.448 688.729 221.448H690.24ZM698.833 219.854V228.333H695.323V217.062H698.604L698.833 219.854ZM702.167 216.979L702.104 220.24C701.965 220.226 701.778 220.208 701.542 220.187C701.306 220.167 701.108 220.156 700.948 220.156C700.538 220.156 700.184 220.205 699.885 220.302C699.594 220.392 699.351 220.531 699.156 220.719C698.969 220.899 698.83 221.128 698.74 221.406C698.656 221.684 698.618 222.007 698.625 222.375L697.99 221.958C697.99 221.201 698.063 220.514 698.208 219.896C698.361 219.271 698.576 218.733 698.854 218.281C699.132 217.823 699.469 217.472 699.865 217.229C700.26 216.979 700.705 216.854 701.198 216.854C701.372 216.854 701.542 216.865 701.708 216.885C701.882 216.906 702.035 216.937 702.167 216.979ZM708.917 225.5V220.854C708.917 220.535 708.872 220.26 708.781 220.031C708.691 219.802 708.549 219.625 708.354 219.5C708.16 219.368 707.899 219.302 707.573 219.302C707.309 219.302 707.083 219.347 706.896 219.437C706.708 219.528 706.566 219.663 706.469 219.844C706.372 220.024 706.323 220.253 706.323 220.531H702.812C702.812 220.01 702.927 219.528 703.156 219.083C703.392 218.632 703.726 218.24 704.156 217.906C704.594 217.573 705.115 217.316 705.719 217.135C706.33 216.948 707.01 216.854 707.76 216.854C708.656 216.854 709.455 217.003 710.156 217.302C710.865 217.601 711.424 218.049 711.833 218.646C712.243 219.236 712.448 219.979 712.448 220.875V225.49C712.448 226.226 712.49 226.785 712.573 227.167C712.656 227.542 712.774 227.872 712.927 228.156V228.333H709.406C709.24 227.986 709.115 227.562 709.031 227.062C708.955 226.556 708.917 226.035 708.917 225.5ZM709.344 221.448L709.365 223.323H707.812C707.486 223.323 707.208 223.368 706.979 223.458C706.757 223.549 706.576 223.674 706.437 223.833C706.306 223.986 706.208 224.16 706.146 224.354C706.09 224.549 706.062 224.753 706.062 224.969C706.062 225.177 706.111 225.365 706.208 225.531C706.312 225.691 706.451 225.816 706.625 225.906C706.799 225.997 706.993 226.042 707.208 226.042C707.597 226.042 707.927 225.969 708.198 225.823C708.476 225.67 708.687 225.486 708.833 225.271C708.979 225.056 709.052 224.854 709.052 224.667L709.823 226.104C709.684 226.382 709.524 226.663 709.344 226.948C709.17 227.233 708.951 227.497 708.687 227.74C708.431 227.976 708.115 228.17 707.74 228.323C707.365 228.469 706.91 228.542 706.375 228.542C705.681 228.542 705.042 228.399 704.458 228.115C703.882 227.83 703.42 227.434 703.073 226.927C702.726 226.413 702.552 225.823 702.552 225.156C702.552 224.573 702.656 224.052 702.865 223.594C703.08 223.135 703.403 222.747 703.833 222.427C704.264 222.108 704.812 221.865 705.479 221.698C706.146 221.531 706.931 221.448 707.833 221.448H709.344ZM718.292 225.927L720.51 217.062H724.208L720.521 228.333H718.333L718.292 225.927ZM716.979 217.062L719.167 225.927L719.146 228.333H716.948L713.271 217.062H716.979ZM730.563 228.542C729.646 228.542 728.826 228.399 728.104 228.115C727.382 227.823 726.771 227.424 726.271 226.917C725.778 226.41 725.399 225.826 725.135 225.167C724.878 224.507 724.75 223.809 724.75 223.073V222.677C724.75 221.851 724.865 221.087 725.094 220.385C725.323 219.677 725.663 219.059 726.115 218.531C726.566 218.003 727.132 217.594 727.813 217.302C728.493 217.003 729.285 216.854 730.188 216.854C730.986 216.854 731.701 216.983 732.333 217.24C732.965 217.497 733.5 217.865 733.938 218.344C734.382 218.823 734.719 219.403 734.948 220.083C735.184 220.764 735.302 221.528 735.302 222.375V223.802H726.094V221.604H731.875V221.333C731.882 220.958 731.816 220.639 731.677 220.375C731.545 220.111 731.351 219.91 731.094 219.771C730.837 219.632 730.524 219.562 730.156 219.562C729.774 219.562 729.458 219.646 729.208 219.812C728.965 219.979 728.774 220.208 728.635 220.5C728.503 220.785 728.41 221.115 728.354 221.49C728.299 221.865 728.271 222.26 728.271 222.677V223.073C728.271 223.49 728.326 223.868 728.438 224.208C728.556 224.549 728.722 224.84 728.938 225.083C729.16 225.319 729.424 225.503 729.729 225.635C730.042 225.767 730.396 225.833 730.792 225.833C731.271 225.833 731.743 225.743 732.208 225.562C732.674 225.382 733.073 225.083 733.406 224.667L735 226.562C734.771 226.889 734.444 227.205 734.021 227.51C733.604 227.816 733.104 228.066 732.521 228.26C731.938 228.448 731.285 228.542 730.563 228.542ZM740.438 212.333V228.333H736.917V212.333H740.438Z" fill="white"/>
<rect x="803" y="196.333" width="208" height="49.3333" rx="4.66667" fill="#888888" stroke="#888888" stroke-width="4"/>
<path d="M875.26 213.167H878.24L881.625 223.719L885.01 213.167H887.99L882.833 228.333H880.417L875.26 213.167ZM873.448 213.167H876.531L877.104 224.792V228.333H873.448V213.167ZM886.719 213.167H889.812V228.333H886.146V224.792L886.719 213.167ZM895.448 227.01L898.365 217.062H902.135L897.604 230.01C897.507 230.295 897.378 230.601 897.219 230.927C897.059 231.26 896.84 231.576 896.563 231.875C896.285 232.174 895.927 232.417 895.49 232.604C895.059 232.792 894.524 232.885 893.885 232.885C893.545 232.885 893.295 232.868 893.135 232.833C892.983 232.806 892.747 232.753 892.427 232.677V230.167C892.517 230.167 892.594 230.167 892.656 230.167C892.726 230.167 892.802 230.167 892.885 230.167C893.26 230.167 893.559 230.128 893.781 230.052C894.01 229.976 894.184 229.865 894.302 229.719C894.427 229.573 894.524 229.396 894.594 229.187L895.448 227.01ZM894.708 217.062L896.927 224.948L897.313 228.667H894.958L890.948 217.062H894.708ZM911.031 224.302C911.031 224.066 910.997 223.854 910.927 223.667C910.858 223.472 910.729 223.292 910.542 223.125C910.354 222.958 910.083 222.792 909.729 222.625C909.382 222.451 908.924 222.271 908.354 222.083C907.688 221.861 907.045 221.611 906.427 221.333C905.809 221.049 905.257 220.719 904.771 220.344C904.285 219.962 903.899 219.517 903.615 219.01C903.33 218.497 903.188 217.899 903.188 217.219C903.188 216.566 903.333 215.979 903.625 215.458C903.917 214.931 904.323 214.483 904.844 214.115C905.372 213.74 905.99 213.455 906.698 213.26C907.406 213.059 908.181 212.958 909.021 212.958C910.132 212.958 911.111 213.153 911.958 213.542C912.813 213.924 913.479 214.469 913.958 215.177C914.444 215.878 914.688 216.708 914.688 217.667H911.052C911.052 217.285 910.972 216.948 910.813 216.656C910.66 216.365 910.427 216.135 910.115 215.969C909.802 215.802 909.41 215.719 908.938 215.719C908.479 215.719 908.094 215.788 907.781 215.927C907.469 216.066 907.233 216.253 907.073 216.49C906.913 216.719 906.833 216.972 906.833 217.25C906.833 217.479 906.896 217.687 907.021 217.875C907.153 218.056 907.337 218.226 907.573 218.385C907.816 218.545 908.108 218.698 908.448 218.844C908.795 218.99 909.184 219.132 909.615 219.271C910.42 219.528 911.135 219.816 911.76 220.135C912.392 220.448 912.924 220.806 913.354 221.208C913.792 221.604 914.122 222.056 914.344 222.562C914.573 223.069 914.688 223.642 914.688 224.281C914.688 224.962 914.556 225.566 914.292 226.094C914.028 226.622 913.649 227.069 913.156 227.437C912.663 227.799 912.073 228.073 911.385 228.26C910.698 228.448 909.931 228.542 909.083 228.542C908.306 228.542 907.538 228.444 906.781 228.25C906.031 228.049 905.351 227.743 904.74 227.333C904.128 226.917 903.639 226.385 903.271 225.74C902.91 225.087 902.729 224.312 902.729 223.417H906.396C906.396 223.861 906.455 224.236 906.573 224.542C906.691 224.847 906.865 225.094 907.094 225.281C907.323 225.462 907.604 225.594 907.938 225.677C908.271 225.753 908.653 225.792 909.083 225.792C909.549 225.792 909.924 225.726 910.208 225.594C910.493 225.455 910.701 225.274 910.833 225.052C910.965 224.823 911.031 224.573 911.031 224.302ZM925.031 225.833L929.26 229.187L926.99 231.104L922.833 227.75L925.031 225.833ZM929.437 220.448V221.062C929.437 222.222 929.274 223.264 928.948 224.187C928.628 225.104 928.17 225.889 927.573 226.542C926.983 227.187 926.285 227.684 925.479 228.031C924.674 228.372 923.785 228.542 922.812 228.542C921.833 228.542 920.937 228.372 920.125 228.031C919.319 227.684 918.618 227.187 918.021 226.542C917.431 225.889 916.972 225.104 916.646 224.187C916.326 223.264 916.167 222.222 916.167 221.062V220.448C916.167 219.288 916.326 218.247 916.646 217.323C916.972 216.399 917.427 215.615 918.01 214.969C918.601 214.316 919.299 213.819 920.104 213.479C920.917 213.132 921.812 212.958 922.792 212.958C923.764 212.958 924.653 213.132 925.458 213.479C926.271 213.819 926.972 214.316 927.562 214.969C928.16 215.615 928.622 216.399 928.948 217.323C929.274 218.247 929.437 219.288 929.437 220.448ZM925.719 221.062V220.427C925.719 219.677 925.653 219.017 925.521 218.448C925.396 217.872 925.208 217.389 924.958 217C924.708 216.611 924.399 216.319 924.031 216.125C923.67 215.924 923.257 215.823 922.792 215.823C922.306 215.823 921.882 215.924 921.521 216.125C921.16 216.319 920.858 216.611 920.615 217C920.372 217.389 920.187 217.872 920.062 218.448C919.944 219.017 919.885 219.677 919.885 220.427V221.062C919.885 221.806 919.944 222.465 920.062 223.042C920.187 223.611 920.372 224.094 920.615 224.49C920.865 224.885 921.17 225.184 921.531 225.385C921.899 225.587 922.326 225.687 922.812 225.687C923.278 225.687 923.691 225.587 924.052 225.385C924.413 225.184 924.715 224.885 924.958 224.49C925.208 224.094 925.396 223.611 925.521 223.042C925.653 222.465 925.719 221.806 925.719 221.062ZM941.323 225.521V228.333H933.656V225.521H941.323ZM934.958 213.167V228.333H931.302V213.167H934.958Z" fill="white"/>
<rect x="1035" y="196.333" width="208" height="49.3333" rx="4.66667" fill="#888888" stroke="#888888" stroke-width="4"/>
<path d="M1114.04 213.167V228.333H1110.39V213.167H1114.04ZM1119.94 219.479V222.292H1113V219.479H1119.94ZM1120.53 213.167V215.99H1113V213.167H1120.53ZM1125.59 217.062V228.333H1122.07V217.062H1125.59ZM1121.86 214.156C1121.86 213.656 1122.05 213.247 1122.41 212.927C1122.77 212.608 1123.24 212.448 1123.81 212.448C1124.39 212.448 1124.86 212.608 1125.22 212.927C1125.58 213.247 1125.76 213.656 1125.76 214.156C1125.76 214.656 1125.58 215.066 1125.22 215.385C1124.86 215.705 1124.39 215.865 1123.81 215.865C1123.24 215.865 1122.77 215.705 1122.41 215.385C1122.05 215.066 1121.86 214.656 1121.86 214.156ZM1134.84 217.062H1138.03V227.896C1138.03 228.937 1137.79 229.819 1137.31 230.542C1136.83 231.271 1136.16 231.823 1135.3 232.198C1134.45 232.58 1133.45 232.771 1132.3 232.771C1131.8 232.771 1131.28 232.705 1130.75 232.573C1130.22 232.448 1129.73 232.26 1129.27 232.01C1128.81 231.76 1128.43 231.451 1128.11 231.083L1129.58 229.021C1129.87 229.34 1130.23 229.611 1130.66 229.833C1131.09 230.062 1131.59 230.177 1132.18 230.177C1132.68 230.177 1133.11 230.087 1133.45 229.906C1133.8 229.726 1134.06 229.462 1134.24 229.115C1134.42 228.774 1134.51 228.361 1134.51 227.875V219.729L1134.84 217.062ZM1127.35 222.833V222.615C1127.35 221.76 1127.46 220.983 1127.67 220.281C1127.88 219.573 1128.19 218.965 1128.58 218.458C1128.99 217.944 1129.47 217.549 1130.04 217.271C1130.61 216.993 1131.25 216.854 1131.97 216.854C1132.74 216.854 1133.37 217.003 1133.86 217.302C1134.36 217.594 1134.76 218.003 1135.06 218.531C1135.37 219.059 1135.6 219.677 1135.77 220.385C1135.94 221.087 1136.09 221.844 1136.21 222.656V222.917C1136.09 223.681 1135.93 224.403 1135.72 225.083C1135.52 225.757 1135.25 226.354 1134.93 226.875C1134.6 227.396 1134.19 227.806 1133.7 228.104C1133.21 228.396 1132.63 228.542 1131.95 228.542C1131.24 228.542 1130.6 228.399 1130.03 228.115C1129.47 227.83 1128.99 227.431 1128.58 226.917C1128.19 226.403 1127.88 225.799 1127.67 225.104C1127.46 224.41 1127.35 223.653 1127.35 222.833ZM1130.86 222.615V222.833C1130.86 223.257 1130.9 223.649 1130.98 224.01C1131.06 224.372 1131.19 224.691 1131.35 224.969C1131.52 225.24 1131.73 225.451 1131.97 225.604C1132.22 225.757 1132.51 225.833 1132.84 225.833C1133.35 225.833 1133.76 225.726 1134.07 225.51C1134.39 225.295 1134.61 224.99 1134.75 224.594C1134.89 224.198 1134.95 223.733 1134.93 223.198V222.375C1134.94 221.917 1134.91 221.514 1134.83 221.167C1134.76 220.812 1134.64 220.517 1134.47 220.281C1134.31 220.045 1134.09 219.868 1133.82 219.75C1133.56 219.625 1133.24 219.562 1132.86 219.562C1132.54 219.562 1132.25 219.639 1132 219.792C1131.75 219.944 1131.54 220.16 1131.37 220.437C1131.21 220.708 1131.08 221.031 1130.99 221.406C1130.91 221.774 1130.86 222.177 1130.86 222.615ZM1143.59 219.448V228.333H1140.08V217.062H1143.38L1143.59 219.448ZM1143.17 222.312L1142.36 222.333C1142.36 221.542 1142.46 220.812 1142.65 220.146C1142.83 219.479 1143.11 218.899 1143.48 218.406C1143.85 217.913 1144.3 217.531 1144.83 217.26C1145.38 216.99 1146 216.854 1146.71 216.854C1147.2 216.854 1147.65 216.931 1148.05 217.083C1148.45 217.229 1148.8 217.462 1149.09 217.781C1149.39 218.094 1149.61 218.503 1149.76 219.01C1149.92 219.51 1150 220.111 1150 220.812V228.333H1146.49V221.26C1146.49 220.781 1146.43 220.42 1146.32 220.177C1146.22 219.934 1146.07 219.771 1145.86 219.687C1145.66 219.604 1145.42 219.562 1145.13 219.562C1144.82 219.562 1144.55 219.632 1144.3 219.771C1144.06 219.91 1143.85 220.104 1143.68 220.354C1143.51 220.597 1143.38 220.885 1143.29 221.219C1143.21 221.552 1143.17 221.917 1143.17 222.312ZM1149.6 222.312L1148.63 222.333C1148.63 221.542 1148.71 220.812 1148.89 220.146C1149.07 219.479 1149.33 218.899 1149.69 218.406C1150.05 217.913 1150.5 217.531 1151.03 217.26C1151.57 216.99 1152.19 216.854 1152.9 216.854C1153.41 216.854 1153.88 216.931 1154.31 217.083C1154.74 217.236 1155.11 217.483 1155.43 217.823C1155.74 218.163 1155.98 218.615 1156.16 219.177C1156.33 219.733 1156.42 220.42 1156.42 221.24V228.333H1152.9V221.24C1152.9 220.774 1152.84 220.424 1152.73 220.187C1152.63 219.944 1152.47 219.781 1152.27 219.698C1152.07 219.608 1151.83 219.562 1151.55 219.562C1151.22 219.562 1150.93 219.632 1150.69 219.771C1150.44 219.91 1150.24 220.104 1150.07 220.354C1149.91 220.597 1149.8 220.885 1149.72 221.219C1149.64 221.552 1149.6 221.917 1149.6 222.312ZM1164.28 225.5V220.854C1164.28 220.535 1164.24 220.26 1164.15 220.031C1164.06 219.802 1163.91 219.625 1163.72 219.5C1163.52 219.368 1163.26 219.302 1162.94 219.302C1162.67 219.302 1162.45 219.347 1162.26 219.437C1162.07 219.528 1161.93 219.663 1161.83 219.844C1161.74 220.024 1161.69 220.253 1161.69 220.531H1158.18C1158.18 220.01 1158.29 219.528 1158.52 219.083C1158.76 218.632 1159.09 218.24 1159.52 217.906C1159.96 217.573 1160.48 217.316 1161.08 217.135C1161.69 216.948 1162.38 216.854 1163.13 216.854C1164.02 216.854 1164.82 217.003 1165.52 217.302C1166.23 217.601 1166.79 218.049 1167.2 218.646C1167.61 219.236 1167.81 219.979 1167.81 220.875V225.49C1167.81 226.226 1167.85 226.785 1167.94 227.167C1168.02 227.542 1168.14 227.872 1168.29 228.156V228.333H1164.77C1164.6 227.986 1164.48 227.562 1164.4 227.062C1164.32 226.556 1164.28 226.035 1164.28 225.5ZM1164.71 221.448L1164.73 223.323H1163.18C1162.85 223.323 1162.57 223.368 1162.34 223.458C1162.12 223.549 1161.94 223.674 1161.8 223.833C1161.67 223.986 1161.57 224.16 1161.51 224.354C1161.45 224.549 1161.43 224.753 1161.43 224.969C1161.43 225.177 1161.48 225.365 1161.57 225.531C1161.68 225.691 1161.82 225.816 1161.99 225.906C1162.16 225.997 1162.36 226.042 1162.57 226.042C1162.96 226.042 1163.29 225.969 1163.56 225.823C1163.84 225.67 1164.05 225.486 1164.2 225.271C1164.34 225.056 1164.42 224.854 1164.42 224.667L1165.19 226.104C1165.05 226.382 1164.89 226.663 1164.71 226.948C1164.53 227.233 1164.32 227.497 1164.05 227.74C1163.8 227.976 1163.48 228.17 1163.1 228.323C1162.73 228.469 1162.27 228.542 1161.74 228.542C1161.05 228.542 1160.41 228.399 1159.82 228.115C1159.25 227.83 1158.78 227.434 1158.44 226.927C1158.09 226.413 1157.92 225.823 1157.92 225.156C1157.92 224.573 1158.02 224.052 1158.23 223.594C1158.44 223.135 1158.77 222.747 1159.2 222.427C1159.63 222.108 1160.18 221.865 1160.84 221.698C1161.51 221.531 1162.3 221.448 1163.2 221.448H1164.71Z" fill="white"/>
</svg>
