<svg width="1363" height="167" viewBox="0 0 1363 167" fill="none" xmlns="http://www.w3.org/2000/svg">
<rect width="1363" height="167" rx="15" fill="#F0F0F0"/>
<path d="M0 15C0 6.71573 6.71573 0 15 0H37V167H15C6.71573 167 0 160.284 0 152V15Z" fill="#424241"/>
<path d="M100.906 50.9219L93.3945 48.2383V45.0859L103.602 49.375V51.6367L100.906 50.9219ZM93.3945 53.1719L100.918 50.4297L103.602 49.7852V52.0352L93.3945 56.3242V53.1719ZM115.309 54.7188L117.945 45.3203H120.09L119.398 49.0117L116.762 58H114.969L115.309 54.7188ZM113.973 45.3203L115.859 54.707L116.035 58H113.926L110.715 45.3203H113.973ZM122.504 54.5547L124.344 45.3203H127.613L124.402 58H122.305L122.504 54.5547ZM120.383 45.3203L123.008 54.6484L123.371 58H121.566L118.93 49.0234L118.262 45.3203H120.383ZM136.156 55.1406V49.4922C136.156 49.0859 136.09 48.7383 135.957 48.4492C135.824 48.1523 135.617 47.9219 135.336 47.7578C135.062 47.5938 134.707 47.5117 134.27 47.5117C133.895 47.5117 133.57 47.5781 133.297 47.7109C133.023 47.8359 132.812 48.0195 132.664 48.2617C132.516 48.4961 132.441 48.7734 132.441 49.0938H129.066C129.066 48.5547 129.191 48.043 129.441 47.5586C129.691 47.0742 130.055 46.6484 130.531 46.2812C131.008 45.9062 131.574 45.6133 132.23 45.4023C132.895 45.1914 133.637 45.0859 134.457 45.0859C135.441 45.0859 136.316 45.25 137.082 45.5781C137.848 45.9062 138.449 46.3984 138.887 47.0547C139.332 47.7109 139.555 48.5312 139.555 49.5156V54.9414C139.555 55.6367 139.598 56.207 139.684 56.6523C139.77 57.0898 139.895 57.4727 140.059 57.8008V58H136.648C136.484 57.6562 136.359 57.2266 136.273 56.7109C136.195 56.1875 136.156 55.6641 136.156 55.1406ZM136.602 50.2773L136.625 52.1875H134.738C134.293 52.1875 133.906 52.2383 133.578 52.3398C133.25 52.4414 132.98 52.5859 132.77 52.7734C132.559 52.9531 132.402 53.1641 132.301 53.4062C132.207 53.6484 132.16 53.9141 132.16 54.2031C132.16 54.4922 132.227 54.7539 132.359 54.9883C132.492 55.2148 132.684 55.3945 132.934 55.5273C133.184 55.6523 133.477 55.7148 133.812 55.7148C134.32 55.7148 134.762 55.6133 135.137 55.4102C135.512 55.207 135.801 54.957 136.004 54.6602C136.215 54.3633 136.324 54.082 136.332 53.8164L137.223 55.2461C137.098 55.5664 136.926 55.8984 136.707 56.2422C136.496 56.5859 136.227 56.9102 135.898 57.2148C135.57 57.5117 135.176 57.7578 134.715 57.9531C134.254 58.1406 133.707 58.2344 133.074 58.2344C132.27 58.2344 131.539 58.0742 130.883 57.7539C130.234 57.4258 129.719 56.9766 129.336 56.4062C128.961 55.8281 128.773 55.1719 128.773 54.4375C128.773 53.7734 128.898 53.1836 129.148 52.668C129.398 52.1523 129.766 51.7188 130.25 51.3672C130.742 51.0078 131.355 50.7383 132.09 50.5586C132.824 50.3711 133.676 50.2773 134.645 50.2773H136.602ZM151.637 55.4688L156.254 59.125L154.039 61.0469L149.492 57.3906L151.637 55.4688ZM156.371 49.0703V49.8789C156.371 51.1758 156.195 52.3398 155.844 53.3711C155.5 54.4023 155.004 55.2812 154.355 56.0078C153.707 56.7266 152.941 57.2773 152.059 57.6602C151.176 58.043 150.195 58.2344 149.117 58.2344C148.047 58.2344 147.066 58.043 146.176 57.6602C145.285 57.2773 144.516 56.7266 143.867 56.0078C143.219 55.2812 142.715 54.4023 142.355 53.3711C142.004 52.3398 141.828 51.1758 141.828 49.8789V49.0703C141.828 47.7656 142.004 46.6016 142.355 45.5781C142.715 44.5469 143.215 43.668 143.855 42.9414C144.496 42.2148 145.262 41.6602 146.152 41.2773C147.043 40.8945 148.023 40.7031 149.094 40.7031C150.172 40.7031 151.152 40.8945 152.035 41.2773C152.926 41.6602 153.695 42.2148 154.344 42.9414C154.992 43.668 155.492 44.5469 155.844 45.5781C156.195 46.6016 156.371 47.7656 156.371 49.0703ZM152.82 49.8789V49.0469C152.82 48.1406 152.734 47.3438 152.562 46.6562C152.398 45.9688 152.156 45.3906 151.836 44.9219C151.523 44.4531 151.137 44.1016 150.676 43.8672C150.215 43.625 149.688 43.5039 149.094 43.5039C148.5 43.5039 147.973 43.625 147.512 43.8672C147.051 44.1016 146.664 44.4531 146.352 44.9219C146.039 45.3906 145.801 45.9688 145.637 46.6562C145.473 47.3438 145.391 48.1406 145.391 49.0469V49.8789C145.391 50.7773 145.473 51.5742 145.637 52.2695C145.801 52.957 146.039 53.5391 146.352 54.0156C146.672 54.4844 147.062 54.8398 147.523 55.082C147.992 55.3242 148.523 55.4453 149.117 55.4453C149.711 55.4453 150.234 55.3242 150.688 55.082C151.148 54.8398 151.535 54.4844 151.848 54.0156C152.168 53.5391 152.41 52.957 152.574 52.2695C152.738 51.5742 152.82 50.7773 152.82 49.8789ZM158.164 51.7891V51.543C158.164 50.6133 158.297 49.7578 158.562 48.9766C158.828 48.1875 159.215 47.5039 159.723 46.9258C160.23 46.3477 160.855 45.8984 161.598 45.5781C162.34 45.25 163.191 45.0859 164.152 45.0859C165.113 45.0859 165.969 45.25 166.719 45.5781C167.469 45.8984 168.098 46.3477 168.605 46.9258C169.121 47.5039 169.512 48.1875 169.777 48.9766C170.043 49.7578 170.176 50.6133 170.176 51.543V51.7891C170.176 52.7109 170.043 53.5664 169.777 54.3555C169.512 55.1367 169.121 55.8203 168.605 56.4062C168.098 56.9844 167.473 57.4336 166.73 57.7539C165.988 58.0742 165.137 58.2344 164.176 58.2344C163.215 58.2344 162.359 58.0742 161.609 57.7539C160.867 57.4336 160.238 56.9844 159.723 56.4062C159.215 55.8203 158.828 55.1367 158.562 54.3555C158.297 53.5664 158.164 52.7109 158.164 51.7891ZM161.539 51.543V51.7891C161.539 52.3203 161.586 52.8164 161.68 53.2773C161.773 53.7383 161.922 54.1445 162.125 54.4961C162.336 54.8398 162.609 55.1094 162.945 55.3047C163.281 55.5 163.691 55.5977 164.176 55.5977C164.645 55.5977 165.047 55.5 165.383 55.3047C165.719 55.1094 165.988 54.8398 166.191 54.4961C166.395 54.1445 166.543 53.7383 166.637 53.2773C166.738 52.8164 166.789 52.3203 166.789 51.7891V51.543C166.789 51.0273 166.738 50.543 166.637 50.0898C166.543 49.6289 166.391 49.2227 166.18 48.8711C165.977 48.5117 165.707 48.2305 165.371 48.0273C165.035 47.8242 164.629 47.7227 164.152 47.7227C163.676 47.7227 163.27 47.8242 162.934 48.0273C162.605 48.2305 162.336 48.5117 162.125 48.8711C161.922 49.2227 161.773 49.6289 161.68 50.0898C161.586 50.543 161.539 51.0273 161.539 51.543ZM179.75 54.9648V45.3203H183.125V58H179.949L179.75 54.9648ZM180.125 52.3633L181.121 52.3398C181.121 53.1836 181.023 53.9688 180.828 54.6953C180.633 55.4141 180.34 56.0391 179.949 56.5703C179.559 57.0938 179.066 57.5039 178.473 57.8008C177.879 58.0898 177.18 58.2344 176.375 58.2344C175.758 58.2344 175.188 58.1484 174.664 57.9766C174.148 57.7969 173.703 57.5195 173.328 57.1445C172.961 56.7617 172.672 56.2734 172.461 55.6797C172.258 55.0781 172.156 54.3555 172.156 53.5117V45.3203H175.531V53.5352C175.531 53.9102 175.574 54.2266 175.66 54.4844C175.754 54.7422 175.883 54.9531 176.047 55.1172C176.211 55.2812 176.402 55.3984 176.621 55.4688C176.848 55.5391 177.098 55.5742 177.371 55.5742C178.066 55.5742 178.613 55.4336 179.012 55.1523C179.418 54.8711 179.703 54.4883 179.867 54.0039C180.039 53.5117 180.125 52.9648 180.125 52.3633ZM193.191 55.2344V40H196.59V58H193.531L193.191 55.2344ZM185.176 51.8125V51.5664C185.176 50.5977 185.285 49.7188 185.504 48.9297C185.723 48.1328 186.043 47.4492 186.465 46.8789C186.887 46.3086 187.406 45.8672 188.023 45.5547C188.641 45.2422 189.344 45.0859 190.133 45.0859C190.875 45.0859 191.523 45.2422 192.078 45.5547C192.641 45.8672 193.117 46.3125 193.508 46.8906C193.906 47.4609 194.227 48.1367 194.469 48.918C194.711 49.6914 194.887 50.5391 194.996 51.4609V52C194.887 52.8828 194.711 53.7031 194.469 54.4609C194.227 55.2188 193.906 55.8828 193.508 56.4531C193.117 57.0156 192.641 57.4531 192.078 57.7656C191.516 58.0781 190.859 58.2344 190.109 58.2344C189.32 58.2344 188.617 58.0742 188 57.7539C187.391 57.4336 186.875 56.9844 186.453 56.4062C186.039 55.8281 185.723 55.1484 185.504 54.3672C185.285 53.5859 185.176 52.7344 185.176 51.8125ZM188.551 51.5664V51.8125C188.551 52.3359 188.59 52.8242 188.668 53.2773C188.754 53.7305 188.891 54.1328 189.078 54.4844C189.273 54.8281 189.523 55.0977 189.828 55.293C190.141 55.4805 190.52 55.5742 190.965 55.5742C191.543 55.5742 192.02 55.4453 192.395 55.1875C192.77 54.9219 193.055 54.5586 193.25 54.0977C193.453 53.6367 193.57 53.1055 193.602 52.5039V50.9688C193.578 50.4766 193.508 50.0352 193.391 49.6445C193.281 49.2461 193.117 48.9062 192.898 48.625C192.688 48.3438 192.422 48.125 192.102 47.9688C191.789 47.8125 191.418 47.7344 190.988 47.7344C190.551 47.7344 190.176 47.8359 189.863 48.0391C189.551 48.2344 189.297 48.5039 189.102 48.8477C188.914 49.1914 188.773 49.5977 188.68 50.0664C188.594 50.5273 188.551 51.0273 188.551 51.5664Z" fill="#888888"/>
<path d="M101.822 115.1L108.194 86.0078H111.995L114.061 88.4907L107.271 118H103.074L101.822 115.1ZM100.13 86.0078L105.513 115.319L104.129 118H99.2729L92.4834 86.0078H100.13ZM117.554 115.166L122.894 86.0078H130.518L123.729 118H118.895L117.554 115.166ZM114.742 86.0078L121.268 115.275L119.949 118H115.752L108.809 88.4468L110.962 86.0078H114.742ZM141.021 94.2256V118H133.594V94.2256H141.021ZM133.155 88.0952C133.155 87.0405 133.536 86.1763 134.297 85.5024C135.059 84.8286 136.048 84.4917 137.264 84.4917C138.479 84.4917 139.468 84.8286 140.23 85.5024C140.992 86.1763 141.373 87.0405 141.373 88.0952C141.373 89.1499 140.992 90.0142 140.23 90.688C139.468 91.3618 138.479 91.6987 137.264 91.6987C136.048 91.6987 135.059 91.3618 134.297 90.688C133.536 90.0142 133.155 89.1499 133.155 88.0952ZM153.062 100.114V118H145.657V94.2256H152.579L153.062 100.114ZM160.093 94.0498L159.961 100.927C159.668 100.898 159.273 100.861 158.775 100.817C158.277 100.773 157.859 100.751 157.522 100.751C156.658 100.751 155.911 100.854 155.281 101.059C154.666 101.25 154.153 101.542 153.743 101.938C153.348 102.319 153.055 102.802 152.864 103.388C152.688 103.974 152.608 104.655 152.623 105.432L151.282 104.553C151.282 102.956 151.436 101.506 151.744 100.202C152.066 98.8838 152.52 97.7485 153.106 96.7964C153.692 95.8296 154.402 95.0898 155.237 94.5771C156.072 94.0498 157.01 93.7861 158.05 93.7861C158.416 93.7861 158.775 93.8081 159.126 93.8521C159.493 93.896 159.815 93.9619 160.093 94.0498ZM173.716 118.439C171.783 118.439 170.054 118.139 168.531 117.539C167.007 116.923 165.718 116.081 164.664 115.012C163.624 113.942 162.825 112.712 162.269 111.32C161.727 109.929 161.456 108.457 161.456 106.904V106.069C161.456 104.326 161.697 102.714 162.181 101.235C162.664 99.7407 163.382 98.437 164.334 97.3237C165.286 96.2104 166.48 95.3462 167.916 94.731C169.351 94.1011 171.021 93.7861 172.925 93.7861C174.61 93.7861 176.119 94.0571 177.452 94.5991C178.785 95.1411 179.913 95.9175 180.835 96.9282C181.773 97.939 182.483 99.1621 182.967 100.598C183.465 102.033 183.714 103.645 183.714 105.432V108.442H164.29V103.806H176.485V103.234C176.5 102.443 176.36 101.77 176.067 101.213C175.789 100.656 175.379 100.231 174.837 99.9385C174.295 99.6455 173.636 99.499 172.859 99.499C172.054 99.499 171.387 99.6748 170.86 100.026C170.347 100.378 169.944 100.861 169.651 101.477C169.373 102.077 169.175 102.773 169.058 103.564C168.941 104.355 168.882 105.19 168.882 106.069V106.904C168.882 107.783 169 108.581 169.234 109.299C169.483 110.017 169.834 110.632 170.289 111.145C170.757 111.643 171.314 112.031 171.958 112.309C172.618 112.587 173.365 112.727 174.2 112.727C175.21 112.727 176.207 112.536 177.188 112.155C178.169 111.774 179.012 111.145 179.715 110.266L183.077 114.265C182.593 114.953 181.905 115.62 181.011 116.264C180.132 116.909 179.078 117.436 177.847 117.846C176.617 118.242 175.24 118.439 173.716 118.439ZM195.799 118H188.35V92.292C188.35 90.4463 188.724 88.8936 189.471 87.6338C190.218 86.374 191.272 85.4219 192.635 84.7773C193.997 84.1182 195.608 83.7886 197.469 83.7886C198.113 83.7886 198.721 83.8325 199.292 83.9204C199.864 84.0083 200.42 84.1182 200.962 84.25L200.984 89.6992C200.721 89.626 200.45 89.5747 200.171 89.5454C199.893 89.5161 199.549 89.5015 199.139 89.5015C198.421 89.5015 197.813 89.6113 197.315 89.8311C196.817 90.0361 196.436 90.3511 196.172 90.7759C195.923 91.186 195.799 91.6914 195.799 92.292V118ZM200.413 94.2256V99.3672H184.922V94.2256H200.413ZM210.542 100.114V118H203.138V94.2256H210.059L210.542 100.114ZM217.574 94.0498L217.442 100.927C217.149 100.898 216.753 100.861 216.255 100.817C215.757 100.773 215.34 100.751 215.003 100.751C214.139 100.751 213.392 100.854 212.762 101.059C212.146 101.25 211.634 101.542 211.224 101.938C210.828 102.319 210.535 102.802 210.345 103.388C210.169 103.974 210.088 104.655 210.103 105.432L208.763 104.553C208.763 102.956 208.917 101.506 209.224 100.202C209.546 98.8838 210 97.7485 210.586 96.7964C211.172 95.8296 211.883 95.0898 212.718 94.5771C213.553 94.0498 214.49 93.7861 215.53 93.7861C215.896 93.7861 216.255 93.8081 216.607 93.8521C216.973 93.896 217.295 93.9619 217.574 94.0498ZM231.812 112.023V102.224C231.812 101.55 231.717 100.971 231.526 100.488C231.336 100.004 231.036 99.6309 230.625 99.3672C230.215 99.0889 229.666 98.9497 228.978 98.9497C228.421 98.9497 227.945 99.0449 227.549 99.2354C227.154 99.4258 226.854 99.7114 226.648 100.092C226.443 100.473 226.341 100.957 226.341 101.542H218.936C218.936 100.444 219.178 99.4258 219.661 98.4883C220.159 97.5361 220.862 96.7085 221.771 96.0054C222.693 95.3022 223.792 94.7603 225.066 94.3794C226.355 93.9839 227.791 93.7861 229.373 93.7861C231.263 93.7861 232.947 94.1011 234.427 94.731C235.921 95.3608 237.1 96.3057 237.964 97.5654C238.829 98.8105 239.261 100.378 239.261 102.268V112.001C239.261 113.554 239.349 114.733 239.524 115.539C239.7 116.33 239.949 117.026 240.271 117.626V118H232.845C232.493 117.268 232.229 116.374 232.054 115.319C231.893 114.25 231.812 113.151 231.812 112.023ZM232.713 103.476L232.757 107.431H229.483C228.794 107.431 228.208 107.526 227.725 107.717C227.256 107.907 226.875 108.171 226.583 108.508C226.304 108.83 226.099 109.196 225.967 109.606C225.85 110.017 225.792 110.449 225.792 110.903C225.792 111.342 225.894 111.738 226.099 112.089C226.319 112.426 226.612 112.69 226.978 112.88C227.344 113.071 227.754 113.166 228.208 113.166C229.029 113.166 229.725 113.012 230.296 112.705C230.882 112.382 231.329 111.994 231.636 111.54C231.944 111.086 232.098 110.661 232.098 110.266L233.724 113.298C233.431 113.884 233.094 114.477 232.713 115.078C232.347 115.678 231.885 116.235 231.329 116.748C230.787 117.246 230.12 117.656 229.329 117.978C228.538 118.286 227.579 118.439 226.451 118.439C224.986 118.439 223.638 118.139 222.408 117.539C221.192 116.938 220.218 116.103 219.485 115.034C218.753 113.95 218.387 112.705 218.387 111.298C218.387 110.068 218.606 108.969 219.046 108.002C219.5 107.036 220.181 106.215 221.089 105.542C221.998 104.868 223.155 104.355 224.561 104.003C225.967 103.652 227.623 103.476 229.527 103.476H232.713ZM250.84 99.2573V118H243.436V94.2256H250.379L250.84 99.2573ZM249.939 105.3L248.248 105.344C248.248 103.674 248.445 102.136 248.841 100.729C249.236 99.3232 249.822 98.1001 250.599 97.0601C251.375 96.02 252.327 95.2144 253.455 94.6431C254.598 94.0718 255.916 93.7861 257.41 93.7861C258.45 93.7861 259.395 93.9473 260.245 94.2695C261.094 94.5771 261.827 95.0679 262.442 95.7417C263.057 96.4009 263.526 97.2651 263.848 98.3345C264.185 99.3892 264.354 100.656 264.354 102.136V118H256.949V103.081C256.949 102.07 256.832 101.308 256.597 100.795C256.377 100.283 256.055 99.9385 255.63 99.7627C255.206 99.5869 254.686 99.499 254.07 99.499C253.426 99.499 252.847 99.6455 252.334 99.9385C251.822 100.231 251.382 100.642 251.016 101.169C250.665 101.682 250.394 102.29 250.203 102.993C250.027 103.696 249.939 104.465 249.939 105.3ZM263.519 105.3L261.453 105.344C261.453 103.674 261.636 102.136 262.002 100.729C262.383 99.3232 262.947 98.1001 263.694 97.0601C264.456 96.02 265.401 95.2144 266.529 94.6431C267.657 94.0718 268.968 93.7861 270.462 93.7861C271.546 93.7861 272.542 93.9473 273.45 94.2695C274.358 94.5918 275.142 95.1118 275.801 95.8296C276.46 96.5474 276.973 97.4995 277.339 98.686C277.706 99.8579 277.889 101.308 277.889 103.037V118H270.462V103.037C270.462 102.055 270.345 101.315 270.11 100.817C269.891 100.305 269.568 99.9604 269.144 99.7847C268.719 99.5942 268.213 99.499 267.627 99.499C266.924 99.499 266.316 99.6455 265.804 99.9385C265.291 100.231 264.859 100.642 264.507 101.169C264.17 101.682 263.921 102.29 263.76 102.993C263.599 103.696 263.519 104.465 263.519 105.3ZM293.643 118.439C291.709 118.439 289.981 118.139 288.458 117.539C286.934 116.923 285.645 116.081 284.59 115.012C283.55 113.942 282.752 112.712 282.195 111.32C281.653 109.929 281.382 108.457 281.382 106.904V106.069C281.382 104.326 281.624 102.714 282.107 101.235C282.591 99.7407 283.309 98.437 284.261 97.3237C285.213 96.2104 286.407 95.3462 287.842 94.731C289.278 94.1011 290.948 93.7861 292.852 93.7861C294.537 93.7861 296.045 94.0571 297.378 94.5991C298.711 95.1411 299.839 95.9175 300.762 96.9282C301.7 97.939 302.41 99.1621 302.894 100.598C303.392 102.033 303.641 103.645 303.641 105.432V108.442H284.217V103.806H296.412V103.234C296.426 102.443 296.287 101.77 295.994 101.213C295.716 100.656 295.306 100.231 294.764 99.9385C294.222 99.6455 293.562 99.499 292.786 99.499C291.98 99.499 291.314 99.6748 290.787 100.026C290.274 100.378 289.871 100.861 289.578 101.477C289.3 102.077 289.102 102.773 288.985 103.564C288.868 104.355 288.809 105.19 288.809 106.069V106.904C288.809 107.783 288.926 108.581 289.161 109.299C289.41 110.017 289.761 110.632 290.215 111.145C290.684 111.643 291.241 112.031 291.885 112.309C292.544 112.587 293.292 112.727 294.126 112.727C295.137 112.727 296.133 112.536 297.115 112.155C298.096 111.774 298.938 111.145 299.642 110.266L303.003 114.265C302.52 114.953 301.832 115.62 300.938 116.264C300.059 116.909 299.004 117.436 297.774 117.846C296.543 118.242 295.167 118.439 293.643 118.439ZM319.109 111.32C319.109 110.91 318.97 110.559 318.692 110.266C318.428 109.958 317.959 109.68 317.286 109.431C316.612 109.167 315.667 108.903 314.451 108.64C313.294 108.391 312.203 108.061 311.177 107.651C310.167 107.241 309.28 106.743 308.519 106.157C307.757 105.571 307.156 104.875 306.717 104.069C306.292 103.264 306.08 102.341 306.08 101.301C306.08 100.29 306.292 99.3379 306.717 98.4443C307.156 97.5361 307.793 96.7378 308.628 96.0493C309.478 95.3462 310.511 94.7969 311.727 94.4014C312.942 93.9912 314.327 93.7861 315.879 93.7861C318.018 93.7861 319.864 94.1157 321.417 94.7749C322.969 95.4194 324.163 96.3276 324.998 97.4995C325.848 98.6567 326.272 99.9971 326.272 101.521H318.868C318.868 100.92 318.765 100.407 318.56 99.9824C318.37 99.5576 318.055 99.2354 317.615 99.0156C317.176 98.7812 316.59 98.6641 315.857 98.6641C315.345 98.6641 314.876 98.7593 314.451 98.9497C314.041 99.1401 313.711 99.4038 313.462 99.7407C313.213 100.078 313.089 100.473 313.089 100.927C313.089 101.25 313.162 101.542 313.309 101.806C313.47 102.055 313.711 102.29 314.034 102.509C314.356 102.714 314.766 102.905 315.264 103.081C315.762 103.242 316.363 103.388 317.066 103.52C318.663 103.813 320.157 104.23 321.548 104.772C322.94 105.314 324.068 106.083 324.932 107.08C325.811 108.076 326.25 109.416 326.25 111.101C326.25 112.155 326.009 113.129 325.525 114.023C325.042 114.902 324.346 115.678 323.438 116.352C322.53 117.011 321.438 117.524 320.164 117.89C318.89 118.256 317.454 118.439 315.857 118.439C313.587 118.439 311.668 118.037 310.101 117.231C308.533 116.411 307.347 115.385 306.541 114.155C305.75 112.91 305.354 111.65 305.354 110.375H312.254C312.283 111.108 312.459 111.708 312.781 112.177C313.118 112.646 313.565 112.99 314.122 113.21C314.678 113.43 315.323 113.54 316.055 113.54C316.729 113.54 317.286 113.444 317.725 113.254C318.179 113.063 318.523 112.807 318.758 112.485C318.992 112.148 319.109 111.76 319.109 111.32Z" fill="#424241"/>
<path d="M1363 15C1363 6.71573 1356.28 0 1348 0H1134V167H1348C1356.28 167 1363 160.284 1363 152V15Z" fill="#0F5F53"/>
<path fill-rule="evenodd" clip-rule="evenodd" d="M1203 49C1203 47.8954 1203.9 47 1205 47H1292.5C1293.6 47 1294.5 47.8954 1294.5 49V118.996C1294.5 120.101 1293.6 120.996 1292.5 120.996H1205C1203.9 120.996 1203 120.101 1203 118.996V49ZM1207 51V55.4945H1290.5V51H1207ZM1290.5 59.4945H1235.44V116.996H1290.5V59.4945ZM1231.44 116.996V59.4945H1207V116.996H1231.44Z" fill="#F0F0F0"/>
<path fill-rule="evenodd" clip-rule="evenodd" d="M1209.97 64.8004C1209.97 63.6958 1210.87 62.8004 1211.97 62.8004H1225.97C1227.08 62.8004 1227.97 63.6958 1227.97 64.8004V84.1956C1227.97 85.3001 1227.08 86.1956 1225.97 86.1956H1211.97C1210.87 86.1956 1209.97 85.3001 1209.97 84.1956V64.8004ZM1213.97 66.8004V82.1956H1223.97V66.8004H1213.97ZM1239.58 65.6964C1239.58 64.5918 1240.47 63.6964 1241.58 63.6964H1284.5C1285.61 63.6964 1286.5 64.5918 1286.5 65.6964V111.905C1286.5 113.01 1285.61 113.905 1284.5 113.905H1241.58C1240.47 113.905 1239.58 113.01 1239.58 111.905V65.6964ZM1243.58 67.6964V109.905H1282.5V67.6964H1243.58ZM1209.81 95.9363C1209.81 94.8317 1210.71 93.9363 1211.81 93.9363H1220.73C1221.84 93.9363 1222.73 94.8317 1222.73 95.9363C1222.73 97.0409 1221.84 97.9363 1220.73 97.9363H1211.81C1210.71 97.9363 1209.81 97.0409 1209.81 95.9363ZM1209.81 102.936C1209.81 101.832 1210.71 100.936 1211.81 100.936H1226.35C1227.46 100.936 1228.35 101.832 1228.35 102.936C1228.35 104.041 1227.46 104.936 1226.35 104.936H1211.81C1210.71 104.936 1209.81 104.041 1209.81 102.936ZM1209.81 109.936C1209.81 108.832 1210.71 107.936 1211.81 107.936H1220.73C1221.84 107.936 1222.73 108.832 1222.73 109.936C1222.73 111.041 1221.84 111.936 1220.73 111.936H1211.81C1210.71 111.936 1209.81 111.041 1209.81 109.936Z" fill="#F0F0F0"/>
</svg>
