<svg width="1363" height="167" viewBox="0 0 1363 167" fill="none" xmlns="http://www.w3.org/2000/svg">
<rect width="1363" height="167" rx="15" fill="#F0F0F0"/>
<path d="M0 15C0 6.71573 6.71573 0 15 0H37V167H15C6.71573 167 0 160.284 0 152V15Z" fill="#424241"/>
<path d="M100.906 50.9219L93.3945 48.2383V45.0859L103.602 49.375V51.6367L100.906 50.9219ZM93.3945 53.1719L100.918 50.4297L103.602 49.7852V52.0352L93.3945 56.3242V53.1719ZM115.309 54.7188L117.945 45.3203H120.09L119.398 49.0117L116.762 58H114.969L115.309 54.7188ZM113.973 45.3203L115.859 54.707L116.035 58H113.926L110.715 45.3203H113.973ZM122.504 54.5547L124.344 45.3203H127.613L124.402 58H122.305L122.504 54.5547ZM120.383 45.3203L123.008 54.6484L123.371 58H121.566L118.93 49.0234L118.262 45.3203H120.383ZM136.156 55.1406V49.4922C136.156 49.0859 136.09 48.7383 135.957 48.4492C135.824 48.1523 135.617 47.9219 135.336 47.7578C135.062 47.5938 134.707 47.5117 134.27 47.5117C133.895 47.5117 133.57 47.5781 133.297 47.7109C133.023 47.8359 132.812 48.0195 132.664 48.2617C132.516 48.4961 132.441 48.7734 132.441 49.0938H129.066C129.066 48.5547 129.191 48.043 129.441 47.5586C129.691 47.0742 130.055 46.6484 130.531 46.2812C131.008 45.9062 131.574 45.6133 132.23 45.4023C132.895 45.1914 133.637 45.0859 134.457 45.0859C135.441 45.0859 136.316 45.25 137.082 45.5781C137.848 45.9062 138.449 46.3984 138.887 47.0547C139.332 47.7109 139.555 48.5312 139.555 49.5156V54.9414C139.555 55.6367 139.598 56.207 139.684 56.6523C139.77 57.0898 139.895 57.4727 140.059 57.8008V58H136.648C136.484 57.6562 136.359 57.2266 136.273 56.7109C136.195 56.1875 136.156 55.6641 136.156 55.1406ZM136.602 50.2773L136.625 52.1875H134.738C134.293 52.1875 133.906 52.2383 133.578 52.3398C133.25 52.4414 132.98 52.5859 132.77 52.7734C132.559 52.9531 132.402 53.1641 132.301 53.4062C132.207 53.6484 132.16 53.9141 132.16 54.2031C132.16 54.4922 132.227 54.7539 132.359 54.9883C132.492 55.2148 132.684 55.3945 132.934 55.5273C133.184 55.6523 133.477 55.7148 133.812 55.7148C134.32 55.7148 134.762 55.6133 135.137 55.4102C135.512 55.207 135.801 54.957 136.004 54.6602C136.215 54.3633 136.324 54.082 136.332 53.8164L137.223 55.2461C137.098 55.5664 136.926 55.8984 136.707 56.2422C136.496 56.5859 136.227 56.9102 135.898 57.2148C135.57 57.5117 135.176 57.7578 134.715 57.9531C134.254 58.1406 133.707 58.2344 133.074 58.2344C132.27 58.2344 131.539 58.0742 130.883 57.7539C130.234 57.4258 129.719 56.9766 129.336 56.4062C128.961 55.8281 128.773 55.1719 128.773 54.4375C128.773 53.7734 128.898 53.1836 129.148 52.668C129.398 52.1523 129.766 51.7188 130.25 51.3672C130.742 51.0078 131.355 50.7383 132.09 50.5586C132.824 50.3711 133.676 50.2773 134.645 50.2773H136.602ZM151.637 55.4688L156.254 59.125L154.039 61.0469L149.492 57.3906L151.637 55.4688ZM156.371 49.0703V49.8789C156.371 51.1758 156.195 52.3398 155.844 53.3711C155.5 54.4023 155.004 55.2812 154.355 56.0078C153.707 56.7266 152.941 57.2773 152.059 57.6602C151.176 58.043 150.195 58.2344 149.117 58.2344C148.047 58.2344 147.066 58.043 146.176 57.6602C145.285 57.2773 144.516 56.7266 143.867 56.0078C143.219 55.2812 142.715 54.4023 142.355 53.3711C142.004 52.3398 141.828 51.1758 141.828 49.8789V49.0703C141.828 47.7656 142.004 46.6016 142.355 45.5781C142.715 44.5469 143.215 43.668 143.855 42.9414C144.496 42.2148 145.262 41.6602 146.152 41.2773C147.043 40.8945 148.023 40.7031 149.094 40.7031C150.172 40.7031 151.152 40.8945 152.035 41.2773C152.926 41.6602 153.695 42.2148 154.344 42.9414C154.992 43.668 155.492 44.5469 155.844 45.5781C156.195 46.6016 156.371 47.7656 156.371 49.0703ZM152.82 49.8789V49.0469C152.82 48.1406 152.734 47.3438 152.562 46.6562C152.398 45.9688 152.156 45.3906 151.836 44.9219C151.523 44.4531 151.137 44.1016 150.676 43.8672C150.215 43.625 149.688 43.5039 149.094 43.5039C148.5 43.5039 147.973 43.625 147.512 43.8672C147.051 44.1016 146.664 44.4531 146.352 44.9219C146.039 45.3906 145.801 45.9688 145.637 46.6562C145.473 47.3438 145.391 48.1406 145.391 49.0469V49.8789C145.391 50.7773 145.473 51.5742 145.637 52.2695C145.801 52.957 146.039 53.5391 146.352 54.0156C146.672 54.4844 147.062 54.8398 147.523 55.082C147.992 55.3242 148.523 55.4453 149.117 55.4453C149.711 55.4453 150.234 55.3242 150.688 55.082C151.148 54.8398 151.535 54.4844 151.848 54.0156C152.168 53.5391 152.41 52.957 152.574 52.2695C152.738 51.5742 152.82 50.7773 152.82 49.8789ZM158.164 51.7891V51.543C158.164 50.6133 158.297 49.7578 158.562 48.9766C158.828 48.1875 159.215 47.5039 159.723 46.9258C160.23 46.3477 160.855 45.8984 161.598 45.5781C162.34 45.25 163.191 45.0859 164.152 45.0859C165.113 45.0859 165.969 45.25 166.719 45.5781C167.469 45.8984 168.098 46.3477 168.605 46.9258C169.121 47.5039 169.512 48.1875 169.777 48.9766C170.043 49.7578 170.176 50.6133 170.176 51.543V51.7891C170.176 52.7109 170.043 53.5664 169.777 54.3555C169.512 55.1367 169.121 55.8203 168.605 56.4062C168.098 56.9844 167.473 57.4336 166.73 57.7539C165.988 58.0742 165.137 58.2344 164.176 58.2344C163.215 58.2344 162.359 58.0742 161.609 57.7539C160.867 57.4336 160.238 56.9844 159.723 56.4062C159.215 55.8203 158.828 55.1367 158.562 54.3555C158.297 53.5664 158.164 52.7109 158.164 51.7891ZM161.539 51.543V51.7891C161.539 52.3203 161.586 52.8164 161.68 53.2773C161.773 53.7383 161.922 54.1445 162.125 54.4961C162.336 54.8398 162.609 55.1094 162.945 55.3047C163.281 55.5 163.691 55.5977 164.176 55.5977C164.645 55.5977 165.047 55.5 165.383 55.3047C165.719 55.1094 165.988 54.8398 166.191 54.4961C166.395 54.1445 166.543 53.7383 166.637 53.2773C166.738 52.8164 166.789 52.3203 166.789 51.7891V51.543C166.789 51.0273 166.738 50.543 166.637 50.0898C166.543 49.6289 166.391 49.2227 166.18 48.8711C165.977 48.5117 165.707 48.2305 165.371 48.0273C165.035 47.8242 164.629 47.7227 164.152 47.7227C163.676 47.7227 163.27 47.8242 162.934 48.0273C162.605 48.2305 162.336 48.5117 162.125 48.8711C161.922 49.2227 161.773 49.6289 161.68 50.0898C161.586 50.543 161.539 51.0273 161.539 51.543ZM179.75 54.9648V45.3203H183.125V58H179.949L179.75 54.9648ZM180.125 52.3633L181.121 52.3398C181.121 53.1836 181.023 53.9688 180.828 54.6953C180.633 55.4141 180.34 56.0391 179.949 56.5703C179.559 57.0938 179.066 57.5039 178.473 57.8008C177.879 58.0898 177.18 58.2344 176.375 58.2344C175.758 58.2344 175.188 58.1484 174.664 57.9766C174.148 57.7969 173.703 57.5195 173.328 57.1445C172.961 56.7617 172.672 56.2734 172.461 55.6797C172.258 55.0781 172.156 54.3555 172.156 53.5117V45.3203H175.531V53.5352C175.531 53.9102 175.574 54.2266 175.66 54.4844C175.754 54.7422 175.883 54.9531 176.047 55.1172C176.211 55.2812 176.402 55.3984 176.621 55.4688C176.848 55.5391 177.098 55.5742 177.371 55.5742C178.066 55.5742 178.613 55.4336 179.012 55.1523C179.418 54.8711 179.703 54.4883 179.867 54.0039C180.039 53.5117 180.125 52.9648 180.125 52.3633ZM193.191 55.2344V40H196.59V58H193.531L193.191 55.2344ZM185.176 51.8125V51.5664C185.176 50.5977 185.285 49.7188 185.504 48.9297C185.723 48.1328 186.043 47.4492 186.465 46.8789C186.887 46.3086 187.406 45.8672 188.023 45.5547C188.641 45.2422 189.344 45.0859 190.133 45.0859C190.875 45.0859 191.523 45.2422 192.078 45.5547C192.641 45.8672 193.117 46.3125 193.508 46.8906C193.906 47.4609 194.227 48.1367 194.469 48.918C194.711 49.6914 194.887 50.5391 194.996 51.4609V52C194.887 52.8828 194.711 53.7031 194.469 54.4609C194.227 55.2188 193.906 55.8828 193.508 56.4531C193.117 57.0156 192.641 57.4531 192.078 57.7656C191.516 58.0781 190.859 58.2344 190.109 58.2344C189.32 58.2344 188.617 58.0742 188 57.7539C187.391 57.4336 186.875 56.9844 186.453 56.4062C186.039 55.8281 185.723 55.1484 185.504 54.3672C185.285 53.5859 185.176 52.7344 185.176 51.8125ZM188.551 51.5664V51.8125C188.551 52.3359 188.59 52.8242 188.668 53.2773C188.754 53.7305 188.891 54.1328 189.078 54.4844C189.273 54.8281 189.523 55.0977 189.828 55.293C190.141 55.4805 190.52 55.5742 190.965 55.5742C191.543 55.5742 192.02 55.4453 192.395 55.1875C192.77 54.9219 193.055 54.5586 193.25 54.0977C193.453 53.6367 193.57 53.1055 193.602 52.5039V50.9688C193.578 50.4766 193.508 50.0352 193.391 49.6445C193.281 49.2461 193.117 48.9062 192.898 48.625C192.688 48.3438 192.422 48.125 192.102 47.9688C191.789 47.8125 191.418 47.7344 190.988 47.7344C190.551 47.7344 190.176 47.8359 189.863 48.0391C189.551 48.2344 189.297 48.5039 189.102 48.8477C188.914 49.1914 188.773 49.5977 188.68 50.0664C188.594 50.5273 188.551 51.0273 188.551 51.5664Z" fill="#888888"/>
<path d="M107.205 107.146H99.251V101.191H107.205C108.289 101.191 109.168 101.008 109.842 100.642C110.516 100.275 111.006 99.77 111.314 99.1255C111.636 98.4663 111.797 97.7266 111.797 96.9062C111.797 96.0273 111.636 95.2144 111.314 94.4673C111.006 93.7202 110.516 93.1196 109.842 92.6655C109.168 92.1968 108.289 91.9624 107.205 91.9624H102.151V118H94.439V86.0078H107.205C109.769 86.0078 111.973 86.4766 113.819 87.4141C115.679 88.3516 117.107 89.6406 118.104 91.2812C119.1 92.9072 119.598 94.7676 119.598 96.8623C119.598 98.9277 119.1 100.729 118.104 102.268C117.107 103.806 115.679 105.007 113.819 105.871C111.973 106.721 109.769 107.146 107.205 107.146ZM130.87 100.114V118H123.465V94.2256H130.386L130.87 100.114ZM137.901 94.0498L137.769 100.927C137.476 100.898 137.081 100.861 136.583 100.817C136.084 100.773 135.667 100.751 135.33 100.751C134.466 100.751 133.719 100.854 133.089 101.059C132.474 101.25 131.961 101.542 131.551 101.938C131.155 102.319 130.862 102.802 130.672 103.388C130.496 103.974 130.416 104.655 130.43 105.432L129.09 104.553C129.09 102.956 129.244 101.506 129.551 100.202C129.874 98.8838 130.328 97.7485 130.914 96.7964C131.5 95.8296 132.21 95.0898 133.045 94.5771C133.88 94.0498 134.817 93.7861 135.857 93.7861C136.224 93.7861 136.583 93.8081 136.934 93.8521C137.3 93.896 137.623 93.9619 137.901 94.0498ZM138.736 106.354V105.893C138.736 104.15 138.985 102.546 139.483 101.081C139.981 99.6016 140.713 98.3198 141.68 97.2358C142.647 96.1519 143.841 95.3096 145.262 94.709C146.683 94.0938 148.323 93.7861 150.184 93.7861C152.059 93.7861 153.707 94.0938 155.127 94.709C156.563 95.3096 157.764 96.1519 158.731 97.2358C159.698 98.3198 160.43 99.6016 160.928 101.081C161.426 102.546 161.675 104.15 161.675 105.893V106.354C161.675 108.083 161.426 109.687 160.928 111.167C160.43 112.631 159.698 113.913 158.731 115.012C157.764 116.096 156.57 116.938 155.149 117.539C153.729 118.139 152.088 118.439 150.228 118.439C148.367 118.439 146.719 118.139 145.284 117.539C143.848 116.938 142.647 116.096 141.68 115.012C140.713 113.913 139.981 112.631 139.483 111.167C138.985 109.687 138.736 108.083 138.736 106.354ZM146.141 105.893V106.354C146.141 107.248 146.207 108.083 146.338 108.859C146.47 109.636 146.69 110.317 146.998 110.903C147.305 111.474 147.723 111.921 148.25 112.243C148.777 112.565 149.437 112.727 150.228 112.727C151.004 112.727 151.648 112.565 152.161 112.243C152.688 111.921 153.106 111.474 153.414 110.903C153.721 110.317 153.941 109.636 154.073 108.859C154.205 108.083 154.271 107.248 154.271 106.354V105.893C154.271 105.029 154.205 104.216 154.073 103.454C153.941 102.678 153.721 101.997 153.414 101.411C153.106 100.81 152.688 100.341 152.161 100.004C151.634 99.6675 150.975 99.499 150.184 99.499C149.407 99.499 148.755 99.6675 148.228 100.004C147.715 100.341 147.305 100.81 146.998 101.411C146.69 101.997 146.47 102.678 146.338 103.454C146.207 104.216 146.141 105.029 146.141 105.893ZM165.521 94.2256H172.947V118.769C172.947 120.673 172.581 122.277 171.849 123.581C171.116 124.899 170.069 125.896 168.707 126.569C167.344 127.258 165.718 127.602 163.829 127.602C163.199 127.602 162.62 127.573 162.093 127.514C161.551 127.47 160.958 127.375 160.313 127.229V121.625C160.694 121.684 161.045 121.728 161.368 121.757C161.69 121.801 162.042 121.823 162.422 121.823C163.096 121.823 163.66 121.713 164.114 121.494C164.568 121.274 164.913 120.937 165.147 120.483C165.396 120.029 165.521 119.458 165.521 118.769V94.2256ZM164.971 88.0952C164.971 87.0405 165.352 86.1763 166.114 85.5024C166.875 84.8286 167.864 84.4917 169.08 84.4917C170.296 84.4917 171.285 84.8286 172.046 85.5024C172.808 86.1763 173.189 87.0405 173.189 88.0952C173.189 89.1499 172.808 90.0142 172.046 90.688C171.285 91.3618 170.296 91.6987 169.08 91.6987C167.864 91.6987 166.875 91.3618 166.114 90.688C165.352 90.0142 164.971 89.1499 164.971 88.0952ZM188.658 118.439C186.724 118.439 184.996 118.139 183.472 117.539C181.949 116.923 180.66 116.081 179.605 115.012C178.565 113.942 177.767 112.712 177.21 111.32C176.668 109.929 176.397 108.457 176.397 106.904V106.069C176.397 104.326 176.639 102.714 177.122 101.235C177.605 99.7407 178.323 98.437 179.275 97.3237C180.228 96.2104 181.421 95.3462 182.857 94.731C184.292 94.1011 185.962 93.7861 187.867 93.7861C189.551 93.7861 191.06 94.0571 192.393 94.5991C193.726 95.1411 194.854 95.9175 195.777 96.9282C196.714 97.939 197.425 99.1621 197.908 100.598C198.406 102.033 198.655 103.645 198.655 105.432V108.442H179.231V103.806H191.426V103.234C191.441 102.443 191.302 101.77 191.009 101.213C190.73 100.656 190.32 100.231 189.778 99.9385C189.236 99.6455 188.577 99.499 187.801 99.499C186.995 99.499 186.329 99.6748 185.801 100.026C185.289 100.378 184.886 100.861 184.593 101.477C184.314 102.077 184.117 102.773 184 103.564C183.882 104.355 183.824 105.19 183.824 106.069V106.904C183.824 107.783 183.941 108.581 184.175 109.299C184.424 110.017 184.776 110.632 185.23 111.145C185.699 111.643 186.255 112.031 186.9 112.309C187.559 112.587 188.306 112.727 189.141 112.727C190.152 112.727 191.148 112.536 192.129 112.155C193.111 111.774 193.953 111.145 194.656 110.266L198.018 114.265C197.535 114.953 196.846 115.62 195.953 116.264C195.074 116.909 194.019 117.436 192.789 117.846C191.558 118.242 190.181 118.439 188.658 118.439ZM211.707 112.727C212.396 112.727 212.981 112.602 213.465 112.353C213.963 112.089 214.336 111.723 214.585 111.254C214.849 110.771 214.974 110.192 214.959 109.519H221.924C221.939 111.306 221.5 112.873 220.606 114.221C219.727 115.554 218.526 116.594 217.002 117.341C215.494 118.073 213.787 118.439 211.883 118.439C210.022 118.439 208.396 118.139 207.005 117.539C205.613 116.923 204.449 116.074 203.511 114.99C202.588 113.891 201.893 112.609 201.424 111.145C200.97 109.68 200.743 108.09 200.743 106.376V105.871C200.743 104.157 200.97 102.568 201.424 101.103C201.893 99.6235 202.588 98.3418 203.511 97.2578C204.449 96.1592 205.606 95.3096 206.983 94.709C208.375 94.0938 209.993 93.7861 211.839 93.7861C213.816 93.7861 215.56 94.1597 217.068 94.9067C218.592 95.6538 219.786 96.7378 220.65 98.1587C221.514 99.5796 221.939 101.301 221.924 103.322H214.959C214.974 102.604 214.864 101.96 214.629 101.389C214.395 100.817 214.029 100.363 213.531 100.026C213.047 99.6748 212.425 99.499 211.663 99.499C210.901 99.499 210.286 99.6675 209.817 100.004C209.349 100.341 208.99 100.81 208.741 101.411C208.506 101.997 208.345 102.67 208.257 103.432C208.184 104.194 208.147 105.007 208.147 105.871V106.376C208.147 107.255 208.184 108.083 208.257 108.859C208.345 109.621 208.514 110.295 208.763 110.881C209.012 111.452 209.371 111.906 209.839 112.243C210.308 112.565 210.931 112.727 211.707 112.727ZM237.613 94.2256V99.3672H223.287V94.2256H237.613ZM226.297 88.3149H233.702V110.244C233.702 110.874 233.775 111.364 233.921 111.716C234.068 112.053 234.317 112.294 234.668 112.441C235.035 112.573 235.518 112.639 236.119 112.639C236.543 112.639 236.895 112.631 237.173 112.617C237.452 112.587 237.715 112.551 237.964 112.507V117.802C237.334 118.007 236.675 118.161 235.987 118.264C235.298 118.381 234.566 118.439 233.79 118.439C232.208 118.439 230.853 118.19 229.725 117.692C228.611 117.194 227.762 116.411 227.176 115.341C226.59 114.272 226.297 112.88 226.297 111.167V88.3149ZM264.881 107.146H256.927V101.191H264.881C265.965 101.191 266.844 101.008 267.518 100.642C268.191 100.275 268.682 99.77 268.99 99.1255C269.312 98.4663 269.473 97.7266 269.473 96.9062C269.473 96.0273 269.312 95.2144 268.99 94.4673C268.682 93.7202 268.191 93.1196 267.518 92.6655C266.844 92.1968 265.965 91.9624 264.881 91.9624H259.827V118H252.115V86.0078H264.881C267.444 86.0078 269.649 86.4766 271.495 87.4141C273.355 88.3516 274.783 89.6406 275.779 91.2812C276.775 92.9072 277.273 94.7676 277.273 96.8623C277.273 98.9277 276.775 100.729 275.779 102.268C274.783 103.806 273.355 105.007 271.495 105.871C269.649 106.721 267.444 107.146 264.881 107.146ZM288.326 84.25V118H280.921V84.25H288.326ZM287.447 105.3L285.711 105.344C285.711 103.674 285.916 102.136 286.326 100.729C286.736 99.3232 287.322 98.1001 288.084 97.0601C288.846 96.02 289.761 95.2144 290.831 94.6431C291.9 94.0718 293.086 93.7861 294.39 93.7861C295.562 93.7861 296.631 93.9546 297.598 94.2915C298.58 94.6284 299.422 95.1704 300.125 95.9175C300.843 96.6646 301.392 97.6387 301.773 98.8398C302.168 100.041 302.366 101.506 302.366 103.234V118H294.917V103.19C294.917 102.224 294.778 101.477 294.5 100.949C294.236 100.407 293.855 100.034 293.357 99.8286C292.859 99.6089 292.251 99.499 291.534 99.499C290.669 99.499 289.966 99.6455 289.424 99.9385C288.882 100.231 288.465 100.642 288.172 101.169C287.894 101.682 287.703 102.29 287.601 102.993C287.498 103.696 287.447 104.465 287.447 105.3ZM314.297 94.2256V118H306.871V94.2256H314.297ZM306.431 88.0952C306.431 87.0405 306.812 86.1763 307.574 85.5024C308.335 84.8286 309.324 84.4917 310.54 84.4917C311.756 84.4917 312.745 84.8286 313.506 85.5024C314.268 86.1763 314.649 87.0405 314.649 88.0952C314.649 89.1499 314.268 90.0142 313.506 90.688C312.745 91.3618 311.756 91.6987 310.54 91.6987C309.324 91.6987 308.335 91.3618 307.574 90.688C306.812 90.0142 306.431 89.1499 306.431 88.0952ZM326.69 84.25V118H319.263V84.25H326.69ZM330.337 106.354V105.893C330.337 104.15 330.586 102.546 331.084 101.081C331.583 99.6016 332.315 98.3198 333.282 97.2358C334.249 96.1519 335.442 95.3096 336.863 94.709C338.284 94.0938 339.925 93.7861 341.785 93.7861C343.66 93.7861 345.308 94.0938 346.729 94.709C348.165 95.3096 349.366 96.1519 350.333 97.2358C351.299 98.3198 352.032 99.6016 352.53 101.081C353.028 102.546 353.277 104.15 353.277 105.893V106.354C353.277 108.083 353.028 109.687 352.53 111.167C352.032 112.631 351.299 113.913 350.333 115.012C349.366 116.096 348.172 116.938 346.751 117.539C345.33 118.139 343.689 118.439 341.829 118.439C339.969 118.439 338.321 118.139 336.885 117.539C335.45 116.938 334.249 116.096 333.282 115.012C332.315 113.913 331.583 112.631 331.084 111.167C330.586 109.687 330.337 108.083 330.337 106.354ZM337.742 105.893V106.354C337.742 107.248 337.808 108.083 337.94 108.859C338.072 109.636 338.292 110.317 338.599 110.903C338.907 111.474 339.324 111.921 339.852 112.243C340.379 112.565 341.038 112.727 341.829 112.727C342.605 112.727 343.25 112.565 343.763 112.243C344.29 111.921 344.708 111.474 345.015 110.903C345.323 110.317 345.542 109.636 345.674 108.859C345.806 108.083 345.872 107.248 345.872 106.354V105.893C345.872 105.029 345.806 104.216 345.674 103.454C345.542 102.678 345.323 101.997 345.015 101.411C344.708 100.81 344.29 100.341 343.763 100.004C343.235 99.6675 342.576 99.499 341.785 99.499C341.009 99.499 340.357 99.6675 339.83 100.004C339.317 100.341 338.907 100.81 338.599 101.411C338.292 101.997 338.072 102.678 337.94 103.454C337.808 104.216 337.742 105.029 337.742 105.893ZM369.031 111.32C369.031 110.91 368.892 110.559 368.614 110.266C368.35 109.958 367.881 109.68 367.208 109.431C366.534 109.167 365.589 108.903 364.373 108.64C363.216 108.391 362.125 108.061 361.099 107.651C360.088 107.241 359.202 106.743 358.44 106.157C357.679 105.571 357.078 104.875 356.639 104.069C356.214 103.264 356.001 102.341 356.001 101.301C356.001 100.29 356.214 99.3379 356.639 98.4443C357.078 97.5361 357.715 96.7378 358.55 96.0493C359.4 95.3462 360.433 94.7969 361.648 94.4014C362.864 93.9912 364.249 93.7861 365.801 93.7861C367.94 93.7861 369.786 94.1157 371.338 94.7749C372.891 95.4194 374.085 96.3276 374.92 97.4995C375.77 98.6567 376.194 99.9971 376.194 101.521H368.79C368.79 100.92 368.687 100.407 368.482 99.9824C368.292 99.5576 367.977 99.2354 367.537 99.0156C367.098 98.7812 366.512 98.6641 365.779 98.6641C365.267 98.6641 364.798 98.7593 364.373 98.9497C363.963 99.1401 363.633 99.4038 363.384 99.7407C363.135 100.078 363.011 100.473 363.011 100.927C363.011 101.25 363.084 101.542 363.23 101.806C363.392 102.055 363.633 102.29 363.956 102.509C364.278 102.714 364.688 102.905 365.186 103.081C365.684 103.242 366.285 103.388 366.988 103.52C368.584 103.813 370.079 104.23 371.47 104.772C372.862 105.314 373.99 106.083 374.854 107.08C375.733 108.076 376.172 109.416 376.172 111.101C376.172 112.155 375.931 113.129 375.447 114.023C374.964 114.902 374.268 115.678 373.36 116.352C372.452 117.011 371.36 117.524 370.086 117.89C368.812 118.256 367.376 118.439 365.779 118.439C363.509 118.439 361.59 118.037 360.022 117.231C358.455 116.411 357.269 115.385 356.463 114.155C355.672 112.91 355.276 111.65 355.276 110.375H362.176C362.205 111.108 362.381 111.708 362.703 112.177C363.04 112.646 363.487 112.99 364.043 113.21C364.6 113.43 365.245 113.54 365.977 113.54C366.651 113.54 367.208 113.444 367.647 113.254C368.101 113.063 368.445 112.807 368.68 112.485C368.914 112.148 369.031 111.76 369.031 111.32ZM378.721 106.354V105.893C378.721 104.15 378.97 102.546 379.468 101.081C379.966 99.6016 380.699 98.3198 381.666 97.2358C382.632 96.1519 383.826 95.3096 385.247 94.709C386.668 94.0938 388.309 93.7861 390.169 93.7861C392.044 93.7861 393.692 94.0938 395.113 94.709C396.548 95.3096 397.75 96.1519 398.716 97.2358C399.683 98.3198 400.416 99.6016 400.914 101.081C401.412 102.546 401.661 104.15 401.661 105.893V106.354C401.661 108.083 401.412 109.687 400.914 111.167C400.416 112.631 399.683 113.913 398.716 115.012C397.75 116.096 396.556 116.938 395.135 117.539C393.714 118.139 392.073 118.439 390.213 118.439C388.353 118.439 386.705 118.139 385.269 117.539C383.833 116.938 382.632 116.096 381.666 115.012C380.699 113.913 379.966 112.631 379.468 111.167C378.97 109.687 378.721 108.083 378.721 106.354ZM386.126 105.893V106.354C386.126 107.248 386.192 108.083 386.324 108.859C386.456 109.636 386.675 110.317 386.983 110.903C387.291 111.474 387.708 111.921 388.235 112.243C388.763 112.565 389.422 112.727 390.213 112.727C390.989 112.727 391.634 112.565 392.146 112.243C392.674 111.921 393.091 111.474 393.399 110.903C393.707 110.317 393.926 109.636 394.058 108.859C394.19 108.083 394.256 107.248 394.256 106.354V105.893C394.256 105.029 394.19 104.216 394.058 103.454C393.926 102.678 393.707 101.997 393.399 101.411C393.091 100.81 392.674 100.341 392.146 100.004C391.619 99.6675 390.96 99.499 390.169 99.499C389.393 99.499 388.741 99.6675 388.213 100.004C387.701 100.341 387.291 100.81 386.983 101.411C386.675 101.997 386.456 102.678 386.324 103.454C386.192 104.216 386.126 105.029 386.126 105.893ZM412.427 98.7959V127.141H405.022V94.2256H411.922L412.427 98.7959ZM427.017 105.827V106.289C427.017 108.017 426.819 109.621 426.424 111.101C426.028 112.58 425.442 113.869 424.666 114.968C423.89 116.066 422.923 116.923 421.766 117.539C420.623 118.139 419.297 118.439 417.789 118.439C416.368 118.439 415.145 118.125 414.119 117.495C413.094 116.865 412.237 115.993 411.548 114.88C410.86 113.767 410.303 112.492 409.878 111.057C409.454 109.621 409.117 108.105 408.868 106.508V105.915C409.117 104.201 409.454 102.612 409.878 101.147C410.303 99.6675 410.86 98.3784 411.548 97.2798C412.237 96.1812 413.086 95.3242 414.097 94.709C415.123 94.0938 416.346 93.7861 417.767 93.7861C419.275 93.7861 420.601 94.0718 421.744 94.6431C422.901 95.2144 423.868 96.0347 424.644 97.104C425.435 98.1587 426.028 99.4258 426.424 100.905C426.819 102.385 427.017 104.025 427.017 105.827ZM419.612 106.289V105.827C419.612 104.904 419.546 104.062 419.415 103.3C419.283 102.524 419.07 101.85 418.777 101.279C418.499 100.708 418.125 100.268 417.657 99.9604C417.188 99.6528 416.609 99.499 415.921 99.499C415.13 99.499 414.463 99.6235 413.921 99.8726C413.394 100.107 412.969 100.473 412.647 100.971C412.339 101.455 412.12 102.062 411.988 102.795C411.871 103.513 411.819 104.355 411.834 105.322V107.124C411.805 108.237 411.915 109.218 412.164 110.068C412.413 110.903 412.845 111.555 413.46 112.023C414.075 112.492 414.91 112.727 415.965 112.727C416.668 112.727 417.254 112.565 417.723 112.243C418.191 111.906 418.565 111.445 418.843 110.859C419.122 110.258 419.319 109.57 419.437 108.793C419.554 108.017 419.612 107.182 419.612 106.289ZM437.564 84.25V118H430.159V84.25H437.564ZM436.685 105.3L434.949 105.344C434.949 103.674 435.154 102.136 435.564 100.729C435.975 99.3232 436.561 98.1001 437.322 97.0601C438.084 96.02 439 95.2144 440.069 94.6431C441.138 94.0718 442.325 93.7861 443.628 93.7861C444.8 93.7861 445.87 93.9546 446.836 94.2915C447.818 94.6284 448.66 95.1704 449.363 95.9175C450.081 96.6646 450.63 97.6387 451.011 98.8398C451.407 100.041 451.604 101.506 451.604 103.234V118H444.156V103.19C444.156 102.224 444.017 101.477 443.738 100.949C443.475 100.407 443.094 100.034 442.596 99.8286C442.098 99.6089 441.49 99.499 440.772 99.499C439.908 99.499 439.205 99.6455 438.663 99.9385C438.121 100.231 437.703 100.642 437.41 101.169C437.132 101.682 436.941 102.29 436.839 102.993C436.736 103.696 436.685 104.465 436.685 105.3ZM463.008 115.209L469.161 94.2256H477.115L467.557 121.538C467.352 122.138 467.081 122.783 466.744 123.471C466.407 124.174 465.945 124.841 465.359 125.471C464.773 126.101 464.019 126.613 463.096 127.009C462.188 127.404 461.06 127.602 459.712 127.602C458.995 127.602 458.467 127.565 458.13 127.492C457.808 127.434 457.31 127.324 456.636 127.163V121.867C456.827 121.867 456.988 121.867 457.12 121.867C457.266 121.867 457.427 121.867 457.603 121.867C458.394 121.867 459.024 121.787 459.493 121.625C459.976 121.464 460.342 121.23 460.591 120.922C460.855 120.615 461.06 120.241 461.207 119.802L463.008 115.209ZM461.448 94.2256L466.128 110.859L466.941 118.703H461.976L453.516 94.2256H461.448Z" fill="#424241"/>
<path d="M1363 15C1363 6.71573 1356.28 0 1348 0H1134V167H1348C1356.28 167 1363 160.284 1363 152V15Z" fill="#0F5F53"/>
<path d="M1234.26 106.286H1262.74V111.857H1234.26V106.286ZM1239.96 117.429H1257.04V123H1239.96V117.429ZM1248.5 45C1240.95 45 1233.71 47.9349 1228.37 53.1592C1223.03 58.3834 1220.03 65.469 1220.03 72.8571C1219.84 76.9057 1220.63 80.9412 1222.34 84.6315C1224.05 88.3219 1226.64 91.5616 1229.88 94.0843C1232.73 96.675 1234.26 98.1514 1234.26 100.714H1239.96C1239.96 95.5886 1236.8 92.7193 1233.72 89.9614C1231.06 87.9676 1228.94 85.3658 1227.55 82.3838C1226.15 79.4019 1225.53 76.1308 1225.72 72.8571C1225.72 66.9466 1228.12 61.2781 1232.39 57.0988C1236.67 52.9194 1242.46 50.5714 1248.5 50.5714C1254.54 50.5714 1260.33 52.9194 1264.61 57.0988C1268.88 61.2781 1271.28 66.9466 1271.28 72.8571C1271.47 76.1333 1270.84 79.4059 1269.44 82.388C1268.04 85.3701 1265.92 87.9706 1263.25 89.9614C1260.2 92.7471 1257.04 95.5329 1257.04 100.714H1262.74C1262.74 98.1514 1264.25 96.675 1267.12 94.0564C1270.36 91.5381 1272.94 88.3031 1274.66 84.6176C1276.37 80.9321 1277.16 76.9014 1276.97 72.8571C1276.97 69.1989 1276.24 65.5765 1274.81 62.1967C1273.37 58.8169 1271.28 55.7459 1268.63 53.1592C1265.99 50.5724 1262.85 48.5205 1259.4 47.1205C1255.94 45.7205 1252.24 45 1248.5 45Z" fill="white"/>
</svg>
