<svg width="1363" height="301" viewBox="0 0 1363 301" fill="none" xmlns="http://www.w3.org/2000/svg">
<rect width="1363" height="301" rx="15" fill="#F0F0F0"/>
<path d="M0 15C0 6.71573 6.71573 0 15 0H37V301H15C6.71573 301 0 294.284 0 286V15Z" fill="#0F5F53"/>
<path d="M117.083 135.353L122.454 114.942H128.121L126.106 125.174L120.789 144H116.25L117.083 135.353ZM114.961 114.942L118.292 135.191L118.667 144H113.162L106.287 114.942H114.961ZM132.901 134.762L136.258 114.942H144.932L138.111 144H132.605L132.901 134.762ZM128.765 114.942L134.19 135.299L135.022 144H130.43L125.22 125.228L123.287 114.942H128.765ZM163.301 136.695V124.718C163.301 123.894 163.185 123.187 162.952 122.596C162.719 122.005 162.352 121.549 161.851 121.227C161.35 120.886 160.678 120.716 159.837 120.716C159.157 120.716 158.575 120.833 158.091 121.065C157.608 121.298 157.241 121.647 156.99 122.113C156.74 122.578 156.614 123.169 156.614 123.885H147.564C147.564 122.542 147.859 121.298 148.45 120.152C149.059 118.989 149.918 117.977 151.028 117.118C152.156 116.258 153.499 115.596 155.057 115.13C156.632 114.647 158.387 114.405 160.32 114.405C162.63 114.405 164.689 114.79 166.497 115.56C168.323 116.33 169.764 117.485 170.821 119.024C171.877 120.546 172.405 122.462 172.405 124.771V136.668C172.405 138.566 172.513 140.007 172.728 140.992C172.942 141.959 173.247 142.809 173.641 143.543V144H164.563C164.134 143.105 163.812 142.013 163.597 140.724C163.4 139.417 163.301 138.074 163.301 136.695ZM164.402 126.249L164.456 131.083H160.455C159.613 131.083 158.897 131.199 158.306 131.432C157.733 131.664 157.268 131.987 156.91 132.398C156.569 132.792 156.319 133.24 156.158 133.741C156.014 134.243 155.943 134.771 155.943 135.326C155.943 135.863 156.068 136.346 156.319 136.776C156.587 137.188 156.945 137.51 157.393 137.743C157.841 137.975 158.342 138.092 158.897 138.092C159.9 138.092 160.75 137.904 161.448 137.528C162.164 137.134 162.71 136.66 163.086 136.104C163.462 135.549 163.65 135.03 163.65 134.547L165.638 138.253C165.28 138.969 164.868 139.694 164.402 140.428C163.955 141.162 163.391 141.843 162.71 142.469C162.048 143.078 161.233 143.579 160.267 143.973C159.3 144.349 158.127 144.537 156.749 144.537C154.958 144.537 153.311 144.17 151.807 143.436C150.321 142.702 149.131 141.681 148.235 140.375C147.34 139.05 146.893 137.528 146.893 135.809C146.893 134.305 147.161 132.962 147.698 131.781C148.253 130.599 149.086 129.597 150.196 128.773C151.306 127.949 152.72 127.323 154.439 126.893C156.158 126.463 158.181 126.249 160.508 126.249H164.402ZM199.664 137.555L210.567 146.202L204.712 151.144L193.997 142.496L199.664 137.555ZM211.023 123.67V125.255C211.023 128.245 210.603 130.93 209.761 133.312C208.938 135.675 207.756 137.698 206.216 139.381C204.694 141.046 202.895 142.326 200.818 143.221C198.742 144.098 196.45 144.537 193.943 144.537C191.419 144.537 189.109 144.098 187.015 143.221C184.938 142.326 183.13 141.046 181.59 139.381C180.068 137.698 178.886 135.675 178.045 133.312C177.221 130.93 176.81 128.245 176.81 125.255V123.67C176.81 120.681 177.221 117.995 178.045 115.614C178.886 113.233 180.059 111.209 181.563 109.544C183.085 107.861 184.884 106.581 186.961 105.704C189.056 104.809 191.365 104.361 193.89 104.361C196.396 104.361 198.688 104.809 200.765 105.704C202.859 106.581 204.668 107.861 206.189 109.544C207.729 111.209 208.92 113.233 209.761 115.614C210.603 117.995 211.023 120.681 211.023 123.67ZM201.436 125.255V123.617C201.436 121.683 201.266 119.982 200.926 118.514C200.604 117.028 200.12 115.784 199.476 114.781C198.831 113.779 198.034 113.027 197.085 112.525C196.154 112.006 195.089 111.747 193.89 111.747C192.636 111.747 191.544 112.006 190.613 112.525C189.682 113.027 188.903 113.779 188.277 114.781C187.65 115.784 187.176 117.028 186.854 118.514C186.549 119.982 186.397 121.683 186.397 123.617V125.255C186.397 127.171 186.549 128.871 186.854 130.357C187.176 131.826 187.65 133.07 188.277 134.09C188.921 135.111 189.709 135.881 190.64 136.4C191.589 136.919 192.69 137.179 193.943 137.179C195.143 137.179 196.208 136.919 197.139 136.4C198.07 135.881 198.849 135.111 199.476 134.09C200.12 133.07 200.604 131.826 200.926 130.357C201.266 128.871 201.436 127.171 201.436 125.255ZM214.273 129.767V129.203C214.273 127.072 214.577 125.112 215.186 123.321C215.795 121.513 216.69 119.946 217.872 118.622C219.053 117.297 220.512 116.267 222.249 115.533C223.986 114.781 225.991 114.405 228.265 114.405C230.556 114.405 232.57 114.781 234.307 115.533C236.062 116.267 237.53 117.297 238.711 118.622C239.893 119.946 240.788 121.513 241.397 123.321C242.006 125.112 242.31 127.072 242.31 129.203V129.767C242.31 131.879 242.006 133.84 241.397 135.648C240.788 137.438 239.893 139.005 238.711 140.348C237.53 141.673 236.071 142.702 234.334 143.436C232.597 144.17 230.592 144.537 228.318 144.537C226.045 144.537 224.03 144.17 222.276 143.436C220.521 142.702 219.053 141.673 217.872 140.348C216.69 139.005 215.795 137.438 215.186 135.648C214.577 133.84 214.273 131.879 214.273 129.767ZM223.323 129.203V129.767C223.323 130.859 223.404 131.879 223.565 132.828C223.726 133.777 223.995 134.61 224.371 135.326C224.747 136.024 225.257 136.57 225.901 136.964C226.546 137.358 227.352 137.555 228.318 137.555C229.267 137.555 230.055 137.358 230.682 136.964C231.326 136.57 231.836 136.024 232.212 135.326C232.588 134.61 232.857 133.777 233.018 132.828C233.179 131.879 233.26 130.859 233.26 129.767V129.203C233.26 128.146 233.179 127.153 233.018 126.222C232.857 125.273 232.588 124.44 232.212 123.724C231.836 122.99 231.326 122.417 230.682 122.005C230.037 121.594 229.231 121.388 228.265 121.388C227.316 121.388 226.519 121.594 225.875 122.005C225.248 122.417 224.747 122.99 224.371 123.724C223.995 124.44 223.726 125.273 223.565 126.222C223.404 127.153 223.323 128.146 223.323 129.203ZM263.311 136.937V114.942H272.388V144H263.902L263.311 136.937ZM264.17 131.029L266.534 130.975C266.534 132.927 266.301 134.735 265.835 136.4C265.37 138.047 264.681 139.479 263.768 140.697C262.872 141.914 261.762 142.863 260.438 143.543C259.131 144.206 257.618 144.537 255.899 144.537C254.467 144.537 253.151 144.34 251.951 143.946C250.77 143.535 249.749 142.899 248.89 142.04C248.03 141.162 247.359 140.043 246.875 138.683C246.41 137.304 246.177 135.657 246.177 133.741V114.942H255.228V133.795C255.228 134.439 255.308 134.994 255.469 135.46C255.63 135.925 255.863 136.319 256.167 136.642C256.472 136.946 256.848 137.179 257.295 137.34C257.761 137.483 258.289 137.555 258.88 137.555C260.241 137.555 261.306 137.268 262.076 136.695C262.846 136.122 263.383 135.344 263.687 134.359C264.009 133.374 264.17 132.264 264.17 131.029ZM294.087 137.34V102.75H303.191V144H295.027L294.087 137.34ZM276.255 129.82V129.256C276.255 127.054 276.497 125.049 276.98 123.241C277.464 121.415 278.18 119.848 279.129 118.541C280.078 117.216 281.259 116.196 282.674 115.479C284.088 114.763 285.717 114.405 287.562 114.405C289.209 114.405 290.65 114.79 291.885 115.56C293.121 116.312 294.177 117.368 295.054 118.729C295.931 120.09 296.648 121.683 297.203 123.509C297.758 125.318 298.178 127.269 298.465 129.364V130.035C298.178 132.005 297.758 133.867 297.203 135.621C296.648 137.358 295.931 138.897 295.054 140.24C294.177 141.583 293.112 142.639 291.858 143.409C290.623 144.161 289.173 144.537 287.508 144.537C285.664 144.537 284.035 144.17 282.62 143.436C281.224 142.702 280.051 141.673 279.102 140.348C278.171 139.023 277.464 137.465 276.98 135.675C276.497 133.884 276.255 131.933 276.255 129.82ZM285.306 129.256V129.82C285.306 130.912 285.377 131.924 285.521 132.855C285.664 133.786 285.905 134.61 286.246 135.326C286.604 136.024 287.069 136.57 287.642 136.964C288.233 137.358 288.958 137.555 289.817 137.555C290.981 137.555 291.939 137.277 292.691 136.722C293.461 136.167 294.025 135.379 294.383 134.359C294.759 133.338 294.92 132.139 294.866 130.76V128.639C294.902 127.457 294.821 126.419 294.625 125.523C294.428 124.61 294.114 123.849 293.685 123.241C293.273 122.632 292.745 122.175 292.1 121.871C291.473 121.549 290.73 121.388 289.871 121.388C289.03 121.388 288.313 121.585 287.723 121.979C287.15 122.372 286.684 122.927 286.326 123.644C285.968 124.342 285.708 125.174 285.547 126.141C285.386 127.09 285.306 128.128 285.306 129.256Z" fill="black"/>
<path d="M104.339 59.3726L97.5713 80H92.1196L101.365 55.1172H104.834L104.339 59.3726ZM109.961 80L103.177 59.3726L102.63 55.1172H106.133L115.43 80H109.961ZM109.654 70.7373V74.7534H96.5117V70.7373H109.654ZM122.625 53.75V80H117.686V53.75H122.625ZM131.888 61.5088V80H126.949V61.5088H131.888ZM126.641 56.6895C126.641 55.9717 126.892 55.3792 127.393 54.9121C127.894 54.445 128.567 54.2114 129.41 54.2114C130.241 54.2114 130.908 54.445 131.409 54.9121C131.922 55.3792 132.178 55.9717 132.178 56.6895C132.178 57.4072 131.922 57.9997 131.409 58.4668C130.908 58.9339 130.241 59.1675 129.41 59.1675C128.567 59.1675 127.894 58.9339 127.393 58.4668C126.892 57.9997 126.641 57.4072 126.641 56.6895ZM157.933 73.4888C157.933 73.0444 157.864 72.6457 157.728 72.2925C157.602 71.9279 157.363 71.5975 157.01 71.3013C156.657 70.9937 156.161 70.6917 155.523 70.3955C154.885 70.0993 154.059 69.7917 153.045 69.4727C151.917 69.1081 150.846 68.6979 149.832 68.2422C148.829 67.7865 147.941 67.2567 147.166 66.6528C146.403 66.0376 145.799 65.3255 145.354 64.5166C144.922 63.7077 144.705 62.7677 144.705 61.6968C144.705 60.66 144.933 59.7201 145.389 58.877C145.844 58.0225 146.482 57.2933 147.303 56.6895C148.123 56.0742 149.091 55.6014 150.208 55.271C151.336 54.9406 152.572 54.7754 153.917 54.7754C155.751 54.7754 157.352 55.1058 158.719 55.7666C160.086 56.4274 161.146 57.3332 161.897 58.4839C162.661 59.6346 163.042 60.9505 163.042 62.4316H157.95C157.95 61.7025 157.796 61.0645 157.488 60.5176C157.192 59.9593 156.736 59.5207 156.121 59.2017C155.517 58.8826 154.754 58.7231 153.831 58.7231C152.942 58.7231 152.202 58.8599 151.609 59.1333C151.017 59.3953 150.573 59.7542 150.276 60.21C149.98 60.6543 149.832 61.1556 149.832 61.7139C149.832 62.1354 149.935 62.5171 150.14 62.8589C150.356 63.2007 150.675 63.5197 151.097 63.8159C151.518 64.1121 152.037 64.3913 152.652 64.6533C153.267 64.9154 153.979 65.1717 154.788 65.4224C156.144 65.8325 157.334 66.2939 158.36 66.8066C159.397 67.3193 160.263 67.8947 160.958 68.5327C161.653 69.1707 162.177 69.8942 162.53 70.7031C162.883 71.512 163.06 72.4292 163.06 73.4546C163.06 74.5369 162.849 75.5054 162.427 76.3599C162.006 77.2144 161.396 77.9378 160.599 78.5303C159.801 79.1227 158.85 79.5728 157.745 79.8804C156.639 80.188 155.403 80.3418 154.036 80.3418C152.806 80.3418 151.592 80.1823 150.396 79.8633C149.2 79.5329 148.112 79.0373 147.132 78.3765C146.163 77.7157 145.389 76.8726 144.808 75.8472C144.227 74.8218 143.936 73.6084 143.936 72.207H149.08C149.08 72.9818 149.2 73.6369 149.439 74.1724C149.678 74.7078 150.014 75.1408 150.447 75.4712C150.892 75.8016 151.416 76.0409 152.02 76.189C152.635 76.3371 153.307 76.4111 154.036 76.4111C154.925 76.4111 155.654 76.2858 156.224 76.0352C156.805 75.7845 157.232 75.437 157.505 74.9927C157.79 74.5483 157.933 74.047 157.933 73.4888ZM171.041 53.75V80H166.119V53.75H171.041ZM170.34 70.105H168.99C169.001 68.8175 169.172 67.6326 169.502 66.5503C169.833 65.4565 170.306 64.5109 170.921 63.7134C171.536 62.9045 172.271 62.2778 173.125 61.8335C173.991 61.3892 174.948 61.167 175.997 61.167C176.908 61.167 177.734 61.298 178.475 61.5601C179.227 61.8107 179.87 62.2209 180.406 62.7905C180.953 63.3488 181.374 64.0837 181.67 64.9951C181.967 65.9066 182.115 67.0117 182.115 68.3105V80H177.159V68.2764C177.159 67.4561 177.039 66.8123 176.8 66.3452C176.572 65.8667 176.236 65.5306 175.792 65.3369C175.359 65.1318 174.823 65.0293 174.185 65.0293C173.479 65.0293 172.875 65.1603 172.374 65.4224C171.884 65.6844 171.491 66.049 171.194 66.5161C170.898 66.9718 170.682 67.5073 170.545 68.1226C170.408 68.7378 170.34 69.3986 170.34 70.105ZM194.368 80.3418C192.933 80.3418 191.645 80.1139 190.506 79.6582C189.367 79.1911 188.398 78.5474 187.601 77.7271C186.814 76.9067 186.211 75.9554 185.789 74.873C185.368 73.7793 185.157 72.6172 185.157 71.3867V70.7031C185.157 69.3018 185.356 68.02 185.755 66.8579C186.154 65.6958 186.723 64.6875 187.464 63.833C188.216 62.9785 189.127 62.3234 190.198 61.8677C191.269 61.4006 192.477 61.167 193.821 61.167C195.132 61.167 196.294 61.3835 197.308 61.8164C198.322 62.2493 199.17 62.8646 199.854 63.6621C200.549 64.4596 201.073 65.4167 201.426 66.5332C201.779 67.6383 201.956 68.8688 201.956 70.2246V72.2754H187.259V68.9941H197.12V68.6182C197.12 67.9346 196.994 67.325 196.744 66.7896C196.504 66.2427 196.14 65.8097 195.65 65.4907C195.16 65.1717 194.533 65.0122 193.77 65.0122C193.121 65.0122 192.562 65.1546 192.095 65.4395C191.628 65.7243 191.246 66.123 190.95 66.6357C190.665 67.1484 190.449 67.7523 190.301 68.4473C190.164 69.1309 190.096 69.8828 190.096 70.7031V71.3867C190.096 72.1273 190.198 72.8109 190.403 73.4375C190.62 74.0641 190.922 74.6053 191.309 75.061C191.708 75.5168 192.186 75.87 192.745 76.1206C193.314 76.3713 193.958 76.4966 194.676 76.4966C195.564 76.4966 196.39 76.3257 197.154 75.9839C197.929 75.6307 198.595 75.1009 199.153 74.3945L201.546 76.9922C201.159 77.5505 200.629 78.0859 199.957 78.5986C199.296 79.1113 198.498 79.5329 197.564 79.8633C196.63 80.1823 195.564 80.3418 194.368 80.3418ZM209.561 53.75V80H204.639V53.75H209.561ZM208.86 70.105H207.51C207.522 68.8175 207.693 67.6326 208.023 66.5503C208.353 65.4565 208.826 64.5109 209.441 63.7134C210.057 62.9045 210.792 62.2778 211.646 61.8335C212.512 61.3892 213.469 61.167 214.517 61.167C215.429 61.167 216.255 61.298 216.995 61.5601C217.747 61.8107 218.391 62.2209 218.926 62.7905C219.473 63.3488 219.895 64.0837 220.191 64.9951C220.487 65.9066 220.635 67.0117 220.635 68.3105V80H215.679V68.2764C215.679 67.4561 215.56 66.8123 215.32 66.3452C215.092 65.8667 214.756 65.5306 214.312 65.3369C213.879 65.1318 213.344 65.0293 212.706 65.0293C211.999 65.0293 211.395 65.1603 210.894 65.4224C210.404 65.6844 210.011 66.049 209.715 66.5161C209.419 66.9718 209.202 67.5073 209.065 68.1226C208.929 68.7378 208.86 69.3986 208.86 70.105ZM234.358 75.8301V67.5928C234.358 67.0003 234.262 66.4933 234.068 66.0718C233.874 65.6388 233.572 65.3027 233.162 65.0635C232.763 64.8242 232.245 64.7046 231.607 64.7046C231.06 64.7046 230.587 64.8014 230.188 64.9951C229.79 65.1774 229.482 65.4451 229.266 65.7983C229.049 66.1401 228.941 66.5446 228.941 67.0117H224.019C224.019 66.2256 224.201 65.4793 224.566 64.7729C224.931 64.0666 225.46 63.4456 226.155 62.9102C226.85 62.3633 227.676 61.936 228.633 61.6284C229.602 61.3208 230.684 61.167 231.88 61.167C233.316 61.167 234.592 61.4062 235.708 61.8848C236.825 62.3633 237.702 63.0811 238.34 64.0381C238.99 64.9951 239.314 66.1914 239.314 67.627V75.5396C239.314 76.5535 239.377 77.3853 239.502 78.0347C239.628 78.6727 239.81 79.231 240.049 79.7095V80H235.076C234.837 79.4987 234.655 78.8721 234.529 78.1201C234.415 77.3568 234.358 76.5934 234.358 75.8301ZM235.008 68.7378L235.042 71.5234H232.291C231.641 71.5234 231.077 71.5975 230.599 71.7456C230.12 71.8937 229.727 72.1045 229.419 72.3779C229.112 72.64 228.884 72.9476 228.736 73.3008C228.599 73.654 228.531 74.0413 228.531 74.4629C228.531 74.8844 228.628 75.2661 228.821 75.6079C229.015 75.9383 229.294 76.2004 229.659 76.394C230.023 76.5763 230.451 76.6675 230.94 76.6675C231.681 76.6675 232.325 76.5194 232.872 76.2231C233.418 75.9269 233.84 75.5623 234.136 75.1294C234.444 74.6965 234.603 74.2863 234.615 73.8989L235.914 75.9839C235.731 76.451 235.481 76.9352 235.162 77.4365C234.854 77.9378 234.461 78.4106 233.982 78.855C233.504 79.2879 232.929 79.6468 232.256 79.9316C231.584 80.2051 230.787 80.3418 229.864 80.3418C228.69 80.3418 227.625 80.1082 226.668 79.6411C225.722 79.1626 224.97 78.5075 224.412 77.6758C223.865 76.8327 223.592 75.8757 223.592 74.8047C223.592 73.8363 223.774 72.9761 224.139 72.2241C224.503 71.4722 225.039 70.8398 225.745 70.3271C226.463 69.8031 227.357 69.41 228.428 69.1479C229.499 68.8745 230.741 68.7378 232.154 68.7378H235.008ZM243.108 53.75H248.03V75.7617L247.535 80H243.108V53.75ZM259.737 70.5664V70.9253C259.737 72.3039 259.589 73.5685 259.292 74.7192C259.008 75.87 258.563 76.8669 257.959 77.71C257.356 78.5417 256.604 79.1911 255.704 79.6582C254.815 80.1139 253.767 80.3418 252.559 80.3418C251.431 80.3418 250.451 80.1139 249.62 79.6582C248.799 79.2025 248.11 78.5588 247.552 77.7271C246.993 76.8953 246.543 75.9212 246.202 74.8047C245.86 73.6882 245.604 72.4691 245.433 71.1475V70.3613C245.604 69.0397 245.86 67.8206 246.202 66.7041C246.543 65.5876 246.993 64.6134 247.552 63.7817C248.11 62.95 248.799 62.3063 249.62 61.8506C250.44 61.3949 251.408 61.167 252.525 61.167C253.744 61.167 254.804 61.4006 255.704 61.8677C256.615 62.3234 257.367 62.9728 257.959 63.8159C258.563 64.6476 259.008 65.6388 259.292 66.7896C259.589 67.9289 259.737 69.1878 259.737 70.5664ZM254.815 70.9253V70.5664C254.815 69.8145 254.758 69.1081 254.644 68.4473C254.542 67.7751 254.359 67.1883 254.097 66.687C253.835 66.1743 253.476 65.7699 253.021 65.4736C252.576 65.1774 252.001 65.0293 251.294 65.0293C250.622 65.0293 250.053 65.1432 249.585 65.3711C249.118 65.599 248.731 65.918 248.423 66.3281C248.127 66.7383 247.905 67.2282 247.757 67.7979C247.609 68.3561 247.518 68.9714 247.483 69.6436V71.8823C247.518 72.7824 247.666 73.5799 247.928 74.2749C248.201 74.9585 248.611 75.4997 249.158 75.8984C249.716 76.2858 250.44 76.4795 251.329 76.4795C252.024 76.4795 252.599 76.3428 253.055 76.0693C253.51 75.7959 253.864 75.4085 254.114 74.9072C254.376 74.4059 254.559 73.8192 254.661 73.147C254.764 72.4634 254.815 71.7228 254.815 70.9253Z" fill="#888888"/>
<rect x="92" y="181" width="1179" height="80" rx="13.3333" fill="#CCCCCC"/>
<rect x="107" y="196.333" width="208" height="49.3333" rx="4.66667" fill="#888888" stroke="#888888" stroke-width="4"/>
<path d="M150.833 213.167H156.802C157.969 213.167 158.983 213.34 159.844 213.687C160.705 214.035 161.368 214.549 161.833 215.229C162.306 215.91 162.542 216.75 162.542 217.75C162.542 218.618 162.406 219.344 162.135 219.927C161.865 220.51 161.486 220.993 161 221.375C160.521 221.75 159.962 222.059 159.323 222.302L158.125 222.979H153.115L153.094 220.156H156.802C157.267 220.156 157.653 220.073 157.958 219.906C158.264 219.74 158.493 219.503 158.646 219.198C158.806 218.885 158.885 218.514 158.885 218.083C158.885 217.646 158.806 217.271 158.646 216.958C158.486 216.646 158.25 216.406 157.937 216.24C157.632 216.073 157.253 215.99 156.802 215.99H154.49V228.333H150.833V213.167ZM159.135 228.333L155.781 221.625L159.656 221.604L163.052 228.177V228.333H159.135ZM170.042 228.542C169.125 228.542 168.306 228.399 167.583 228.115C166.861 227.823 166.25 227.424 165.75 226.917C165.257 226.41 164.878 225.826 164.615 225.167C164.358 224.507 164.229 223.809 164.229 223.073V222.677C164.229 221.851 164.344 221.087 164.573 220.385C164.802 219.677 165.142 219.059 165.594 218.531C166.045 218.003 166.611 217.594 167.292 217.302C167.972 217.003 168.764 216.854 169.667 216.854C170.465 216.854 171.181 216.983 171.813 217.24C172.444 217.497 172.979 217.865 173.417 218.344C173.861 218.823 174.198 219.403 174.427 220.083C174.663 220.764 174.781 221.528 174.781 222.375V223.802H165.573V221.604H171.354V221.333C171.361 220.958 171.295 220.639 171.156 220.375C171.024 220.111 170.83 219.91 170.573 219.771C170.316 219.632 170.003 219.562 169.635 219.562C169.253 219.562 168.938 219.646 168.688 219.812C168.444 219.979 168.253 220.208 168.115 220.5C167.983 220.785 167.889 221.115 167.833 221.49C167.778 221.865 167.75 222.26 167.75 222.677V223.073C167.75 223.49 167.806 223.868 167.917 224.208C168.035 224.549 168.201 224.84 168.417 225.083C168.639 225.319 168.903 225.503 169.208 225.635C169.521 225.767 169.875 225.833 170.271 225.833C170.75 225.833 171.222 225.743 171.688 225.562C172.153 225.382 172.552 225.083 172.885 224.667L174.479 226.562C174.25 226.889 173.924 227.205 173.5 227.51C173.083 227.816 172.583 228.066 172 228.26C171.417 228.448 170.764 228.542 170.042 228.542ZM182.063 225.5V220.854C182.063 220.535 182.017 220.26 181.927 220.031C181.837 219.802 181.694 219.625 181.5 219.5C181.306 219.368 181.045 219.302 180.719 219.302C180.455 219.302 180.229 219.347 180.042 219.437C179.854 219.528 179.712 219.663 179.615 219.844C179.517 220.024 179.469 220.253 179.469 220.531H175.958C175.958 220.01 176.073 219.528 176.302 219.083C176.538 218.632 176.872 218.24 177.302 217.906C177.74 217.573 178.26 217.316 178.865 217.135C179.476 216.948 180.156 216.854 180.906 216.854C181.802 216.854 182.601 217.003 183.302 217.302C184.01 217.601 184.569 218.049 184.979 218.646C185.389 219.236 185.594 219.979 185.594 220.875V225.49C185.594 226.226 185.635 226.785 185.719 227.167C185.802 227.542 185.92 227.872 186.073 228.156V228.333H182.552C182.385 227.986 182.26 227.562 182.177 227.062C182.101 226.556 182.063 226.035 182.063 225.5ZM182.49 221.448L182.51 223.323H180.958C180.632 223.323 180.354 223.368 180.125 223.458C179.903 223.549 179.722 223.674 179.583 223.833C179.451 223.986 179.354 224.16 179.292 224.354C179.236 224.549 179.208 224.753 179.208 224.969C179.208 225.177 179.257 225.365 179.354 225.531C179.458 225.691 179.597 225.816 179.771 225.906C179.944 225.997 180.139 226.042 180.354 226.042C180.743 226.042 181.073 225.969 181.344 225.823C181.622 225.67 181.833 225.486 181.979 225.271C182.125 225.056 182.198 224.854 182.198 224.667L182.969 226.104C182.83 226.382 182.67 226.663 182.49 226.948C182.316 227.233 182.097 227.497 181.833 227.74C181.576 227.976 181.26 228.17 180.885 228.323C180.51 228.469 180.056 228.542 179.521 228.542C178.826 228.542 178.188 228.399 177.604 228.115C177.028 227.83 176.566 227.434 176.219 226.927C175.872 226.413 175.698 225.823 175.698 225.156C175.698 224.573 175.802 224.052 176.01 223.594C176.226 223.135 176.549 222.747 176.979 222.427C177.41 222.108 177.958 221.865 178.625 221.698C179.292 221.531 180.076 221.448 180.979 221.448H182.49ZM192.302 225.833C192.628 225.833 192.906 225.774 193.135 225.656C193.372 225.531 193.549 225.358 193.667 225.135C193.792 224.906 193.851 224.632 193.844 224.312H197.146C197.153 225.16 196.944 225.903 196.521 226.542C196.104 227.174 195.535 227.667 194.812 228.021C194.097 228.368 193.288 228.542 192.385 228.542C191.503 228.542 190.733 228.399 190.073 228.115C189.413 227.823 188.861 227.42 188.417 226.906C187.979 226.385 187.649 225.778 187.427 225.083C187.212 224.389 187.104 223.635 187.104 222.823V222.583C187.104 221.771 187.212 221.017 187.427 220.323C187.649 219.622 187.979 219.014 188.417 218.5C188.861 217.979 189.41 217.576 190.062 217.292C190.722 217 191.49 216.854 192.365 216.854C193.302 216.854 194.128 217.031 194.844 217.385C195.566 217.74 196.132 218.253 196.542 218.927C196.951 219.601 197.153 220.417 197.146 221.375H193.844C193.851 221.035 193.799 220.729 193.687 220.458C193.576 220.187 193.403 219.972 193.167 219.812C192.937 219.646 192.642 219.562 192.281 219.562C191.92 219.562 191.628 219.642 191.406 219.802C191.184 219.962 191.014 220.184 190.896 220.469C190.785 220.747 190.708 221.066 190.667 221.427C190.632 221.788 190.615 222.174 190.615 222.583V222.823C190.615 223.24 190.632 223.632 190.667 224C190.708 224.361 190.788 224.681 190.906 224.958C191.024 225.229 191.194 225.444 191.417 225.604C191.639 225.757 191.934 225.833 192.302 225.833ZM204.583 217.062V219.5H197.792V217.062H204.583ZM199.219 214.26H202.729V224.656C202.729 224.955 202.764 225.187 202.833 225.354C202.903 225.514 203.021 225.628 203.188 225.698C203.361 225.76 203.59 225.792 203.875 225.792C204.076 225.792 204.243 225.788 204.375 225.781C204.507 225.767 204.632 225.75 204.75 225.729V228.24C204.451 228.337 204.139 228.41 203.813 228.458C203.486 228.514 203.139 228.542 202.771 228.542C202.021 228.542 201.378 228.424 200.844 228.187C200.316 227.951 199.913 227.58 199.635 227.073C199.358 226.566 199.219 225.906 199.219 225.094V214.26ZM224.125 213.167V228.333H220.479L215.115 218.896V228.333H211.458V213.167H215.115L220.479 222.604V213.167H224.125ZM232.125 225.5V220.854C232.125 220.535 232.08 220.26 231.99 220.031C231.899 219.802 231.757 219.625 231.563 219.5C231.368 219.368 231.108 219.302 230.781 219.302C230.517 219.302 230.292 219.347 230.104 219.437C229.917 219.528 229.774 219.663 229.677 219.844C229.58 220.024 229.531 220.253 229.531 220.531H226.021C226.021 220.01 226.135 219.528 226.365 219.083C226.601 218.632 226.934 218.24 227.365 217.906C227.802 217.573 228.323 217.316 228.927 217.135C229.538 216.948 230.219 216.854 230.969 216.854C231.865 216.854 232.663 217.003 233.365 217.302C234.073 217.601 234.632 218.049 235.042 218.646C235.451 219.236 235.656 219.979 235.656 220.875V225.49C235.656 226.226 235.698 226.785 235.781 227.167C235.865 227.542 235.983 227.872 236.135 228.156V228.333H232.615C232.448 227.986 232.323 227.562 232.24 227.062C232.163 226.556 232.125 226.035 232.125 225.5ZM232.552 221.448L232.573 223.323H231.021C230.694 223.323 230.417 223.368 230.188 223.458C229.965 223.549 229.785 223.674 229.646 223.833C229.514 223.986 229.417 224.16 229.354 224.354C229.299 224.549 229.271 224.753 229.271 224.969C229.271 225.177 229.319 225.365 229.417 225.531C229.521 225.691 229.66 225.816 229.833 225.906C230.007 225.997 230.201 226.042 230.417 226.042C230.806 226.042 231.135 225.969 231.406 225.823C231.684 225.67 231.896 225.486 232.042 225.271C232.188 225.056 232.26 224.854 232.26 224.667L233.031 226.104C232.892 226.382 232.733 226.663 232.552 226.948C232.378 227.233 232.16 227.497 231.896 227.74C231.639 227.976 231.323 228.17 230.948 228.323C230.573 228.469 230.118 228.542 229.583 228.542C228.889 228.542 228.25 228.399 227.667 228.115C227.09 227.83 226.628 227.434 226.281 226.927C225.934 226.413 225.76 225.823 225.76 225.156C225.76 224.573 225.865 224.052 226.073 223.594C226.288 223.135 226.611 222.747 227.042 222.427C227.472 222.108 228.021 221.865 228.688 221.698C229.354 221.531 230.139 221.448 231.042 221.448H232.552ZM243.542 217.062V219.5H236.75V217.062H243.542ZM238.177 214.26H241.687V224.656C241.687 224.955 241.722 225.187 241.792 225.354C241.861 225.514 241.979 225.628 242.146 225.698C242.319 225.76 242.549 225.792 242.833 225.792C243.035 225.792 243.201 225.788 243.333 225.781C243.465 225.767 243.59 225.75 243.708 225.729V228.24C243.41 228.337 243.097 228.41 242.771 228.458C242.444 228.514 242.097 228.542 241.729 228.542C240.979 228.542 240.337 228.424 239.802 228.187C239.274 227.951 238.872 227.58 238.594 227.073C238.316 226.566 238.177 225.906 238.177 225.094V214.26ZM248.646 217.062V228.333H245.125V217.062H248.646ZM244.917 214.156C244.917 213.656 245.097 213.247 245.458 212.927C245.819 212.608 246.288 212.448 246.865 212.448C247.441 212.448 247.91 212.608 248.271 212.927C248.632 213.247 248.813 213.656 248.813 214.156C248.813 214.656 248.632 215.066 248.271 215.385C247.91 215.705 247.441 215.865 246.865 215.865C246.288 215.865 245.819 215.705 245.458 215.385C245.097 215.066 244.917 214.656 244.917 214.156ZM254.875 225.927L257.094 217.062H260.792L257.104 228.333H254.917L254.875 225.927ZM253.563 217.062L255.75 225.927L255.729 228.333H253.531L249.854 217.062H253.563ZM267.146 228.542C266.229 228.542 265.41 228.399 264.688 228.115C263.965 227.823 263.354 227.424 262.854 226.917C262.361 226.41 261.983 225.826 261.719 225.167C261.462 224.507 261.333 223.809 261.333 223.073V222.677C261.333 221.851 261.448 221.087 261.677 220.385C261.906 219.677 262.247 219.059 262.698 218.531C263.149 218.003 263.715 217.594 264.396 217.302C265.076 217.003 265.868 216.854 266.771 216.854C267.569 216.854 268.285 216.983 268.917 217.24C269.549 217.497 270.083 217.865 270.521 218.344C270.965 218.823 271.302 219.403 271.531 220.083C271.767 220.764 271.885 221.528 271.885 222.375V223.802H262.677V221.604H268.458V221.333C268.465 220.958 268.399 220.639 268.26 220.375C268.128 220.111 267.934 219.91 267.677 219.771C267.42 219.632 267.108 219.562 266.74 219.562C266.358 219.562 266.042 219.646 265.792 219.812C265.549 219.979 265.358 220.208 265.219 220.5C265.087 220.785 264.993 221.115 264.938 221.49C264.882 221.865 264.854 222.26 264.854 222.677V223.073C264.854 223.49 264.91 223.868 265.021 224.208C265.139 224.549 265.306 224.84 265.521 225.083C265.743 225.319 266.007 225.503 266.313 225.635C266.625 225.767 266.979 225.833 267.375 225.833C267.854 225.833 268.326 225.743 268.792 225.562C269.257 225.382 269.656 225.083 269.99 224.667L271.583 226.562C271.354 226.889 271.028 227.205 270.604 227.51C270.188 227.816 269.688 228.066 269.104 228.26C268.521 228.448 267.868 228.542 267.146 228.542Z" fill="white"/>
<rect x="339" y="196.333" width="208" height="49.3333" rx="4.66667" fill="#888888" stroke="#888888" stroke-width="4"/>
<path d="M383.594 223.187H379.823V220.365H383.594C384.108 220.365 384.524 220.278 384.844 220.104C385.163 219.931 385.396 219.691 385.542 219.385C385.694 219.073 385.771 218.722 385.771 218.333C385.771 217.917 385.694 217.531 385.542 217.177C385.396 216.823 385.163 216.538 384.844 216.323C384.524 216.101 384.108 215.99 383.594 215.99H381.198V228.333H377.542V213.167H383.594C384.809 213.167 385.854 213.389 386.729 213.833C387.611 214.278 388.288 214.889 388.76 215.667C389.233 216.437 389.469 217.319 389.469 218.312C389.469 219.292 389.233 220.146 388.76 220.875C388.288 221.604 387.611 222.174 386.729 222.583C385.854 222.986 384.809 223.187 383.594 223.187ZM401.656 219.187V222H393.875V219.187H401.656ZM395.094 213.167V228.333H391.438V213.167H395.094ZM404.115 213.167V228.333H400.469V213.167H404.115ZM412.49 223.187H408.719V220.365H412.49C413.003 220.365 413.42 220.278 413.74 220.104C414.059 219.931 414.292 219.691 414.438 219.385C414.59 219.073 414.667 218.722 414.667 218.333C414.667 217.917 414.59 217.531 414.438 217.177C414.292 216.823 414.059 216.538 413.74 216.323C413.42 216.101 413.003 215.99 412.49 215.99H410.094V228.333H406.438V213.167H412.49C413.705 213.167 414.75 213.389 415.625 213.833C416.507 214.278 417.184 214.889 417.656 215.667C418.128 216.437 418.365 217.319 418.365 218.312C418.365 219.292 418.128 220.146 417.656 220.875C417.184 221.604 416.507 222.174 415.625 222.583C414.75 222.986 413.705 223.187 412.49 223.187ZM432.333 220.437V223.156H426.073V220.437H432.333ZM450.583 225.521V228.333H442.917V225.521H450.583ZM444.219 213.167V228.333H440.563V213.167H444.219ZM457.813 225.5V220.854C457.813 220.535 457.767 220.26 457.677 220.031C457.587 219.802 457.444 219.625 457.25 219.5C457.056 219.368 456.795 219.302 456.469 219.302C456.205 219.302 455.979 219.347 455.792 219.437C455.604 219.528 455.462 219.663 455.365 219.844C455.267 220.024 455.219 220.253 455.219 220.531H451.708C451.708 220.01 451.823 219.528 452.052 219.083C452.288 218.632 452.622 218.24 453.052 217.906C453.49 217.573 454.01 217.316 454.615 217.135C455.226 216.948 455.906 216.854 456.656 216.854C457.552 216.854 458.351 217.003 459.052 217.302C459.76 217.601 460.319 218.049 460.729 218.646C461.139 219.236 461.344 219.979 461.344 220.875V225.49C461.344 226.226 461.385 226.785 461.469 227.167C461.552 227.542 461.67 227.872 461.823 228.156V228.333H458.302C458.135 227.986 458.01 227.562 457.927 227.062C457.851 226.556 457.813 226.035 457.813 225.5ZM458.24 221.448L458.26 223.323H456.708C456.382 223.323 456.104 223.368 455.875 223.458C455.653 223.549 455.472 223.674 455.333 223.833C455.201 223.986 455.104 224.16 455.042 224.354C454.986 224.549 454.958 224.753 454.958 224.969C454.958 225.177 455.007 225.365 455.104 225.531C455.208 225.691 455.347 225.816 455.521 225.906C455.694 225.997 455.889 226.042 456.104 226.042C456.493 226.042 456.823 225.969 457.094 225.823C457.372 225.67 457.583 225.486 457.729 225.271C457.875 225.056 457.948 224.854 457.948 224.667L458.719 226.104C458.58 226.382 458.42 226.663 458.24 226.948C458.066 227.233 457.847 227.497 457.583 227.74C457.326 227.976 457.01 228.17 456.635 228.323C456.26 228.469 455.806 228.542 455.271 228.542C454.576 228.542 453.938 228.399 453.354 228.115C452.778 227.83 452.316 227.434 451.969 226.927C451.622 226.413 451.448 225.823 451.448 225.156C451.448 224.573 451.552 224.052 451.76 223.594C451.976 223.135 452.299 222.747 452.729 222.427C453.16 222.108 453.708 221.865 454.375 221.698C455.042 221.531 455.826 221.448 456.729 221.448H458.24ZM466.833 219.854V228.333H463.323V217.062H466.604L466.833 219.854ZM470.167 216.979L470.104 220.24C469.965 220.226 469.778 220.208 469.542 220.187C469.306 220.167 469.108 220.156 468.948 220.156C468.538 220.156 468.184 220.205 467.885 220.302C467.594 220.392 467.351 220.531 467.156 220.719C466.969 220.899 466.83 221.128 466.74 221.406C466.656 221.684 466.618 222.007 466.625 222.375L465.99 221.958C465.99 221.201 466.063 220.514 466.208 219.896C466.361 219.271 466.576 218.733 466.854 218.281C467.132 217.823 467.469 217.472 467.865 217.229C468.26 216.979 468.705 216.854 469.198 216.854C469.372 216.854 469.542 216.865 469.708 216.885C469.882 216.906 470.035 216.937 470.167 216.979ZM476.917 225.5V220.854C476.917 220.535 476.872 220.26 476.781 220.031C476.691 219.802 476.549 219.625 476.354 219.5C476.16 219.368 475.899 219.302 475.573 219.302C475.309 219.302 475.083 219.347 474.896 219.437C474.708 219.528 474.566 219.663 474.469 219.844C474.372 220.024 474.323 220.253 474.323 220.531H470.812C470.812 220.01 470.927 219.528 471.156 219.083C471.392 218.632 471.726 218.24 472.156 217.906C472.594 217.573 473.115 217.316 473.719 217.135C474.33 216.948 475.01 216.854 475.76 216.854C476.656 216.854 477.455 217.003 478.156 217.302C478.865 217.601 479.424 218.049 479.833 218.646C480.243 219.236 480.448 219.979 480.448 220.875V225.49C480.448 226.226 480.49 226.785 480.573 227.167C480.656 227.542 480.774 227.872 480.927 228.156V228.333H477.406C477.24 227.986 477.115 227.562 477.031 227.062C476.955 226.556 476.917 226.035 476.917 225.5ZM477.344 221.448L477.365 223.323H475.812C475.486 223.323 475.208 223.368 474.979 223.458C474.757 223.549 474.576 223.674 474.437 223.833C474.306 223.986 474.208 224.16 474.146 224.354C474.09 224.549 474.062 224.753 474.062 224.969C474.062 225.177 474.111 225.365 474.208 225.531C474.312 225.691 474.451 225.816 474.625 225.906C474.799 225.997 474.993 226.042 475.208 226.042C475.597 226.042 475.927 225.969 476.198 225.823C476.476 225.67 476.687 225.486 476.833 225.271C476.979 225.056 477.052 224.854 477.052 224.667L477.823 226.104C477.684 226.382 477.524 226.663 477.344 226.948C477.17 227.233 476.951 227.497 476.687 227.74C476.431 227.976 476.115 228.17 475.74 228.323C475.365 228.469 474.91 228.542 474.375 228.542C473.681 228.542 473.042 228.399 472.458 228.115C471.882 227.83 471.42 227.434 471.073 226.927C470.726 226.413 470.552 225.823 470.552 225.156C470.552 224.573 470.656 224.052 470.865 223.594C471.08 223.135 471.403 222.747 471.833 222.427C472.264 222.108 472.812 221.865 473.479 221.698C474.146 221.531 474.931 221.448 475.833 221.448H477.344ZM486.292 225.927L488.51 217.062H492.208L488.521 228.333H486.333L486.292 225.927ZM484.979 217.062L487.167 225.927L487.146 228.333H484.948L481.271 217.062H484.979ZM498.563 228.542C497.646 228.542 496.826 228.399 496.104 228.115C495.382 227.823 494.771 227.424 494.271 226.917C493.778 226.41 493.399 225.826 493.135 225.167C492.878 224.507 492.75 223.809 492.75 223.073V222.677C492.75 221.851 492.865 221.087 493.094 220.385C493.323 219.677 493.663 219.059 494.115 218.531C494.566 218.003 495.132 217.594 495.813 217.302C496.493 217.003 497.285 216.854 498.188 216.854C498.986 216.854 499.701 216.983 500.333 217.24C500.965 217.497 501.5 217.865 501.938 218.344C502.382 218.823 502.719 219.403 502.948 220.083C503.184 220.764 503.302 221.528 503.302 222.375V223.802H494.094V221.604H499.875V221.333C499.882 220.958 499.816 220.639 499.677 220.375C499.545 220.111 499.351 219.91 499.094 219.771C498.837 219.632 498.524 219.562 498.156 219.562C497.774 219.562 497.458 219.646 497.208 219.812C496.965 219.979 496.774 220.208 496.635 220.5C496.503 220.785 496.41 221.115 496.354 221.49C496.299 221.865 496.271 222.26 496.271 222.677V223.073C496.271 223.49 496.326 223.868 496.438 224.208C496.556 224.549 496.722 224.84 496.938 225.083C497.16 225.319 497.424 225.503 497.729 225.635C498.042 225.767 498.396 225.833 498.792 225.833C499.271 225.833 499.743 225.743 500.208 225.562C500.674 225.382 501.073 225.083 501.406 224.667L503 226.562C502.771 226.889 502.444 227.205 502.021 227.51C501.604 227.816 501.104 228.066 500.521 228.26C499.938 228.448 499.285 228.542 498.563 228.542ZM508.438 212.333V228.333H504.917V212.333H508.438Z" fill="white"/>
<rect x="571" y="196.333" width="208" height="49.3333" rx="4.66667" fill="#888888" stroke="#888888" stroke-width="4"/>
<path d="M643.26 213.167H646.24L649.625 223.719L653.01 213.167H655.99L650.833 228.333H648.417L643.26 213.167ZM641.448 213.167H644.531L645.104 224.792V228.333H641.448V213.167ZM654.719 213.167H657.812V228.333H654.146V224.792L654.719 213.167ZM663.448 227.01L666.365 217.062H670.135L665.604 230.01C665.507 230.295 665.378 230.601 665.219 230.927C665.059 231.26 664.84 231.576 664.563 231.875C664.285 232.174 663.927 232.417 663.49 232.604C663.059 232.792 662.524 232.885 661.885 232.885C661.545 232.885 661.295 232.868 661.135 232.833C660.983 232.806 660.747 232.753 660.427 232.677V230.167C660.517 230.167 660.594 230.167 660.656 230.167C660.726 230.167 660.802 230.167 660.885 230.167C661.26 230.167 661.559 230.128 661.781 230.052C662.01 229.976 662.184 229.865 662.302 229.719C662.427 229.573 662.524 229.396 662.594 229.187L663.448 227.01ZM662.708 217.062L664.927 224.948L665.313 228.667H662.958L658.948 217.062H662.708ZM679.031 224.302C679.031 224.066 678.997 223.854 678.927 223.667C678.858 223.472 678.729 223.292 678.542 223.125C678.354 222.958 678.083 222.792 677.729 222.625C677.382 222.451 676.924 222.271 676.354 222.083C675.688 221.861 675.045 221.611 674.427 221.333C673.809 221.049 673.257 220.719 672.771 220.344C672.285 219.962 671.899 219.517 671.615 219.01C671.33 218.497 671.188 217.899 671.188 217.219C671.188 216.566 671.333 215.979 671.625 215.458C671.917 214.931 672.323 214.483 672.844 214.115C673.372 213.74 673.99 213.455 674.698 213.26C675.406 213.059 676.181 212.958 677.021 212.958C678.132 212.958 679.111 213.153 679.958 213.542C680.813 213.924 681.479 214.469 681.958 215.177C682.444 215.878 682.688 216.708 682.688 217.667H679.052C679.052 217.285 678.972 216.948 678.813 216.656C678.66 216.365 678.427 216.135 678.115 215.969C677.802 215.802 677.41 215.719 676.938 215.719C676.479 215.719 676.094 215.788 675.781 215.927C675.469 216.066 675.233 216.253 675.073 216.49C674.913 216.719 674.833 216.972 674.833 217.25C674.833 217.479 674.896 217.687 675.021 217.875C675.153 218.056 675.337 218.226 675.573 218.385C675.816 218.545 676.108 218.698 676.448 218.844C676.795 218.99 677.184 219.132 677.615 219.271C678.42 219.528 679.135 219.816 679.76 220.135C680.392 220.448 680.924 220.806 681.354 221.208C681.792 221.604 682.122 222.056 682.344 222.562C682.573 223.069 682.688 223.642 682.688 224.281C682.688 224.962 682.556 225.566 682.292 226.094C682.028 226.622 681.649 227.069 681.156 227.437C680.663 227.799 680.073 228.073 679.385 228.26C678.698 228.448 677.931 228.542 677.083 228.542C676.306 228.542 675.538 228.444 674.781 228.25C674.031 228.049 673.351 227.743 672.74 227.333C672.128 226.917 671.639 226.385 671.271 225.74C670.91 225.087 670.729 224.312 670.729 223.417H674.396C674.396 223.861 674.455 224.236 674.573 224.542C674.691 224.847 674.865 225.094 675.094 225.281C675.323 225.462 675.604 225.594 675.938 225.677C676.271 225.753 676.653 225.792 677.083 225.792C677.549 225.792 677.924 225.726 678.208 225.594C678.493 225.455 678.701 225.274 678.833 225.052C678.965 224.823 679.031 224.573 679.031 224.302ZM693.031 225.833L697.26 229.187L694.99 231.104L690.833 227.75L693.031 225.833ZM697.437 220.448V221.062C697.437 222.222 697.274 223.264 696.948 224.187C696.628 225.104 696.17 225.889 695.573 226.542C694.983 227.187 694.285 227.684 693.479 228.031C692.674 228.372 691.785 228.542 690.812 228.542C689.833 228.542 688.937 228.372 688.125 228.031C687.319 227.684 686.618 227.187 686.021 226.542C685.431 225.889 684.972 225.104 684.646 224.187C684.326 223.264 684.167 222.222 684.167 221.062V220.448C684.167 219.288 684.326 218.247 684.646 217.323C684.972 216.399 685.427 215.615 686.01 214.969C686.601 214.316 687.299 213.819 688.104 213.479C688.917 213.132 689.812 212.958 690.792 212.958C691.764 212.958 692.653 213.132 693.458 213.479C694.271 213.819 694.972 214.316 695.562 214.969C696.16 215.615 696.622 216.399 696.948 217.323C697.274 218.247 697.437 219.288 697.437 220.448ZM693.719 221.062V220.427C693.719 219.677 693.653 219.017 693.521 218.448C693.396 217.872 693.208 217.389 692.958 217C692.708 216.611 692.399 216.319 692.031 216.125C691.67 215.924 691.257 215.823 690.792 215.823C690.306 215.823 689.882 215.924 689.521 216.125C689.16 216.319 688.858 216.611 688.615 217C688.372 217.389 688.187 217.872 688.062 218.448C687.944 219.017 687.885 219.677 687.885 220.427V221.062C687.885 221.806 687.944 222.465 688.062 223.042C688.187 223.611 688.372 224.094 688.615 224.49C688.865 224.885 689.17 225.184 689.531 225.385C689.899 225.587 690.326 225.687 690.812 225.687C691.278 225.687 691.691 225.587 692.052 225.385C692.413 225.184 692.715 224.885 692.958 224.49C693.208 224.094 693.396 223.611 693.521 223.042C693.653 222.465 693.719 221.806 693.719 221.062ZM709.323 225.521V228.333H701.656V225.521H709.323ZM702.958 213.167V228.333H699.302V213.167H702.958Z" fill="white"/>
</svg>
